M48
; DRILL file {KiCad (5.1.6)-1} date 05/27/21 20:40:58
; FORMAT={-:-/ absolute / inch / decimal}
; #@! TF.CreationDate,2021-05-27T20:40:58-04:00
; #@! TF.GenerationSoftware,Kicad,Pcbnew,(5.1.6)-1
; #@! TF.FileFunction,Plated,1,2,PTH
FMAT,2
INCH
T1C0.0157
T2C0.0295
T3C0.0315
T4C0.0331
T5C0.0394
T6C0.0433
T7C0.0598
T8C0.0922
T9C0.0984
%
G90
G05
T1
X4.85Y-3.23
X4.95Y-3.95
X5.2Y-3.79
X5.29Y-4.55
T2
X5.1766Y-4.7016
X5.275Y-4.8984
X5.3734Y-4.7016
X5.6516Y-4.025
X5.8484Y-3.9266
X5.8484Y-4.1234
X4.735Y-3.325
X4.785Y-3.275
X4.835Y-3.325
X5.9531Y-4.7266
X5.9531Y-4.9234
X6.15Y-4.825
T3
X5.575Y-4.65
X5.575Y-4.95
X5.775Y-3.2872
X5.775Y-3.425
X5.75Y-4.3
X5.75Y-4.4969
X6.025Y-4.15
X6.025Y-4.45
X5.5Y-3.625
X5.8Y-3.625
X5.325Y-4.3
X5.625Y-4.3
X5.5Y-3.25
X5.5Y-3.4469
X6.4372Y-4.825
X6.575Y-4.825
X4.725Y-3.125
X5.025Y-3.125
X5.01Y-3.5931
X5.01Y-3.79
X4.75Y-3.475
X4.75Y-3.775
X6.875Y-4.825
X7.0128Y-4.825
X6.4372Y-3.075
X6.575Y-3.075
X6.575Y-3.925
X6.875Y-3.925
X5.75Y-4.65
X5.75Y-4.95
X6.025Y-3.45
X6.025Y-3.75
X5.15Y-4.0
X5.15Y-4.3
X4.905Y-3.5931
X4.905Y-3.79
X6.875Y-3.075
X7.0128Y-3.075
T4
X4.575Y-4.07
X4.575Y-4.17
X4.575Y-4.27
X4.575Y-4.37
X4.575Y-4.47
X4.575Y-4.57
X4.575Y-4.67
X4.575Y-4.77
X4.575Y-4.87
X4.575Y-3.125
X4.575Y-3.225
X4.575Y-3.325
X4.575Y-3.425
X4.575Y-3.525
X4.575Y-3.625
X4.575Y-3.725
X4.575Y-3.825
X4.575Y-3.925
T5
X5.6Y-2.85
X5.7Y-2.85
X5.8Y-2.85
X4.15Y-3.225
X4.15Y-3.325
X4.15Y-3.425
X4.15Y-3.525
X4.15Y-3.625
X4.15Y-3.725
X4.15Y-3.825
X4.15Y-3.925
X4.15Y-4.025
X4.15Y-4.125
X4.15Y-4.225
X4.15Y-4.325
X4.15Y-4.425
X4.15Y-4.525
X4.15Y-4.625
X4.15Y-4.725
X4.25Y-3.225
X4.25Y-3.325
X4.25Y-3.425
X4.25Y-3.525
X4.25Y-3.625
X4.25Y-3.725
X4.25Y-3.825
X4.25Y-3.925
X4.25Y-4.025
X4.25Y-4.125
X4.25Y-4.225
X4.25Y-4.325
X4.25Y-4.425
X4.25Y-4.525
X4.25Y-4.625
X4.25Y-4.725
T6
X6.5911Y-3.725
X6.6581Y-3.5793
X6.725Y-3.725
X6.7919Y-3.5793
X6.8589Y-3.725
X7.45Y-3.225
X7.45Y-3.625
X6.5911Y-4.425
X6.6581Y-4.2793
X6.725Y-4.425
X6.7919Y-4.2793
X6.8589Y-4.425
X7.6Y-4.325
X7.6Y-4.725
X7.6Y-3.225
X7.6Y-3.625
X5.37Y-3.41
X5.37Y-3.81
X5.5Y-3.05
X5.9Y-3.05
X7.45Y-4.325
X7.45Y-4.725
T7
X4.75Y-2.825
X4.95Y-2.825
X7.55Y-3.9
X7.55Y-4.1
T8
X6.3839Y-4.125
X7.065Y-4.125
X6.3839Y-3.425
X7.065Y-3.425
X5.3589Y-2.7404
X6.04Y-2.7404
T9
X6.25Y-4.4596
X7.1988Y-4.4596
X6.25Y-3.7596
X7.1988Y-3.7596
X5.225Y-3.075
X6.1738Y-3.075
T0
M30
