%TF.GenerationSoftware,KiCad,Pcbnew,(5.1.6)-1*%
%TF.CreationDate,2021-05-27T20:40:55-04:00*%
%TF.ProjectId,MirrorDeflectionDriver,4d697272-6f72-4446-9566-6c656374696f,rev?*%
%TF.SameCoordinates,Original*%
%TF.FileFunction,Copper,L1,Top*%
%TF.FilePolarity,Positive*%
%FSLAX46Y46*%
G04 Gerber Fmt 4.6, Leading zero omitted, Abs format (unit mm)*
G04 Created by KiCad (PCBNEW (5.1.6)-1) date 2021-05-27 20:40:55*
%MOMM*%
%LPD*%
G01*
G04 APERTURE LIST*
%TA.AperFunction,ComponentPad*%
%ADD10O,2.200000X2.200000*%
%TD*%
%TA.AperFunction,ComponentPad*%
%ADD11R,2.200000X2.200000*%
%TD*%
%TA.AperFunction,ComponentPad*%
%ADD12R,1.300000X1.300000*%
%TD*%
%TA.AperFunction,ComponentPad*%
%ADD13C,1.300000*%
%TD*%
%TA.AperFunction,SMDPad,CuDef*%
%ADD14R,1.100000X0.650000*%
%TD*%
%TA.AperFunction,SMDPad,CuDef*%
%ADD15R,0.450000X1.800000*%
%TD*%
%TA.AperFunction,ComponentPad*%
%ADD16O,1.700000X1.700000*%
%TD*%
%TA.AperFunction,ComponentPad*%
%ADD17R,1.700000X1.700000*%
%TD*%
%TA.AperFunction,ComponentPad*%
%ADD18O,1.800000X1.800000*%
%TD*%
%TA.AperFunction,ComponentPad*%
%ADD19R,1.800000X1.800000*%
%TD*%
%TA.AperFunction,ComponentPad*%
%ADD20C,3.750000*%
%TD*%
%TA.AperFunction,ComponentPad*%
%ADD21C,3.515000*%
%TD*%
%TA.AperFunction,ComponentPad*%
%ADD22C,1.340000*%
%TD*%
%TA.AperFunction,ComponentPad*%
%ADD23C,1.200000*%
%TD*%
%TA.AperFunction,ComponentPad*%
%ADD24O,1.600000X1.600000*%
%TD*%
%TA.AperFunction,ComponentPad*%
%ADD25C,1.600000*%
%TD*%
%TA.AperFunction,ComponentPad*%
%ADD26C,3.000000*%
%TD*%
%TA.AperFunction,ComponentPad*%
%ADD27R,3.000000X3.000000*%
%TD*%
%TA.AperFunction,ComponentPad*%
%ADD28R,1.600000X1.600000*%
%TD*%
%TA.AperFunction,ViaPad*%
%ADD29C,0.800000*%
%TD*%
%TA.AperFunction,Conductor*%
%ADD30C,0.500000*%
%TD*%
%TA.AperFunction,Conductor*%
%ADD31C,0.250000*%
%TD*%
%TA.AperFunction,Conductor*%
%ADD32C,2.000000*%
%TD*%
%TA.AperFunction,Conductor*%
%ADD33C,0.254000*%
%TD*%
G04 APERTURE END LIST*
D10*
%TO.P,D2,2*%
%TO.N,Net-(C7-Pad1)*%
X136398000Y-96774000D03*
D11*
%TO.P,D2,1*%
%TO.N,+5V*%
X136398000Y-86614000D03*
%TD*%
%TO.P,IC1,8*%
%TO.N,+12V*%
%TA.AperFunction,SMDPad,CuDef*%
G36*
G01*
X137825000Y-112155000D02*
X137825000Y-111955000D01*
G75*
G02*
X137925000Y-111855000I100000J0D01*
G01*
X139350000Y-111855000D01*
G75*
G02*
X139450000Y-111955000I0J-100000D01*
G01*
X139450000Y-112155000D01*
G75*
G02*
X139350000Y-112255000I-100000J0D01*
G01*
X137925000Y-112255000D01*
G75*
G02*
X137825000Y-112155000I0J100000D01*
G01*
G37*
%TD.AperFunction*%
%TO.P,IC1,7*%
%TO.N,Net-(C9-Pad1)*%
%TA.AperFunction,SMDPad,CuDef*%
G36*
G01*
X137825000Y-112805000D02*
X137825000Y-112605000D01*
G75*
G02*
X137925000Y-112505000I100000J0D01*
G01*
X139350000Y-112505000D01*
G75*
G02*
X139450000Y-112605000I0J-100000D01*
G01*
X139450000Y-112805000D01*
G75*
G02*
X139350000Y-112905000I-100000J0D01*
G01*
X137925000Y-112905000D01*
G75*
G02*
X137825000Y-112805000I0J100000D01*
G01*
G37*
%TD.AperFunction*%
%TO.P,IC1,6*%
%TA.AperFunction,SMDPad,CuDef*%
G36*
G01*
X137825000Y-113455000D02*
X137825000Y-113255000D01*
G75*
G02*
X137925000Y-113155000I100000J0D01*
G01*
X139350000Y-113155000D01*
G75*
G02*
X139450000Y-113255000I0J-100000D01*
G01*
X139450000Y-113455000D01*
G75*
G02*
X139350000Y-113555000I-100000J0D01*
G01*
X137925000Y-113555000D01*
G75*
G02*
X137825000Y-113455000I0J100000D01*
G01*
G37*
%TD.AperFunction*%
%TO.P,IC1,5*%
%TO.N,Net-(IC1-Pad5)*%
%TA.AperFunction,SMDPad,CuDef*%
G36*
G01*
X137825000Y-114105000D02*
X137825000Y-113905000D01*
G75*
G02*
X137925000Y-113805000I100000J0D01*
G01*
X139350000Y-113805000D01*
G75*
G02*
X139450000Y-113905000I0J-100000D01*
G01*
X139450000Y-114105000D01*
G75*
G02*
X139350000Y-114205000I-100000J0D01*
G01*
X137925000Y-114205000D01*
G75*
G02*
X137825000Y-114105000I0J100000D01*
G01*
G37*
%TD.AperFunction*%
%TO.P,IC1,4*%
%TO.N,GND*%
%TA.AperFunction,SMDPad,CuDef*%
G36*
G01*
X133600000Y-114105000D02*
X133600000Y-113905000D01*
G75*
G02*
X133700000Y-113805000I100000J0D01*
G01*
X135125000Y-113805000D01*
G75*
G02*
X135225000Y-113905000I0J-100000D01*
G01*
X135225000Y-114105000D01*
G75*
G02*
X135125000Y-114205000I-100000J0D01*
G01*
X133700000Y-114205000D01*
G75*
G02*
X133600000Y-114105000I0J100000D01*
G01*
G37*
%TD.AperFunction*%
%TO.P,IC1,3*%
%TO.N,Net-(IC1-Pad3)*%
%TA.AperFunction,SMDPad,CuDef*%
G36*
G01*
X133600000Y-113455000D02*
X133600000Y-113255000D01*
G75*
G02*
X133700000Y-113155000I100000J0D01*
G01*
X135125000Y-113155000D01*
G75*
G02*
X135225000Y-113255000I0J-100000D01*
G01*
X135225000Y-113455000D01*
G75*
G02*
X135125000Y-113555000I-100000J0D01*
G01*
X133700000Y-113555000D01*
G75*
G02*
X133600000Y-113455000I0J100000D01*
G01*
G37*
%TD.AperFunction*%
%TO.P,IC1,2*%
%TO.N,Net-(IC1-Pad2)*%
%TA.AperFunction,SMDPad,CuDef*%
G36*
G01*
X133600000Y-112805000D02*
X133600000Y-112605000D01*
G75*
G02*
X133700000Y-112505000I100000J0D01*
G01*
X135125000Y-112505000D01*
G75*
G02*
X135225000Y-112605000I0J-100000D01*
G01*
X135225000Y-112805000D01*
G75*
G02*
X135125000Y-112905000I-100000J0D01*
G01*
X133700000Y-112905000D01*
G75*
G02*
X133600000Y-112805000I0J100000D01*
G01*
G37*
%TD.AperFunction*%
%TO.P,IC1,1*%
%TO.N,Net-(IC1-Pad1)*%
%TA.AperFunction,SMDPad,CuDef*%
G36*
G01*
X133600000Y-112155000D02*
X133600000Y-111955000D01*
G75*
G02*
X133700000Y-111855000I100000J0D01*
G01*
X135125000Y-111855000D01*
G75*
G02*
X135225000Y-111955000I0J-100000D01*
G01*
X135225000Y-112155000D01*
G75*
G02*
X135125000Y-112255000I-100000J0D01*
G01*
X133700000Y-112255000D01*
G75*
G02*
X133600000Y-112155000I0J100000D01*
G01*
G37*
%TD.AperFunction*%
%TD*%
D12*
%TO.P,U2,1*%
%TO.N,Net-(IC2-Pad21)*%
X120269000Y-84455000D03*
D13*
%TO.P,U2,3*%
%TO.N,GND*%
X122809000Y-84455000D03*
%TO.P,U2,2*%
%TO.N,+5V*%
X121539000Y-83185000D03*
%TD*%
D14*
%TO.P,IC3,3*%
%TO.N,+5V*%
X129980000Y-93909000D03*
%TO.P,IC3,2*%
%TO.N,Net-(C7-Pad1)*%
X132080000Y-92949000D03*
%TO.P,IC3,1*%
%TO.N,GND*%
X132080000Y-94869000D03*
%TD*%
D15*
%TO.P,IC2,24*%
%TO.N,Net-(IC2-Pad24)*%
X119615000Y-98685000D03*
%TO.P,IC2,23*%
%TO.N,Net-(IC2-Pad23)*%
X120265000Y-98685000D03*
%TO.P,IC2,22*%
%TO.N,Net-(IC2-Pad22)*%
X120915000Y-98685000D03*
%TO.P,IC2,21*%
%TO.N,Net-(IC2-Pad21)*%
X121565000Y-98685000D03*
%TO.P,IC2,20*%
%TO.N,Net-(IC2-Pad20)*%
X122215000Y-98685000D03*
%TO.P,IC2,19*%
%TO.N,/DAC1_OUT*%
X122865000Y-98685000D03*
%TO.P,IC2,18*%
%TO.N,+5V*%
X123515000Y-98685000D03*
%TO.P,IC2,17*%
%TO.N,GND*%
X124165000Y-98685000D03*
%TO.P,IC2,16*%
X124815000Y-98685000D03*
%TO.P,IC2,15*%
%TO.N,Net-(C7-Pad1)*%
X125465000Y-98685000D03*
%TO.P,IC2,14*%
%TO.N,Net-(IC2-Pad14)*%
X126115000Y-98685000D03*
%TO.P,IC2,13*%
%TO.N,GND*%
X126765000Y-98685000D03*
%TO.P,IC2,12*%
%TO.N,Net-(IC2-Pad12)*%
X126765000Y-105785000D03*
%TO.P,IC2,11*%
%TO.N,Net-(IC2-Pad11)*%
X126115000Y-105785000D03*
%TO.P,IC2,10*%
%TO.N,Net-(IC2-Pad10)*%
X125465000Y-105785000D03*
%TO.P,IC2,9*%
%TO.N,Net-(IC2-Pad9)*%
X124815000Y-105785000D03*
%TO.P,IC2,8*%
%TO.N,Net-(IC2-Pad8)*%
X124165000Y-105785000D03*
%TO.P,IC2,7*%
%TO.N,Net-(IC2-Pad7)*%
X123515000Y-105785000D03*
%TO.P,IC2,6*%
%TO.N,Net-(IC2-Pad6)*%
X122865000Y-105785000D03*
%TO.P,IC2,5*%
%TO.N,Net-(IC2-Pad5)*%
X122215000Y-105785000D03*
%TO.P,IC2,4*%
%TO.N,Net-(IC2-Pad4)*%
X121565000Y-105785000D03*
%TO.P,IC2,3*%
%TO.N,Net-(IC2-Pad3)*%
X120915000Y-105785000D03*
%TO.P,IC2,2*%
%TO.N,Net-(IC2-Pad2)*%
X120265000Y-105785000D03*
%TO.P,IC2,1*%
%TO.N,Net-(IC2-Pad1)*%
X119615000Y-105785000D03*
%TD*%
D16*
%TO.P,J2,32*%
%TO.N,Net-(IC2-Pad12)*%
X107950000Y-120015000D03*
%TO.P,J2,31*%
%TO.N,GND*%
X105410000Y-120015000D03*
%TO.P,J2,30*%
%TO.N,Net-(IC2-Pad11)*%
X107950000Y-117475000D03*
%TO.P,J2,29*%
%TO.N,GND*%
X105410000Y-117475000D03*
%TO.P,J2,28*%
%TO.N,Net-(IC2-Pad10)*%
X107950000Y-114935000D03*
%TO.P,J2,27*%
%TO.N,GND*%
X105410000Y-114935000D03*
%TO.P,J2,26*%
%TO.N,Net-(IC2-Pad9)*%
X107950000Y-112395000D03*
%TO.P,J2,25*%
%TO.N,GND*%
X105410000Y-112395000D03*
%TO.P,J2,24*%
%TO.N,Net-(IC2-Pad8)*%
X107950000Y-109855000D03*
%TO.P,J2,23*%
%TO.N,GND*%
X105410000Y-109855000D03*
%TO.P,J2,22*%
%TO.N,Net-(IC2-Pad7)*%
X107950000Y-107315000D03*
%TO.P,J2,21*%
%TO.N,GND*%
X105410000Y-107315000D03*
%TO.P,J2,20*%
%TO.N,Net-(IC2-Pad6)*%
X107950000Y-104775000D03*
%TO.P,J2,19*%
%TO.N,GND*%
X105410000Y-104775000D03*
%TO.P,J2,18*%
%TO.N,Net-(IC2-Pad5)*%
X107950000Y-102235000D03*
%TO.P,J2,17*%
%TO.N,GND*%
X105410000Y-102235000D03*
%TO.P,J2,16*%
%TO.N,Net-(IC2-Pad4)*%
X107950000Y-99695000D03*
%TO.P,J2,15*%
%TO.N,GND*%
X105410000Y-99695000D03*
%TO.P,J2,14*%
%TO.N,Net-(IC2-Pad3)*%
X107950000Y-97155000D03*
%TO.P,J2,13*%
%TO.N,GND*%
X105410000Y-97155000D03*
%TO.P,J2,12*%
%TO.N,Net-(IC2-Pad2)*%
X107950000Y-94615000D03*
%TO.P,J2,11*%
%TO.N,GND*%
X105410000Y-94615000D03*
%TO.P,J2,10*%
%TO.N,Net-(IC2-Pad1)*%
X107950000Y-92075000D03*
%TO.P,J2,9*%
%TO.N,GND*%
X105410000Y-92075000D03*
%TO.P,J2,8*%
%TO.N,Net-(IC2-Pad24)*%
X107950000Y-89535000D03*
%TO.P,J2,7*%
%TO.N,GND*%
X105410000Y-89535000D03*
%TO.P,J2,6*%
%TO.N,Net-(IC2-Pad23)*%
X107950000Y-86995000D03*
%TO.P,J2,5*%
%TO.N,GND*%
X105410000Y-86995000D03*
%TO.P,J2,4*%
%TO.N,Net-(IC2-Pad21)*%
X107950000Y-84455000D03*
%TO.P,J2,3*%
%TO.N,GND*%
X105410000Y-84455000D03*
%TO.P,J2,2*%
%TO.N,Net-(IC2-Pad20)*%
X107950000Y-81915000D03*
D17*
%TO.P,J2,1*%
%TO.N,GND*%
X105410000Y-81915000D03*
%TD*%
D18*
%TO.P,U7,5*%
%TO.N,+12V*%
X174215000Y-112395000D03*
%TO.P,U7,4*%
%TO.N,Net-(D5-Pad2)*%
X172515000Y-108695000D03*
%TO.P,U7,3*%
%TO.N,GND*%
X170815000Y-112395000D03*
%TO.P,U7,2*%
%TO.N,Net-(R12-Pad2)*%
X169115000Y-108695000D03*
D19*
%TO.P,U7,1*%
%TO.N,Net-(R11-Pad2)*%
X167415000Y-112395000D03*
%TD*%
D18*
%TO.P,U6,5*%
%TO.N,+12V*%
X174215000Y-94615000D03*
%TO.P,U6,4*%
%TO.N,Net-(D3-Pad2)*%
X172515000Y-90915000D03*
%TO.P,U6,3*%
%TO.N,GND*%
X170815000Y-94615000D03*
%TO.P,U6,2*%
%TO.N,Net-(D3-Pad2)*%
X169115000Y-90915000D03*
D19*
%TO.P,U6,1*%
%TO.N,Net-(IC1-Pad1)*%
X167415000Y-94615000D03*
%TD*%
D20*
%TO.P,U5,1*%
%TO.N,Net-(U5-Pad1)*%
X158750000Y-95495000D03*
%TO.P,U5,2*%
%TO.N,Net-(U5-Pad2)*%
X182850000Y-95495000D03*
D21*
%TO.P,U5,3*%
%TO.N,Net-(U5-Pad3)*%
X162150000Y-86995000D03*
%TO.P,U5,4*%
%TO.N,Net-(U5-Pad4)*%
X179450000Y-86995000D03*
%TD*%
D20*
%TO.P,U4,1*%
%TO.N,Net-(U4-Pad1)*%
X158750000Y-113275000D03*
%TO.P,U4,2*%
%TO.N,Net-(U4-Pad2)*%
X182850000Y-113275000D03*
D21*
%TO.P,U4,3*%
%TO.N,Net-(U4-Pad3)*%
X162150000Y-104775000D03*
%TO.P,U4,4*%
%TO.N,Net-(U4-Pad4)*%
X179450000Y-104775000D03*
%TD*%
D20*
%TO.P,U3,1*%
%TO.N,Net-(U3-Pad1)*%
X132715000Y-78105000D03*
%TO.P,U3,2*%
%TO.N,Net-(U3-Pad2)*%
X156815000Y-78105000D03*
D21*
%TO.P,U3,3*%
%TO.N,Net-(U3-Pad3)*%
X136115000Y-69605000D03*
%TO.P,U3,4*%
%TO.N,Net-(U3-Pad4)*%
X153415000Y-69605000D03*
%TD*%
D18*
%TO.P,U1,3*%
%TO.N,+5V*%
X147320000Y-72390000D03*
%TO.P,U1,2*%
%TO.N,GND*%
X144780000Y-72390000D03*
D19*
%TO.P,U1,1*%
%TO.N,+12V*%
X142240000Y-72390000D03*
%TD*%
D22*
%TO.P,RN2,9*%
%TO.N,Net-(IC2-Pad4)*%
X116205000Y-99695000D03*
%TO.P,RN2,8*%
%TO.N,Net-(IC2-Pad3)*%
X116205000Y-97155000D03*
%TO.P,RN2,7*%
%TO.N,Net-(IC2-Pad2)*%
X116205000Y-94615000D03*
%TO.P,RN2,6*%
%TO.N,Net-(IC2-Pad1)*%
X116205000Y-92075000D03*
%TO.P,RN2,5*%
%TO.N,Net-(IC2-Pad24)*%
X116205000Y-89535000D03*
%TO.P,RN2,4*%
%TO.N,Net-(IC2-Pad23)*%
X116205000Y-86995000D03*
%TO.P,RN2,3*%
%TO.N,Net-(IC2-Pad21)*%
X116205000Y-84455000D03*
%TO.P,RN2,2*%
%TO.N,Net-(IC2-Pad20)*%
X116205000Y-81915000D03*
%TO.P,RN2,1*%
%TO.N,+5V*%
X116205000Y-79375000D03*
%TD*%
%TO.P,RN1,9*%
%TO.N,Net-(IC2-Pad5)*%
X116205000Y-103378000D03*
%TO.P,RN1,8*%
%TO.N,Net-(IC2-Pad6)*%
X116205000Y-105918000D03*
%TO.P,RN1,7*%
%TO.N,Net-(IC2-Pad7)*%
X116205000Y-108458000D03*
%TO.P,RN1,6*%
%TO.N,Net-(IC2-Pad8)*%
X116205000Y-110998000D03*
%TO.P,RN1,5*%
%TO.N,Net-(IC2-Pad9)*%
X116205000Y-113538000D03*
%TO.P,RN1,4*%
%TO.N,Net-(IC2-Pad10)*%
X116205000Y-116078000D03*
%TO.P,RN1,3*%
%TO.N,Net-(IC2-Pad11)*%
X116205000Y-118618000D03*
%TO.P,RN1,2*%
%TO.N,Net-(IC2-Pad12)*%
X116205000Y-121158000D03*
%TO.P,RN1,1*%
%TO.N,+5V*%
X116205000Y-123698000D03*
%TD*%
D23*
%TO.P,R13,3*%
%TO.N,Net-(D5-Pad2)*%
X151210000Y-125055000D03*
%TO.P,R13,2*%
X156210000Y-122555000D03*
%TO.P,R13,1*%
%TO.N,Net-(R12-Pad2)*%
X151210000Y-120055000D03*
%TD*%
D24*
%TO.P,R12,2*%
%TO.N,Net-(R12-Pad2)*%
X174625000Y-99695000D03*
D25*
%TO.P,R12,1*%
%TO.N,Net-(IC1-Pad1)*%
X167005000Y-99695000D03*
%TD*%
D24*
%TO.P,R11,2*%
%TO.N,Net-(R11-Pad2)*%
X153035000Y-113030000D03*
D25*
%TO.P,R11,1*%
%TO.N,Net-(C9-Pad1)*%
X153035000Y-105410000D03*
%TD*%
D24*
%TO.P,R10,2*%
%TO.N,Net-(D3-Pad2)*%
X153035000Y-87630000D03*
D25*
%TO.P,R10,1*%
%TO.N,Net-(C9-Pad1)*%
X153035000Y-95250000D03*
%TD*%
D23*
%TO.P,R9,3*%
%TO.N,Net-(IC1-Pad1)*%
X148550000Y-99735000D03*
%TO.P,R9,2*%
X143550000Y-102235000D03*
%TO.P,R9,1*%
%TO.N,Net-(IC1-Pad2)*%
X148550000Y-104735000D03*
%TD*%
D24*
%TO.P,R8,2*%
%TO.N,Net-(C9-Pad1)*%
X142875000Y-109220000D03*
D25*
%TO.P,R8,1*%
%TO.N,Net-(IC1-Pad2)*%
X135255000Y-109220000D03*
%TD*%
D24*
%TO.P,R7,2*%
%TO.N,GND*%
X146050000Y-125730000D03*
D25*
%TO.P,R7,1*%
%TO.N,Net-(IC1-Pad5)*%
X146050000Y-118110000D03*
%TD*%
D24*
%TO.P,R6,2*%
%TO.N,Net-(IC1-Pad5)*%
X141605000Y-118110000D03*
D25*
%TO.P,R6,1*%
%TO.N,+12V*%
X141605000Y-125730000D03*
%TD*%
D24*
%TO.P,R5,2*%
%TO.N,/DAC1_OUT*%
X130810000Y-101600000D03*
D25*
%TO.P,R5,1*%
%TO.N,Net-(IC1-Pad3)*%
X130810000Y-109220000D03*
%TD*%
D23*
%TO.P,R4,3*%
%TO.N,Net-(IC1-Pad3)*%
X131485000Y-119420000D03*
%TO.P,R4,2*%
%TO.N,+12V*%
X133985000Y-124420000D03*
%TO.P,R4,1*%
X136485000Y-119420000D03*
%TD*%
D24*
%TO.P,R3,2*%
%TO.N,Net-(IC2-Pad22)*%
X120650000Y-95885000D03*
D25*
%TO.P,R3,1*%
%TO.N,+5V*%
X120650000Y-88265000D03*
%TD*%
D24*
%TO.P,R2,2*%
%TO.N,GND*%
X120015000Y-79375000D03*
D25*
%TO.P,R2,1*%
%TO.N,+12V*%
X127635000Y-79375000D03*
%TD*%
D24*
%TO.P,R1,2*%
%TO.N,GND*%
X147320000Y-92075000D03*
D25*
%TO.P,R1,1*%
%TO.N,+5V*%
X139700000Y-92075000D03*
%TD*%
D26*
%TO.P,J3,2*%
%TO.N,Net-(D5-Pad2)*%
X191770000Y-104140000D03*
D27*
%TO.P,J3,1*%
%TO.N,Net-(D3-Pad2)*%
X191770000Y-99060000D03*
%TD*%
D26*
%TO.P,J1,2*%
%TO.N,+12V*%
X125730000Y-71755000D03*
D27*
%TO.P,J1,1*%
%TO.N,GND*%
X120650000Y-71755000D03*
%TD*%
D10*
%TO.P,D6,2*%
%TO.N,GND*%
X193040000Y-120015000D03*
D11*
%TO.P,D6,1*%
%TO.N,Net-(D5-Pad2)*%
X193040000Y-109855000D03*
%TD*%
D10*
%TO.P,D5,2*%
%TO.N,Net-(D5-Pad2)*%
X189230000Y-109855000D03*
D11*
%TO.P,D5,1*%
%TO.N,+12V*%
X189230000Y-120015000D03*
%TD*%
D10*
%TO.P,D4,2*%
%TO.N,GND*%
X193040000Y-81915000D03*
D11*
%TO.P,D4,1*%
%TO.N,Net-(D3-Pad2)*%
X193040000Y-92075000D03*
%TD*%
D10*
%TO.P,D3,2*%
%TO.N,Net-(D3-Pad2)*%
X189230000Y-92075000D03*
D11*
%TO.P,D3,1*%
%TO.N,+12V*%
X189230000Y-81915000D03*
%TD*%
D10*
%TO.P,D1,2*%
%TO.N,+5V*%
X149860000Y-77470000D03*
D11*
%TO.P,D1,1*%
%TO.N,+12V*%
X139700000Y-77470000D03*
%TD*%
D25*
%TO.P,C9,2*%
%TO.N,GND*%
X146050000Y-114220000D03*
%TO.P,C9,1*%
%TO.N,Net-(C9-Pad1)*%
X146050000Y-109220000D03*
%TD*%
%TO.P,C8,2*%
%TO.N,GND*%
X124587000Y-91266000D03*
%TO.P,C8,1*%
%TO.N,+5V*%
X124587000Y-96266000D03*
%TD*%
%TO.P,C7,2*%
%TO.N,GND*%
X127254000Y-91266000D03*
%TO.P,C7,1*%
%TO.N,Net-(C7-Pad1)*%
X127254000Y-96266000D03*
%TD*%
%TO.P,C6,2*%
%TO.N,GND*%
X163505000Y-78105000D03*
D28*
%TO.P,C6,1*%
%TO.N,+12V*%
X167005000Y-78105000D03*
%TD*%
D25*
%TO.P,C5,2*%
%TO.N,GND*%
X146685000Y-83495000D03*
D28*
%TO.P,C5,1*%
%TO.N,+5V*%
X146685000Y-86995000D03*
%TD*%
D25*
%TO.P,C4,2*%
%TO.N,GND*%
X163505000Y-122555000D03*
D28*
%TO.P,C4,1*%
%TO.N,+12V*%
X167005000Y-122555000D03*
%TD*%
D25*
%TO.P,C3,2*%
%TO.N,GND*%
X139700000Y-82550000D03*
%TO.P,C3,1*%
%TO.N,+5V*%
X139700000Y-87550000D03*
%TD*%
%TO.P,C2,2*%
%TO.N,GND*%
X178125000Y-78105000D03*
D28*
%TO.P,C2,1*%
%TO.N,+12V*%
X174625000Y-78105000D03*
%TD*%
D25*
%TO.P,C1,2*%
%TO.N,GND*%
X178125000Y-122555000D03*
D28*
%TO.P,C1,1*%
%TO.N,+12V*%
X174625000Y-122555000D03*
%TD*%
D29*
%TO.N,GND*%
X132080000Y-96266000D03*
X125730000Y-100330000D03*
X134366000Y-115570000D03*
%TO.N,+5V*%
X123190000Y-82042018D03*
%TD*%
D30*
%TO.N,GND*%
X132080000Y-94869000D02*
X132080000Y-96266000D01*
D31*
X124165000Y-98685000D02*
X124815000Y-98685000D01*
X126270000Y-100330000D02*
X125730000Y-100330000D01*
X126765000Y-98685000D02*
X126765000Y-99835000D01*
X126765000Y-99835000D02*
X126270000Y-100330000D01*
X125310000Y-100330000D02*
X125730000Y-100330000D01*
X124815000Y-99835000D02*
X125310000Y-100330000D01*
X124815000Y-98685000D02*
X124815000Y-99835000D01*
X134412500Y-114005000D02*
X134412500Y-115523500D01*
X134412500Y-115523500D02*
X134366000Y-115570000D01*
%TO.N,+12V*%
X137825000Y-112055000D02*
X137160000Y-112720000D01*
X138637500Y-112055000D02*
X137825000Y-112055000D01*
D30*
%TO.N,+5V*%
X146130000Y-87550000D02*
X146685000Y-86995000D01*
X139700000Y-87550000D02*
X146130000Y-87550000D01*
D31*
X124587000Y-96463000D02*
X124587000Y-96266000D01*
X123515000Y-97535000D02*
X124587000Y-96463000D01*
X123515000Y-98685000D02*
X123515000Y-97535000D01*
D30*
X126944000Y-93909000D02*
X129980000Y-93909000D01*
X124587000Y-96266000D02*
X126944000Y-93909000D01*
X139700000Y-92075000D02*
X139700000Y-87550000D01*
X149860000Y-83820000D02*
X149860000Y-77470000D01*
X146685000Y-86995000D02*
X149860000Y-83820000D01*
X147320000Y-74930000D02*
X149860000Y-77470000D01*
X147320000Y-72390000D02*
X147320000Y-74930000D01*
X138764000Y-86614000D02*
X139700000Y-87550000D01*
X136398000Y-86614000D02*
X138764000Y-86614000D01*
X136398000Y-86666000D02*
X136398000Y-86614000D01*
X129980000Y-93909000D02*
X129980000Y-93084000D01*
X129980000Y-93084000D02*
X132995000Y-90069000D01*
X132995000Y-90069000D02*
X136398000Y-86666000D01*
X118110000Y-81280000D02*
X122682000Y-81280000D01*
X116205000Y-79375000D02*
X118110000Y-81280000D01*
X132995000Y-90069000D02*
X124206000Y-81280000D01*
X128524000Y-107950000D02*
X139700000Y-96774000D01*
X116205000Y-123698000D02*
X117348000Y-123698000D01*
X139700000Y-96774000D02*
X139700000Y-92075000D01*
X128524000Y-112522000D02*
X128524000Y-107950000D01*
X117348000Y-123698000D02*
X128524000Y-112522000D01*
X124206000Y-81280000D02*
X123190000Y-81280000D01*
X123190000Y-81280000D02*
X122682000Y-81280000D01*
X123190000Y-81280000D02*
X123190000Y-82042018D01*
D31*
%TO.N,Net-(IC1-Pad5)*%
X138637500Y-114005000D02*
X138637500Y-114761500D01*
D30*
X138637500Y-115142500D02*
X138637500Y-114761500D01*
X141605000Y-118110000D02*
X138637500Y-115142500D01*
X141605000Y-118110000D02*
X146050000Y-118110000D01*
D31*
%TO.N,Net-(IC1-Pad3)*%
X133040000Y-113355000D02*
X134412500Y-113355000D01*
X131485000Y-114910000D02*
X133040000Y-113355000D01*
X131485000Y-119420000D02*
X131485000Y-114910000D01*
X130873500Y-111188500D02*
X130873500Y-109283500D01*
X130810000Y-111125000D02*
X130873500Y-111188500D01*
X130873500Y-109283500D02*
X130810000Y-109220000D01*
X130873500Y-111188500D02*
X133040000Y-113355000D01*
%TO.N,Net-(IC1-Pad2)*%
X134412500Y-112705000D02*
X135707000Y-112705000D01*
X135707000Y-112705000D02*
X136271000Y-112141000D01*
D30*
X143677000Y-104735000D02*
X148550000Y-104735000D01*
X136271000Y-112141000D02*
X137223500Y-111188500D01*
X135255000Y-109220000D02*
X137223500Y-111188500D01*
X137223500Y-111188500D02*
X143677000Y-104735000D01*
D31*
%TO.N,Net-(IC1-Pad1)*%
X134412500Y-112055000D02*
X134412500Y-111044500D01*
D30*
X134004999Y-108619999D02*
X140389998Y-102235000D01*
X140389998Y-102235000D02*
X143550000Y-102235000D01*
X134004999Y-110636999D02*
X134004999Y-108619999D01*
X134412500Y-111044500D02*
X134004999Y-110636999D01*
X146050000Y-99735000D02*
X143550000Y-102235000D01*
X148550000Y-99735000D02*
X146050000Y-99735000D01*
X165969999Y-93169999D02*
X167415000Y-94615000D01*
X153264999Y-93169999D02*
X165969999Y-93169999D01*
X148550000Y-97884998D02*
X153264999Y-93169999D01*
X148550000Y-99735000D02*
X148550000Y-97884998D01*
X167005000Y-95025000D02*
X167415000Y-94615000D01*
X167005000Y-99695000D02*
X167005000Y-95025000D01*
D31*
%TO.N,Net-(IC2-Pad12)*%
X115062000Y-120015000D02*
X116205000Y-121158000D01*
X107950000Y-120015000D02*
X115062000Y-120015000D01*
X126765000Y-110598000D02*
X126765000Y-105785000D01*
X116205000Y-121158000D02*
X126765000Y-110598000D01*
%TO.N,Net-(IC2-Pad11)*%
X115062000Y-117475000D02*
X116205000Y-118618000D01*
X107950000Y-117475000D02*
X115062000Y-117475000D01*
X126115000Y-108708000D02*
X126115000Y-105785000D01*
X116205000Y-118618000D02*
X126115000Y-108708000D01*
%TO.N,Net-(IC2-Pad10)*%
X115062000Y-114935000D02*
X116205000Y-116078000D01*
X107950000Y-114935000D02*
X115062000Y-114935000D01*
X116205000Y-116078000D02*
X117152523Y-116078000D01*
X125465000Y-107765523D02*
X125465000Y-105785000D01*
X117152523Y-116078000D02*
X125465000Y-107765523D01*
%TO.N,Net-(IC2-Pad9)*%
X115062000Y-112395000D02*
X116205000Y-113538000D01*
X107950000Y-112395000D02*
X115062000Y-112395000D01*
X118244055Y-113538000D02*
X124815000Y-106967055D01*
X116205000Y-113538000D02*
X118244055Y-113538000D01*
X124815000Y-106967055D02*
X124815000Y-105785000D01*
%TO.N,Net-(IC2-Pad8)*%
X115062000Y-109855000D02*
X116205000Y-110998000D01*
X107950000Y-109855000D02*
X115062000Y-109855000D01*
X124165000Y-106980644D02*
X124165000Y-105785000D01*
X120147644Y-110998000D02*
X124165000Y-106980644D01*
X116205000Y-110998000D02*
X120147644Y-110998000D01*
%TO.N,Net-(IC2-Pad7)*%
X115062000Y-107315000D02*
X116205000Y-108458000D01*
X107950000Y-107315000D02*
X115062000Y-107315000D01*
X123515000Y-106935000D02*
X123515000Y-105785000D01*
X117301033Y-109554033D02*
X120895967Y-109554033D01*
X120895967Y-109554033D02*
X123515000Y-106935000D01*
X116205000Y-108458000D02*
X117301033Y-109554033D01*
%TO.N,Net-(IC2-Pad6)*%
X115062000Y-104775000D02*
X116205000Y-105918000D01*
X107950000Y-104775000D02*
X115062000Y-104775000D01*
X120695978Y-109104022D02*
X122865000Y-106935000D01*
X116205000Y-105918000D02*
X116205000Y-106865523D01*
X118443499Y-109104022D02*
X120695978Y-109104022D01*
X122865000Y-106935000D02*
X122865000Y-105785000D01*
X116205000Y-106865523D02*
X118443499Y-109104022D01*
%TO.N,Net-(IC2-Pad5)*%
X115062000Y-102235000D02*
X116205000Y-103378000D01*
X107950000Y-102235000D02*
X115062000Y-102235000D01*
X120495989Y-108654011D02*
X122215000Y-106935000D01*
X116205000Y-104325523D02*
X117405991Y-105526514D01*
X122215000Y-106935000D02*
X122215000Y-105785000D01*
X118685601Y-108654011D02*
X120495989Y-108654011D01*
X117405991Y-107374401D02*
X118685601Y-108654011D01*
X117405991Y-105526514D02*
X117405991Y-107374401D01*
X116205000Y-103378000D02*
X116205000Y-104325523D01*
%TO.N,Net-(IC2-Pad4)*%
X107950000Y-99695000D02*
X116205000Y-99695000D01*
X121565000Y-106935000D02*
X121565000Y-105785000D01*
X120296000Y-108204000D02*
X121565000Y-106935000D01*
X117521970Y-101011970D02*
X117521970Y-103683199D01*
X117856000Y-104017229D02*
X117856000Y-107008819D01*
X116205000Y-99695000D02*
X117521970Y-101011970D01*
X117856000Y-107008819D02*
X119051181Y-108204000D01*
X119051181Y-108204000D02*
X120296000Y-108204000D01*
X117521970Y-103683199D02*
X117856000Y-104017229D01*
%TO.N,Net-(IC2-Pad3)*%
X116205000Y-97155000D02*
X107950000Y-97155000D01*
X117971979Y-103496798D02*
X117971979Y-98921979D01*
X118364000Y-103888819D02*
X117971979Y-103496798D01*
X120915000Y-106935000D02*
X120154000Y-107696000D01*
X118364000Y-106880408D02*
X118364000Y-103888819D01*
X120915000Y-105785000D02*
X120915000Y-106935000D01*
X120154000Y-107696000D02*
X119179592Y-107696000D01*
X117971979Y-98921979D02*
X116205000Y-97155000D01*
X119179592Y-107696000D02*
X118364000Y-106880408D01*
%TO.N,Net-(IC2-Pad2)*%
X107950000Y-94615000D02*
X116205000Y-94615000D01*
X116205000Y-95562523D02*
X116205000Y-94615000D01*
X118421990Y-97779513D02*
X116205000Y-95562523D01*
X118872000Y-103760407D02*
X118421990Y-103310397D01*
X118872000Y-106752002D02*
X118872000Y-103760407D01*
X120265000Y-105785000D02*
X120265000Y-106935000D01*
X120265000Y-106935000D02*
X120012000Y-107188000D01*
X120012000Y-107188000D02*
X119307998Y-107188000D01*
X118421990Y-103310397D02*
X118421990Y-97779513D01*
X119307998Y-107188000D02*
X118872000Y-106752002D01*
%TO.N,Net-(IC2-Pad1)*%
X107950000Y-92075000D02*
X116205000Y-92075000D01*
X119615000Y-103867000D02*
X118872000Y-103124000D01*
X119615000Y-105785000D02*
X119615000Y-103867000D01*
X118624977Y-94494977D02*
X116205000Y-92075000D01*
X118872000Y-103124000D02*
X118872000Y-97044824D01*
X118872000Y-97044824D02*
X118624977Y-96797801D01*
X118624977Y-96797801D02*
X118624977Y-94494977D01*
%TO.N,Net-(IC2-Pad20)*%
X107950000Y-81915000D02*
X116205000Y-81915000D01*
X122215000Y-96621413D02*
X123034999Y-95801414D01*
X122215000Y-98685000D02*
X122215000Y-96621413D01*
X123034999Y-95801414D02*
X123034999Y-85672003D01*
X122006501Y-81915000D02*
X116205000Y-81915000D01*
X123784001Y-83692500D02*
X122006501Y-81915000D01*
X123034999Y-85672003D02*
X123784001Y-84923001D01*
X123784001Y-84923001D02*
X123784001Y-83692500D01*
%TO.N,Net-(IC2-Pad21)*%
X116205000Y-84455000D02*
X107950000Y-84455000D01*
X116205000Y-84455000D02*
X120269000Y-84455000D01*
X121775001Y-96425001D02*
X121565000Y-96635002D01*
X121565000Y-96635002D02*
X121565000Y-98685000D01*
X121775001Y-85961001D02*
X121775001Y-96425001D01*
X120269000Y-84455000D02*
X121775001Y-85961001D01*
%TO.N,Net-(IC2-Pad23)*%
X107950000Y-86995000D02*
X116205000Y-86995000D01*
X120265000Y-98685000D02*
X120265000Y-97165002D01*
X120265000Y-97165002D02*
X119524999Y-96425001D01*
X119524999Y-96425001D02*
X119524999Y-90314999D01*
X119524999Y-90314999D02*
X116205000Y-86995000D01*
%TO.N,Net-(IC2-Pad24)*%
X116205000Y-89535000D02*
X107950000Y-89535000D01*
X119615000Y-98685000D02*
X119615000Y-97151413D01*
X119074988Y-96611401D02*
X119074988Y-92404988D01*
X119074988Y-92404988D02*
X116205000Y-89535000D01*
X119615000Y-97151413D02*
X119074988Y-96611401D01*
%TO.N,Net-(IC2-Pad22)*%
X120915000Y-96150000D02*
X120650000Y-95885000D01*
X120915000Y-98685000D02*
X120915000Y-96150000D01*
%TO.N,/DAC1_OUT*%
X122865000Y-99745002D02*
X122865000Y-98685000D01*
X124719998Y-101600000D02*
X122865000Y-99745002D01*
X130810000Y-101600000D02*
X124719998Y-101600000D01*
D30*
%TO.N,Net-(D3-Pad2)*%
X156320000Y-90915000D02*
X169115000Y-90915000D01*
X153035000Y-87630000D02*
X156320000Y-90915000D01*
X169115000Y-90915000D02*
X172515000Y-90915000D01*
D32*
X189230000Y-92075000D02*
X193040000Y-92075000D01*
X193040000Y-97790000D02*
X191770000Y-99060000D01*
X193040000Y-92075000D02*
X193040000Y-97790000D01*
X188070000Y-90915000D02*
X189230000Y-92075000D01*
X172515000Y-90915000D02*
X188070000Y-90915000D01*
D30*
%TO.N,Net-(D5-Pad2)*%
X153710000Y-122555000D02*
X151210000Y-125055000D01*
X156210000Y-122555000D02*
X153710000Y-122555000D01*
X160147000Y-122555000D02*
X156210000Y-122555000D01*
X169164000Y-113538000D02*
X160147000Y-122555000D01*
X172515000Y-108695000D02*
X169164000Y-112046000D01*
X169164000Y-112046000D02*
X169164000Y-113538000D01*
D32*
X189230000Y-109855000D02*
X193040000Y-109855000D01*
X193040000Y-105410000D02*
X191770000Y-104140000D01*
X193040000Y-109855000D02*
X193040000Y-105410000D01*
X188070000Y-108695000D02*
X189230000Y-109855000D01*
X172515000Y-108695000D02*
X188070000Y-108695000D01*
D30*
%TO.N,Net-(R11-Pad2)*%
X149733000Y-116332000D02*
X153035000Y-113030000D01*
X165989000Y-112395000D02*
X157099000Y-121285000D01*
X167415000Y-112395000D02*
X165989000Y-112395000D01*
X157099000Y-121285000D02*
X150753999Y-121285000D01*
X149733000Y-120264001D02*
X149733000Y-116332000D01*
X150753999Y-121285000D02*
X149733000Y-120264001D01*
%TO.N,Net-(R12-Pad2)*%
X174625000Y-103185000D02*
X169115000Y-108695000D01*
X174625000Y-99695000D02*
X174625000Y-103185000D01*
X155662000Y-120055000D02*
X151210000Y-120055000D01*
X169115000Y-108695000D02*
X167022000Y-108695000D01*
X167022000Y-108695000D02*
X155662000Y-120055000D01*
D31*
%TO.N,Net-(C7-Pad1)*%
X126734000Y-96266000D02*
X127254000Y-96266000D01*
X125465000Y-97535000D02*
X126734000Y-96266000D01*
X125465000Y-98685000D02*
X125465000Y-97535000D01*
D30*
X131079999Y-93949001D02*
X132080000Y-92949000D01*
X131079999Y-94472001D02*
X131079999Y-93949001D01*
X129286000Y-96266000D02*
X131079999Y-94472001D01*
X127254000Y-96266000D02*
X129286000Y-96266000D01*
X132573000Y-92949000D02*
X136398000Y-96774000D01*
X132080000Y-92949000D02*
X132573000Y-92949000D01*
D31*
%TO.N,Net-(C9-Pad1)*%
X138637500Y-112705000D02*
X140533000Y-112705000D01*
D30*
X142875000Y-110363000D02*
X142875000Y-109220000D01*
X140533000Y-112705000D02*
X142875000Y-110363000D01*
X142875000Y-109220000D02*
X146050000Y-109220000D01*
X149225000Y-109220000D02*
X153035000Y-105410000D01*
X146050000Y-109220000D02*
X149225000Y-109220000D01*
D31*
X138637500Y-113355000D02*
X138637500Y-112705000D01*
D30*
X153035000Y-105410000D02*
X153035000Y-95250000D01*
%TD*%
D33*
%TO.N,+12V*%
G36*
X197460000Y-137770000D02*
G01*
X102260000Y-137770000D01*
X102260000Y-130432285D01*
X105385000Y-130432285D01*
X105385000Y-131187715D01*
X105532377Y-131928628D01*
X105821467Y-132626554D01*
X106241161Y-133254670D01*
X106775330Y-133788839D01*
X107403446Y-134208533D01*
X108101372Y-134497623D01*
X108842285Y-134645000D01*
X109597715Y-134645000D01*
X110338628Y-134497623D01*
X111036554Y-134208533D01*
X111664670Y-133788839D01*
X112198839Y-133254670D01*
X112618533Y-132626554D01*
X112907623Y-131928628D01*
X113055000Y-131187715D01*
X113055000Y-130432285D01*
X186665000Y-130432285D01*
X186665000Y-131187715D01*
X186812377Y-131928628D01*
X187101467Y-132626554D01*
X187521161Y-133254670D01*
X188055330Y-133788839D01*
X188683446Y-134208533D01*
X189381372Y-134497623D01*
X190122285Y-134645000D01*
X190877715Y-134645000D01*
X191618628Y-134497623D01*
X192316554Y-134208533D01*
X192944670Y-133788839D01*
X193478839Y-133254670D01*
X193898533Y-132626554D01*
X194187623Y-131928628D01*
X194335000Y-131187715D01*
X194335000Y-130432285D01*
X194187623Y-129691372D01*
X193898533Y-128993446D01*
X193478839Y-128365330D01*
X192944670Y-127831161D01*
X192316554Y-127411467D01*
X191618628Y-127122377D01*
X190877715Y-126975000D01*
X190122285Y-126975000D01*
X189381372Y-127122377D01*
X188683446Y-127411467D01*
X188055330Y-127831161D01*
X187521161Y-128365330D01*
X187101467Y-128993446D01*
X186812377Y-129691372D01*
X186665000Y-130432285D01*
X113055000Y-130432285D01*
X112907623Y-129691372D01*
X112618533Y-128993446D01*
X112198839Y-128365330D01*
X111664670Y-127831161D01*
X111036554Y-127411467D01*
X110338628Y-127122377D01*
X109597715Y-126975000D01*
X108842285Y-126975000D01*
X108101372Y-127122377D01*
X107403446Y-127411467D01*
X106775330Y-127831161D01*
X106241161Y-128365330D01*
X105821467Y-128993446D01*
X105532377Y-129691372D01*
X105385000Y-130432285D01*
X102260000Y-130432285D01*
X102260000Y-126722702D01*
X140791903Y-126722702D01*
X140863486Y-126966671D01*
X141118996Y-127087571D01*
X141393184Y-127156300D01*
X141675512Y-127170217D01*
X141955130Y-127128787D01*
X142221292Y-127033603D01*
X142346514Y-126966671D01*
X142418097Y-126722702D01*
X141605000Y-125909605D01*
X140791903Y-126722702D01*
X102260000Y-126722702D01*
X102260000Y-125800512D01*
X140164783Y-125800512D01*
X140206213Y-126080130D01*
X140301397Y-126346292D01*
X140368329Y-126471514D01*
X140612298Y-126543097D01*
X141425395Y-125730000D01*
X141784605Y-125730000D01*
X142597702Y-126543097D01*
X142841671Y-126471514D01*
X142962571Y-126216004D01*
X143031300Y-125941816D01*
X143045217Y-125659488D01*
X143034724Y-125588665D01*
X144615000Y-125588665D01*
X144615000Y-125871335D01*
X144670147Y-126148574D01*
X144778320Y-126409727D01*
X144935363Y-126644759D01*
X145135241Y-126844637D01*
X145370273Y-127001680D01*
X145631426Y-127109853D01*
X145908665Y-127165000D01*
X146191335Y-127165000D01*
X146468574Y-127109853D01*
X146729727Y-127001680D01*
X146964759Y-126844637D01*
X147164637Y-126644759D01*
X147321680Y-126409727D01*
X147429853Y-126148574D01*
X147485000Y-125871335D01*
X147485000Y-125588665D01*
X147429853Y-125311426D01*
X147321680Y-125050273D01*
X147164637Y-124815241D01*
X146964759Y-124615363D01*
X146729727Y-124458320D01*
X146468574Y-124350147D01*
X146191335Y-124295000D01*
X145908665Y-124295000D01*
X145631426Y-124350147D01*
X145370273Y-124458320D01*
X145135241Y-124615363D01*
X144935363Y-124815241D01*
X144778320Y-125050273D01*
X144670147Y-125311426D01*
X144615000Y-125588665D01*
X143034724Y-125588665D01*
X143003787Y-125379870D01*
X142908603Y-125113708D01*
X142841671Y-124988486D01*
X142597702Y-124916903D01*
X141784605Y-125730000D01*
X141425395Y-125730000D01*
X140612298Y-124916903D01*
X140368329Y-124988486D01*
X140247429Y-125243996D01*
X140178700Y-125518184D01*
X140164783Y-125800512D01*
X102260000Y-125800512D01*
X102260000Y-125269764D01*
X133314841Y-125269764D01*
X133362148Y-125493348D01*
X133583516Y-125594237D01*
X133820313Y-125650000D01*
X134063438Y-125658495D01*
X134303549Y-125619395D01*
X134531418Y-125534202D01*
X134607852Y-125493348D01*
X134655159Y-125269764D01*
X133985000Y-124599605D01*
X133314841Y-125269764D01*
X102260000Y-125269764D01*
X102260000Y-81065000D01*
X103921928Y-81065000D01*
X103921928Y-82765000D01*
X103934188Y-82889482D01*
X103951611Y-82946917D01*
X103955483Y-84155494D01*
X103925000Y-84308740D01*
X103925000Y-84601260D01*
X103957433Y-84764312D01*
X103963492Y-86655231D01*
X103925000Y-86848740D01*
X103925000Y-87141260D01*
X103965704Y-87345893D01*
X103971500Y-89154969D01*
X103925000Y-89388740D01*
X103925000Y-89681260D01*
X103973975Y-89927474D01*
X103979509Y-91654706D01*
X103925000Y-91928740D01*
X103925000Y-92221260D01*
X103982068Y-92508158D01*
X103982245Y-92508585D01*
X103987563Y-94168575D01*
X103982068Y-94181842D01*
X103925000Y-94468740D01*
X103925000Y-94761260D01*
X103982068Y-95048158D01*
X103990446Y-95068385D01*
X103995639Y-96689079D01*
X103982068Y-96721842D01*
X103925000Y-97008740D01*
X103925000Y-97301260D01*
X103982068Y-97588158D01*
X103998647Y-97628185D01*
X104003714Y-99209584D01*
X103982068Y-99261842D01*
X103925000Y-99548740D01*
X103925000Y-99841260D01*
X103982068Y-100128158D01*
X104006849Y-100187984D01*
X104011789Y-101730088D01*
X103982068Y-101801842D01*
X103925000Y-102088740D01*
X103925000Y-102381260D01*
X103982068Y-102668158D01*
X104015050Y-102747784D01*
X104019865Y-104250592D01*
X103982068Y-104341842D01*
X103925000Y-104628740D01*
X103925000Y-104921260D01*
X103982068Y-105208158D01*
X104023251Y-105307584D01*
X104027940Y-106771096D01*
X103982068Y-106881842D01*
X103925000Y-107168740D01*
X103925000Y-107461260D01*
X103982068Y-107748158D01*
X104031452Y-107867383D01*
X104036016Y-109291601D01*
X103982068Y-109421842D01*
X103925000Y-109708740D01*
X103925000Y-110001260D01*
X103982068Y-110288158D01*
X104039654Y-110427183D01*
X104044091Y-111812105D01*
X103982068Y-111961842D01*
X103925000Y-112248740D01*
X103925000Y-112541260D01*
X103982068Y-112828158D01*
X104047855Y-112986983D01*
X104052166Y-114332609D01*
X103982068Y-114501842D01*
X103925000Y-114788740D01*
X103925000Y-115081260D01*
X103982068Y-115368158D01*
X104056056Y-115546782D01*
X104060242Y-116853113D01*
X103982068Y-117041842D01*
X103925000Y-117328740D01*
X103925000Y-117621260D01*
X103982068Y-117908158D01*
X104064258Y-118106582D01*
X104068317Y-119373618D01*
X103982068Y-119581842D01*
X103925000Y-119868740D01*
X103925000Y-120161260D01*
X103982068Y-120448158D01*
X104072459Y-120666382D01*
X104082173Y-123698407D01*
X104084612Y-123722776D01*
X104091839Y-123746601D01*
X104103575Y-123768557D01*
X104119369Y-123787803D01*
X104138615Y-123803597D01*
X104160571Y-123815333D01*
X104184396Y-123822560D01*
X104209172Y-123825000D01*
X114900000Y-123825000D01*
X114900000Y-123826531D01*
X114950151Y-124078654D01*
X115048524Y-124316149D01*
X115191341Y-124529889D01*
X115373111Y-124711659D01*
X115586851Y-124854476D01*
X115824346Y-124952849D01*
X116076469Y-125003000D01*
X116333531Y-125003000D01*
X116585654Y-124952849D01*
X116823149Y-124854476D01*
X117036889Y-124711659D01*
X117165548Y-124583000D01*
X117304531Y-124583000D01*
X117348000Y-124587281D01*
X117391469Y-124583000D01*
X117391477Y-124583000D01*
X117521490Y-124570195D01*
X117688313Y-124519589D01*
X117727884Y-124498438D01*
X132746505Y-124498438D01*
X132785605Y-124738549D01*
X132870798Y-124966418D01*
X132911652Y-125042852D01*
X133135236Y-125090159D01*
X133805395Y-124420000D01*
X134164605Y-124420000D01*
X134834764Y-125090159D01*
X135058348Y-125042852D01*
X135159237Y-124821484D01*
X135179061Y-124737298D01*
X140791903Y-124737298D01*
X141605000Y-125550395D01*
X142418097Y-124737298D01*
X142346514Y-124493329D01*
X142091004Y-124372429D01*
X141816816Y-124303700D01*
X141534488Y-124289783D01*
X141254870Y-124331213D01*
X140988708Y-124426397D01*
X140863486Y-124493329D01*
X140791903Y-124737298D01*
X135179061Y-124737298D01*
X135215000Y-124584687D01*
X135223495Y-124341562D01*
X135184395Y-124101451D01*
X135099202Y-123873582D01*
X135058348Y-123797148D01*
X134834764Y-123749841D01*
X134164605Y-124420000D01*
X133805395Y-124420000D01*
X133135236Y-123749841D01*
X132911652Y-123797148D01*
X132810763Y-124018516D01*
X132755000Y-124255313D01*
X132746505Y-124498438D01*
X117727884Y-124498438D01*
X117842059Y-124437411D01*
X117976817Y-124326817D01*
X118004534Y-124293044D01*
X118472578Y-123825000D01*
X130163657Y-123825000D01*
X130188331Y-123822580D01*
X130212161Y-123815373D01*
X130234127Y-123803655D01*
X130253385Y-123787877D01*
X130471385Y-123570236D01*
X133314841Y-123570236D01*
X133985000Y-124240395D01*
X134655159Y-123570236D01*
X134607852Y-123346652D01*
X134386484Y-123245763D01*
X134149687Y-123190000D01*
X133906562Y-123181505D01*
X133666451Y-123220605D01*
X133438582Y-123305798D01*
X133362148Y-123346652D01*
X133314841Y-123570236D01*
X130471385Y-123570236D01*
X133777316Y-120269764D01*
X135814841Y-120269764D01*
X135862148Y-120493348D01*
X136083516Y-120594237D01*
X136320313Y-120650000D01*
X136563438Y-120658495D01*
X136803549Y-120619395D01*
X137031418Y-120534202D01*
X137107852Y-120493348D01*
X137155159Y-120269764D01*
X136485000Y-119599605D01*
X135814841Y-120269764D01*
X133777316Y-120269764D01*
X134549918Y-119498438D01*
X135246505Y-119498438D01*
X135285605Y-119738549D01*
X135370798Y-119966418D01*
X135411652Y-120042852D01*
X135635236Y-120090159D01*
X136305395Y-119420000D01*
X136664605Y-119420000D01*
X137334764Y-120090159D01*
X137558348Y-120042852D01*
X137659237Y-119821484D01*
X137715000Y-119584687D01*
X137723495Y-119341562D01*
X137684395Y-119101451D01*
X137599202Y-118873582D01*
X137558348Y-118797148D01*
X137334764Y-118749841D01*
X136664605Y-119420000D01*
X136305395Y-119420000D01*
X135635236Y-118749841D01*
X135411652Y-118797148D01*
X135310763Y-119018516D01*
X135255000Y-119255313D01*
X135246505Y-119498438D01*
X134549918Y-119498438D01*
X135479655Y-118570236D01*
X135814841Y-118570236D01*
X136485000Y-119240395D01*
X137155159Y-118570236D01*
X137107852Y-118346652D01*
X136886484Y-118245763D01*
X136649687Y-118190000D01*
X136406562Y-118181505D01*
X136166451Y-118220605D01*
X135938582Y-118305798D01*
X135862148Y-118346652D01*
X135814841Y-118570236D01*
X135479655Y-118570236D01*
X137122728Y-116929877D01*
X137139934Y-116908514D01*
X137151245Y-116886336D01*
X137158013Y-116862377D01*
X137159977Y-116837558D01*
X137078205Y-112585374D01*
X137200951Y-112462628D01*
X137186928Y-112605000D01*
X137186928Y-112805000D01*
X137201110Y-112948991D01*
X137225684Y-113030000D01*
X137201110Y-113111009D01*
X137186928Y-113255000D01*
X137186928Y-113455000D01*
X137201110Y-113598991D01*
X137225684Y-113680000D01*
X137201110Y-113761009D01*
X137186928Y-113905000D01*
X137186928Y-114105000D01*
X137201110Y-114248991D01*
X137243110Y-114387448D01*
X137311316Y-114515051D01*
X137403104Y-114626896D01*
X137514949Y-114718684D01*
X137642552Y-114786890D01*
X137752500Y-114820242D01*
X137752500Y-115099031D01*
X137748219Y-115142500D01*
X137752500Y-115185969D01*
X137752500Y-115185976D01*
X137765305Y-115315989D01*
X137815911Y-115482812D01*
X137898089Y-115636558D01*
X138008683Y-115771317D01*
X138042456Y-115799034D01*
X140176983Y-117933561D01*
X140170000Y-117968665D01*
X140170000Y-118251335D01*
X140225147Y-118528574D01*
X140333320Y-118789727D01*
X140490363Y-119024759D01*
X140690241Y-119224637D01*
X140925273Y-119381680D01*
X141186426Y-119489853D01*
X141463665Y-119545000D01*
X141746335Y-119545000D01*
X142023574Y-119489853D01*
X142284727Y-119381680D01*
X142519759Y-119224637D01*
X142719637Y-119024759D01*
X142739521Y-118995000D01*
X144915479Y-118995000D01*
X144935363Y-119024759D01*
X145135241Y-119224637D01*
X145370273Y-119381680D01*
X145631426Y-119489853D01*
X145908665Y-119545000D01*
X146191335Y-119545000D01*
X146468574Y-119489853D01*
X146729727Y-119381680D01*
X146964759Y-119224637D01*
X147164637Y-119024759D01*
X147321680Y-118789727D01*
X147429853Y-118528574D01*
X147485000Y-118251335D01*
X147485000Y-117968665D01*
X147429853Y-117691426D01*
X147321680Y-117430273D01*
X147164637Y-117195241D01*
X146964759Y-116995363D01*
X146729727Y-116838320D01*
X146468574Y-116730147D01*
X146191335Y-116675000D01*
X145908665Y-116675000D01*
X145631426Y-116730147D01*
X145370273Y-116838320D01*
X145135241Y-116995363D01*
X144935363Y-117195241D01*
X144915479Y-117225000D01*
X142739521Y-117225000D01*
X142719637Y-117195241D01*
X142519759Y-116995363D01*
X142284727Y-116838320D01*
X142023574Y-116730147D01*
X141746335Y-116675000D01*
X141463665Y-116675000D01*
X141428561Y-116681983D01*
X141078578Y-116332000D01*
X148843719Y-116332000D01*
X148848001Y-116375479D01*
X148848000Y-120220532D01*
X148843719Y-120264001D01*
X148848000Y-120307470D01*
X148848000Y-120307477D01*
X148855073Y-120379287D01*
X148860805Y-120437491D01*
X148864041Y-120448158D01*
X148911411Y-120604313D01*
X148993589Y-120758059D01*
X149104183Y-120892818D01*
X149137956Y-120920535D01*
X150097469Y-121880049D01*
X150125182Y-121913817D01*
X150158950Y-121941530D01*
X150158952Y-121941532D01*
X150259940Y-122024411D01*
X150413685Y-122106589D01*
X150580509Y-122157195D01*
X150710522Y-122170000D01*
X150710530Y-122170000D01*
X150753999Y-122174281D01*
X150797468Y-122170000D01*
X152843421Y-122170000D01*
X151193422Y-123820000D01*
X151088363Y-123820000D01*
X150849764Y-123867460D01*
X150625008Y-123960557D01*
X150422733Y-124095713D01*
X150250713Y-124267733D01*
X150115557Y-124470008D01*
X150022460Y-124694764D01*
X149975000Y-124933363D01*
X149975000Y-125176637D01*
X150022460Y-125415236D01*
X150115557Y-125639992D01*
X150250713Y-125842267D01*
X150422733Y-126014287D01*
X150625008Y-126149443D01*
X150849764Y-126242540D01*
X151088363Y-126290000D01*
X151331637Y-126290000D01*
X151570236Y-126242540D01*
X151794992Y-126149443D01*
X151997267Y-126014287D01*
X152169287Y-125842267D01*
X152304443Y-125639992D01*
X152397540Y-125415236D01*
X152445000Y-125176637D01*
X152445000Y-125071578D01*
X154076579Y-123440000D01*
X155348446Y-123440000D01*
X155422733Y-123514287D01*
X155625008Y-123649443D01*
X155849764Y-123742540D01*
X156088363Y-123790000D01*
X156331637Y-123790000D01*
X156570236Y-123742540D01*
X156794992Y-123649443D01*
X156997267Y-123514287D01*
X157071554Y-123440000D01*
X160103531Y-123440000D01*
X160147000Y-123444281D01*
X160190469Y-123440000D01*
X160190477Y-123440000D01*
X160320490Y-123427195D01*
X160487313Y-123376589D01*
X160641059Y-123294411D01*
X160775817Y-123183817D01*
X160803534Y-123150044D01*
X161539913Y-122413665D01*
X162070000Y-122413665D01*
X162070000Y-122696335D01*
X162125147Y-122973574D01*
X162233320Y-123234727D01*
X162390363Y-123469759D01*
X162590241Y-123669637D01*
X162825273Y-123826680D01*
X163086426Y-123934853D01*
X163363665Y-123990000D01*
X163646335Y-123990000D01*
X163923574Y-123934853D01*
X164184727Y-123826680D01*
X164419759Y-123669637D01*
X164619637Y-123469759D01*
X164696316Y-123355000D01*
X165566928Y-123355000D01*
X165579188Y-123479482D01*
X165615498Y-123599180D01*
X165674463Y-123709494D01*
X165753815Y-123806185D01*
X165850506Y-123885537D01*
X165960820Y-123944502D01*
X166080518Y-123980812D01*
X166205000Y-123993072D01*
X166719250Y-123990000D01*
X166878000Y-123831250D01*
X166878000Y-122682000D01*
X167132000Y-122682000D01*
X167132000Y-123831250D01*
X167290750Y-123990000D01*
X167805000Y-123993072D01*
X167929482Y-123980812D01*
X168049180Y-123944502D01*
X168159494Y-123885537D01*
X168256185Y-123806185D01*
X168335537Y-123709494D01*
X168394502Y-123599180D01*
X168430812Y-123479482D01*
X168443072Y-123355000D01*
X173186928Y-123355000D01*
X173199188Y-123479482D01*
X173235498Y-123599180D01*
X173294463Y-123709494D01*
X173373815Y-123806185D01*
X173470506Y-123885537D01*
X173580820Y-123944502D01*
X173700518Y-123980812D01*
X173825000Y-123993072D01*
X174339250Y-123990000D01*
X174498000Y-123831250D01*
X174498000Y-122682000D01*
X174752000Y-122682000D01*
X174752000Y-123831250D01*
X174910750Y-123990000D01*
X175425000Y-123993072D01*
X175549482Y-123980812D01*
X175669180Y-123944502D01*
X175779494Y-123885537D01*
X175876185Y-123806185D01*
X175955537Y-123709494D01*
X176014502Y-123599180D01*
X176050812Y-123479482D01*
X176063072Y-123355000D01*
X176060000Y-122840750D01*
X175901250Y-122682000D01*
X174752000Y-122682000D01*
X174498000Y-122682000D01*
X173348750Y-122682000D01*
X173190000Y-122840750D01*
X173186928Y-123355000D01*
X168443072Y-123355000D01*
X168440000Y-122840750D01*
X168281250Y-122682000D01*
X167132000Y-122682000D01*
X166878000Y-122682000D01*
X165728750Y-122682000D01*
X165570000Y-122840750D01*
X165566928Y-123355000D01*
X164696316Y-123355000D01*
X164776680Y-123234727D01*
X164884853Y-122973574D01*
X164940000Y-122696335D01*
X164940000Y-122413665D01*
X164884853Y-122136426D01*
X164776680Y-121875273D01*
X164696317Y-121755000D01*
X165566928Y-121755000D01*
X165570000Y-122269250D01*
X165728750Y-122428000D01*
X166878000Y-122428000D01*
X166878000Y-121278750D01*
X167132000Y-121278750D01*
X167132000Y-122428000D01*
X168281250Y-122428000D01*
X168440000Y-122269250D01*
X168443072Y-121755000D01*
X173186928Y-121755000D01*
X173190000Y-122269250D01*
X173348750Y-122428000D01*
X174498000Y-122428000D01*
X174498000Y-121278750D01*
X174752000Y-121278750D01*
X174752000Y-122428000D01*
X175901250Y-122428000D01*
X175915585Y-122413665D01*
X176690000Y-122413665D01*
X176690000Y-122696335D01*
X176745147Y-122973574D01*
X176853320Y-123234727D01*
X177010363Y-123469759D01*
X177210241Y-123669637D01*
X177445273Y-123826680D01*
X177706426Y-123934853D01*
X177983665Y-123990000D01*
X178266335Y-123990000D01*
X178543574Y-123934853D01*
X178804727Y-123826680D01*
X179039759Y-123669637D01*
X179239637Y-123469759D01*
X179396680Y-123234727D01*
X179504853Y-122973574D01*
X179560000Y-122696335D01*
X179560000Y-122413665D01*
X179504853Y-122136426D01*
X179396680Y-121875273D01*
X179239637Y-121640241D01*
X179039759Y-121440363D01*
X178804727Y-121283320D01*
X178543574Y-121175147D01*
X178266335Y-121120000D01*
X177983665Y-121120000D01*
X177706426Y-121175147D01*
X177445273Y-121283320D01*
X177210241Y-121440363D01*
X177010363Y-121640241D01*
X176853320Y-121875273D01*
X176745147Y-122136426D01*
X176690000Y-122413665D01*
X175915585Y-122413665D01*
X176060000Y-122269250D01*
X176063072Y-121755000D01*
X176050812Y-121630518D01*
X176014502Y-121510820D01*
X175955537Y-121400506D01*
X175876185Y-121303815D01*
X175779494Y-121224463D01*
X175669180Y-121165498D01*
X175549482Y-121129188D01*
X175425000Y-121116928D01*
X174910750Y-121120000D01*
X174752000Y-121278750D01*
X174498000Y-121278750D01*
X174339250Y-121120000D01*
X173825000Y-121116928D01*
X173700518Y-121129188D01*
X173580820Y-121165498D01*
X173470506Y-121224463D01*
X173373815Y-121303815D01*
X173294463Y-121400506D01*
X173235498Y-121510820D01*
X173199188Y-121630518D01*
X173186928Y-121755000D01*
X168443072Y-121755000D01*
X168430812Y-121630518D01*
X168394502Y-121510820D01*
X168335537Y-121400506D01*
X168256185Y-121303815D01*
X168159494Y-121224463D01*
X168049180Y-121165498D01*
X167929482Y-121129188D01*
X167805000Y-121116928D01*
X167290750Y-121120000D01*
X167132000Y-121278750D01*
X166878000Y-121278750D01*
X166719250Y-121120000D01*
X166205000Y-121116928D01*
X166080518Y-121129188D01*
X165960820Y-121165498D01*
X165850506Y-121224463D01*
X165753815Y-121303815D01*
X165674463Y-121400506D01*
X165615498Y-121510820D01*
X165579188Y-121630518D01*
X165566928Y-121755000D01*
X164696317Y-121755000D01*
X164619637Y-121640241D01*
X164419759Y-121440363D01*
X164184727Y-121283320D01*
X163923574Y-121175147D01*
X163646335Y-121120000D01*
X163363665Y-121120000D01*
X163086426Y-121175147D01*
X162825273Y-121283320D01*
X162590241Y-121440363D01*
X162390363Y-121640241D01*
X162233320Y-121875273D01*
X162125147Y-122136426D01*
X162070000Y-122413665D01*
X161539913Y-122413665D01*
X162838578Y-121115000D01*
X187491928Y-121115000D01*
X187504188Y-121239482D01*
X187540498Y-121359180D01*
X187599463Y-121469494D01*
X187678815Y-121566185D01*
X187775506Y-121645537D01*
X187885820Y-121704502D01*
X188005518Y-121740812D01*
X188130000Y-121753072D01*
X188944250Y-121750000D01*
X189103000Y-121591250D01*
X189103000Y-120142000D01*
X189357000Y-120142000D01*
X189357000Y-121591250D01*
X189515750Y-121750000D01*
X190330000Y-121753072D01*
X190454482Y-121740812D01*
X190574180Y-121704502D01*
X190684494Y-121645537D01*
X190781185Y-121566185D01*
X190860537Y-121469494D01*
X190919502Y-121359180D01*
X190955812Y-121239482D01*
X190968072Y-121115000D01*
X190965000Y-120300750D01*
X190806250Y-120142000D01*
X189357000Y-120142000D01*
X189103000Y-120142000D01*
X187653750Y-120142000D01*
X187495000Y-120300750D01*
X187491928Y-121115000D01*
X162838578Y-121115000D01*
X165038578Y-118915000D01*
X187491928Y-118915000D01*
X187495000Y-119729250D01*
X187653750Y-119888000D01*
X189103000Y-119888000D01*
X189103000Y-118438750D01*
X189357000Y-118438750D01*
X189357000Y-119888000D01*
X190806250Y-119888000D01*
X190850133Y-119844117D01*
X191305000Y-119844117D01*
X191305000Y-120185883D01*
X191371675Y-120521081D01*
X191502463Y-120836831D01*
X191692337Y-121120998D01*
X191934002Y-121362663D01*
X192218169Y-121552537D01*
X192533919Y-121683325D01*
X192869117Y-121750000D01*
X193210883Y-121750000D01*
X193546081Y-121683325D01*
X193861831Y-121552537D01*
X194145998Y-121362663D01*
X194387663Y-121120998D01*
X194577537Y-120836831D01*
X194708325Y-120521081D01*
X194775000Y-120185883D01*
X194775000Y-119844117D01*
X194708325Y-119508919D01*
X194577537Y-119193169D01*
X194387663Y-118909002D01*
X194145998Y-118667337D01*
X193861831Y-118477463D01*
X193546081Y-118346675D01*
X193210883Y-118280000D01*
X192869117Y-118280000D01*
X192533919Y-118346675D01*
X192218169Y-118477463D01*
X191934002Y-118667337D01*
X191692337Y-118909002D01*
X191502463Y-119193169D01*
X191371675Y-119508919D01*
X191305000Y-119844117D01*
X190850133Y-119844117D01*
X190965000Y-119729250D01*
X190968072Y-118915000D01*
X190955812Y-118790518D01*
X190919502Y-118670820D01*
X190860537Y-118560506D01*
X190781185Y-118463815D01*
X190684494Y-118384463D01*
X190574180Y-118325498D01*
X190454482Y-118289188D01*
X190330000Y-118276928D01*
X189515750Y-118280000D01*
X189357000Y-118438750D01*
X189103000Y-118438750D01*
X188944250Y-118280000D01*
X188130000Y-118276928D01*
X188005518Y-118289188D01*
X187885820Y-118325498D01*
X187775506Y-118384463D01*
X187678815Y-118463815D01*
X187599463Y-118560506D01*
X187540498Y-118670820D01*
X187504188Y-118790518D01*
X187491928Y-118915000D01*
X165038578Y-118915000D01*
X169759049Y-114194530D01*
X169792817Y-114166817D01*
X169820831Y-114132683D01*
X169903411Y-114032059D01*
X169985589Y-113878314D01*
X170033860Y-113719187D01*
X170087905Y-113755299D01*
X170367257Y-113871011D01*
X170663816Y-113930000D01*
X170966184Y-113930000D01*
X171262743Y-113871011D01*
X171542095Y-113755299D01*
X171793505Y-113587312D01*
X172007312Y-113373505D01*
X172175299Y-113122095D01*
X172291011Y-112842743D01*
X172307521Y-112759740D01*
X172723964Y-112759740D01*
X172772606Y-112920107D01*
X172902764Y-113191414D01*
X173083351Y-113432116D01*
X173307427Y-113632962D01*
X173566380Y-113786234D01*
X173850259Y-113886041D01*
X174088000Y-113765992D01*
X174088000Y-112522000D01*
X174342000Y-112522000D01*
X174342000Y-113765992D01*
X174579741Y-113886041D01*
X174863620Y-113786234D01*
X175122573Y-113632962D01*
X175346649Y-113432116D01*
X175527236Y-113191414D01*
X175605735Y-113027787D01*
X180340000Y-113027787D01*
X180340000Y-113522213D01*
X180436458Y-114007140D01*
X180625667Y-114463931D01*
X180900356Y-114875032D01*
X181249968Y-115224644D01*
X181661069Y-115499333D01*
X182117860Y-115688542D01*
X182602787Y-115785000D01*
X183097213Y-115785000D01*
X183582140Y-115688542D01*
X184038931Y-115499333D01*
X184450032Y-115224644D01*
X184799644Y-114875032D01*
X185074333Y-114463931D01*
X185263542Y-114007140D01*
X185360000Y-113522213D01*
X185360000Y-113027787D01*
X185263542Y-112542860D01*
X185074333Y-112086069D01*
X184799644Y-111674968D01*
X184450032Y-111325356D01*
X184038931Y-111050667D01*
X183582140Y-110861458D01*
X183097213Y-110765000D01*
X182602787Y-110765000D01*
X182117860Y-110861458D01*
X181661069Y-111050667D01*
X181249968Y-111325356D01*
X180900356Y-111674968D01*
X180625667Y-112086069D01*
X180436458Y-112542860D01*
X180340000Y-113027787D01*
X175605735Y-113027787D01*
X175657394Y-112920107D01*
X175706036Y-112759740D01*
X175585378Y-112522000D01*
X174342000Y-112522000D01*
X174088000Y-112522000D01*
X172844622Y-112522000D01*
X172723964Y-112759740D01*
X172307521Y-112759740D01*
X172350000Y-112546184D01*
X172350000Y-112243816D01*
X172307522Y-112030260D01*
X172723964Y-112030260D01*
X172844622Y-112268000D01*
X174088000Y-112268000D01*
X174088000Y-111024008D01*
X174342000Y-111024008D01*
X174342000Y-112268000D01*
X175585378Y-112268000D01*
X175706036Y-112030260D01*
X175657394Y-111869893D01*
X175527236Y-111598586D01*
X175346649Y-111357884D01*
X175122573Y-111157038D01*
X174863620Y-111003766D01*
X174579741Y-110903959D01*
X174342000Y-111024008D01*
X174088000Y-111024008D01*
X173850259Y-110903959D01*
X173566380Y-111003766D01*
X173307427Y-111157038D01*
X173083351Y-111357884D01*
X172902764Y-111598586D01*
X172772606Y-111869893D01*
X172723964Y-112030260D01*
X172307522Y-112030260D01*
X172291011Y-111947257D01*
X172175299Y-111667905D01*
X172007312Y-111416495D01*
X171793505Y-111202688D01*
X171542095Y-111034701D01*
X171460624Y-111000954D01*
X172164371Y-110297208D01*
X172194484Y-110306343D01*
X172434678Y-110330000D01*
X187392761Y-110330000D01*
X187659138Y-110596377D01*
X187692463Y-110676831D01*
X187882337Y-110960998D01*
X188124002Y-111202663D01*
X188408169Y-111392537D01*
X188723919Y-111523325D01*
X189059117Y-111590000D01*
X189400883Y-111590000D01*
X189736081Y-111523325D01*
X189816535Y-111490000D01*
X191593856Y-111490000D01*
X191695820Y-111544502D01*
X191815518Y-111580812D01*
X191940000Y-111593072D01*
X194140000Y-111593072D01*
X194264482Y-111580812D01*
X194384180Y-111544502D01*
X194494494Y-111485537D01*
X194591185Y-111406185D01*
X194670537Y-111309494D01*
X194729502Y-111199180D01*
X194765812Y-111079482D01*
X194778072Y-110955000D01*
X194778072Y-108755000D01*
X194765812Y-108630518D01*
X194729502Y-108510820D01*
X194675000Y-108408856D01*
X194675000Y-105490319D01*
X194682911Y-105409999D01*
X194670405Y-105283026D01*
X194651343Y-105089484D01*
X194557852Y-104781285D01*
X194406031Y-104497248D01*
X194201714Y-104248286D01*
X194139318Y-104197079D01*
X193905000Y-103962761D01*
X193905000Y-103929721D01*
X193822953Y-103517244D01*
X193662012Y-103128698D01*
X193428363Y-102779017D01*
X193130983Y-102481637D01*
X192781302Y-102247988D01*
X192392756Y-102087047D01*
X191980279Y-102005000D01*
X191559721Y-102005000D01*
X191147244Y-102087047D01*
X190758698Y-102247988D01*
X190409017Y-102481637D01*
X190111637Y-102779017D01*
X189877988Y-103128698D01*
X189717047Y-103517244D01*
X189635000Y-103929721D01*
X189635000Y-104350279D01*
X189717047Y-104762756D01*
X189877988Y-105151302D01*
X190111637Y-105500983D01*
X190409017Y-105798363D01*
X190758698Y-106032012D01*
X191147244Y-106192953D01*
X191405001Y-106244224D01*
X191405000Y-108220000D01*
X189907239Y-108220000D01*
X189282924Y-107595686D01*
X189231714Y-107533286D01*
X188982752Y-107328969D01*
X188698715Y-107177148D01*
X188390516Y-107083657D01*
X188150322Y-107060000D01*
X188150319Y-107060000D01*
X188070000Y-107052089D01*
X187989681Y-107060000D01*
X180185424Y-107060000D01*
X180583274Y-106895206D01*
X180975130Y-106633376D01*
X181308376Y-106300130D01*
X181570206Y-105908274D01*
X181750557Y-105472866D01*
X181842500Y-105010641D01*
X181842500Y-104539359D01*
X181750557Y-104077134D01*
X181570206Y-103641726D01*
X181308376Y-103249870D01*
X180975130Y-102916624D01*
X180583274Y-102654794D01*
X180147866Y-102474443D01*
X179685641Y-102382500D01*
X179214359Y-102382500D01*
X178752134Y-102474443D01*
X178316726Y-102654794D01*
X177924870Y-102916624D01*
X177591624Y-103249870D01*
X177329794Y-103641726D01*
X177149443Y-104077134D01*
X177057500Y-104539359D01*
X177057500Y-105010641D01*
X177149443Y-105472866D01*
X177329794Y-105908274D01*
X177591624Y-106300130D01*
X177924870Y-106633376D01*
X178316726Y-106895206D01*
X178714576Y-107060000D01*
X172434678Y-107060000D01*
X172194484Y-107083657D01*
X171886285Y-107177148D01*
X171882301Y-107179278D01*
X175220049Y-103841530D01*
X175253817Y-103813817D01*
X175285089Y-103775713D01*
X175364411Y-103679059D01*
X175384366Y-103641726D01*
X175446589Y-103525313D01*
X175497195Y-103358490D01*
X175510000Y-103228477D01*
X175510000Y-103228469D01*
X175514281Y-103185000D01*
X175510000Y-103141531D01*
X175510000Y-100829521D01*
X175539759Y-100809637D01*
X175739637Y-100609759D01*
X175896680Y-100374727D01*
X176004853Y-100113574D01*
X176060000Y-99836335D01*
X176060000Y-99553665D01*
X176004853Y-99276426D01*
X175896680Y-99015273D01*
X175739637Y-98780241D01*
X175539759Y-98580363D01*
X175304727Y-98423320D01*
X175043574Y-98315147D01*
X174766335Y-98260000D01*
X174483665Y-98260000D01*
X174206426Y-98315147D01*
X173945273Y-98423320D01*
X173710241Y-98580363D01*
X173510363Y-98780241D01*
X173353320Y-99015273D01*
X173245147Y-99276426D01*
X173190000Y-99553665D01*
X173190000Y-99836335D01*
X173245147Y-100113574D01*
X173353320Y-100374727D01*
X173510363Y-100609759D01*
X173710241Y-100809637D01*
X173740000Y-100829522D01*
X173740001Y-102818420D01*
X169376482Y-107181940D01*
X169266184Y-107160000D01*
X168963816Y-107160000D01*
X168667257Y-107218989D01*
X168387905Y-107334701D01*
X168136495Y-107502688D01*
X167922688Y-107716495D01*
X167860210Y-107810000D01*
X167065466Y-107810000D01*
X167021999Y-107805719D01*
X166978533Y-107810000D01*
X166978523Y-107810000D01*
X166848510Y-107822805D01*
X166681687Y-107873411D01*
X166527941Y-107955589D01*
X166527939Y-107955590D01*
X166527940Y-107955590D01*
X166426953Y-108038468D01*
X166426951Y-108038470D01*
X166393183Y-108066183D01*
X166365470Y-108099951D01*
X161260000Y-113205421D01*
X161260000Y-113027787D01*
X161163542Y-112542860D01*
X160974333Y-112086069D01*
X160699644Y-111674968D01*
X160350032Y-111325356D01*
X159938931Y-111050667D01*
X159482140Y-110861458D01*
X158997213Y-110765000D01*
X158502787Y-110765000D01*
X158017860Y-110861458D01*
X157561069Y-111050667D01*
X157149968Y-111325356D01*
X156800356Y-111674968D01*
X156525667Y-112086069D01*
X156336458Y-112542860D01*
X156240000Y-113027787D01*
X156240000Y-113522213D01*
X156336458Y-114007140D01*
X156525667Y-114463931D01*
X156800356Y-114875032D01*
X157149968Y-115224644D01*
X157561069Y-115499333D01*
X158017860Y-115688542D01*
X158502787Y-115785000D01*
X158680422Y-115785000D01*
X155295422Y-119170000D01*
X152071554Y-119170000D01*
X151997267Y-119095713D01*
X151794992Y-118960557D01*
X151570236Y-118867460D01*
X151331637Y-118820000D01*
X151088363Y-118820000D01*
X150849764Y-118867460D01*
X150625008Y-118960557D01*
X150618000Y-118965240D01*
X150618000Y-116698578D01*
X152858561Y-114458017D01*
X152893665Y-114465000D01*
X153176335Y-114465000D01*
X153453574Y-114409853D01*
X153714727Y-114301680D01*
X153949759Y-114144637D01*
X154149637Y-113944759D01*
X154306680Y-113709727D01*
X154414853Y-113448574D01*
X154470000Y-113171335D01*
X154470000Y-112888665D01*
X154414853Y-112611426D01*
X154306680Y-112350273D01*
X154149637Y-112115241D01*
X153949759Y-111915363D01*
X153714727Y-111758320D01*
X153453574Y-111650147D01*
X153176335Y-111595000D01*
X152893665Y-111595000D01*
X152616426Y-111650147D01*
X152355273Y-111758320D01*
X152120241Y-111915363D01*
X151920363Y-112115241D01*
X151763320Y-112350273D01*
X151655147Y-112611426D01*
X151600000Y-112888665D01*
X151600000Y-113171335D01*
X151606983Y-113206439D01*
X149137951Y-115675471D01*
X149104184Y-115703183D01*
X149076471Y-115736951D01*
X149076468Y-115736954D01*
X148993590Y-115837941D01*
X148911412Y-115991687D01*
X148860805Y-116158510D01*
X148843719Y-116332000D01*
X141078578Y-116332000D01*
X139556505Y-114809927D01*
X139632448Y-114786890D01*
X139760051Y-114718684D01*
X139871896Y-114626896D01*
X139963684Y-114515051D01*
X140031890Y-114387448D01*
X140073890Y-114248991D01*
X140088072Y-114105000D01*
X140088072Y-114078665D01*
X144615000Y-114078665D01*
X144615000Y-114361335D01*
X144670147Y-114638574D01*
X144778320Y-114899727D01*
X144935363Y-115134759D01*
X145135241Y-115334637D01*
X145370273Y-115491680D01*
X145631426Y-115599853D01*
X145908665Y-115655000D01*
X146191335Y-115655000D01*
X146468574Y-115599853D01*
X146729727Y-115491680D01*
X146964759Y-115334637D01*
X147164637Y-115134759D01*
X147321680Y-114899727D01*
X147429853Y-114638574D01*
X147485000Y-114361335D01*
X147485000Y-114078665D01*
X147429853Y-113801426D01*
X147321680Y-113540273D01*
X147164637Y-113305241D01*
X146964759Y-113105363D01*
X146729727Y-112948320D01*
X146468574Y-112840147D01*
X146191335Y-112785000D01*
X145908665Y-112785000D01*
X145631426Y-112840147D01*
X145370273Y-112948320D01*
X145135241Y-113105363D01*
X144935363Y-113305241D01*
X144778320Y-113540273D01*
X144670147Y-113801426D01*
X144615000Y-114078665D01*
X140088072Y-114078665D01*
X140088072Y-113905000D01*
X140073890Y-113761009D01*
X140049316Y-113680000D01*
X140073890Y-113598991D01*
X140086606Y-113469887D01*
X140192687Y-113526588D01*
X140359510Y-113577195D01*
X140533000Y-113594281D01*
X140706490Y-113577195D01*
X140873313Y-113526588D01*
X141027059Y-113444410D01*
X141128046Y-113361532D01*
X143470050Y-111019529D01*
X143503817Y-110991817D01*
X143534033Y-110955000D01*
X143614410Y-110857060D01*
X143614411Y-110857059D01*
X143696589Y-110703313D01*
X143747195Y-110536490D01*
X143760000Y-110406477D01*
X143760000Y-110406467D01*
X143764281Y-110363001D01*
X143763233Y-110352361D01*
X143789759Y-110334637D01*
X143989637Y-110134759D01*
X144009521Y-110105000D01*
X144915479Y-110105000D01*
X144935363Y-110134759D01*
X145135241Y-110334637D01*
X145370273Y-110491680D01*
X145631426Y-110599853D01*
X145908665Y-110655000D01*
X146191335Y-110655000D01*
X146468574Y-110599853D01*
X146729727Y-110491680D01*
X146964759Y-110334637D01*
X147164637Y-110134759D01*
X147184521Y-110105000D01*
X149181531Y-110105000D01*
X149225000Y-110109281D01*
X149268469Y-110105000D01*
X149268477Y-110105000D01*
X149398490Y-110092195D01*
X149565313Y-110041589D01*
X149719059Y-109959411D01*
X149853817Y-109848817D01*
X149881534Y-109815044D01*
X152858561Y-106838017D01*
X152893665Y-106845000D01*
X153176335Y-106845000D01*
X153453574Y-106789853D01*
X153714727Y-106681680D01*
X153949759Y-106524637D01*
X154149637Y-106324759D01*
X154306680Y-106089727D01*
X154414853Y-105828574D01*
X154470000Y-105551335D01*
X154470000Y-105268665D01*
X154414853Y-104991426D01*
X154306680Y-104730273D01*
X154179116Y-104539359D01*
X159757500Y-104539359D01*
X159757500Y-105010641D01*
X159849443Y-105472866D01*
X160029794Y-105908274D01*
X160291624Y-106300130D01*
X160624870Y-106633376D01*
X161016726Y-106895206D01*
X161452134Y-107075557D01*
X161914359Y-107167500D01*
X162385641Y-107167500D01*
X162847866Y-107075557D01*
X163283274Y-106895206D01*
X163675130Y-106633376D01*
X164008376Y-106300130D01*
X164270206Y-105908274D01*
X164450557Y-105472866D01*
X164542500Y-105010641D01*
X164542500Y-104539359D01*
X164450557Y-104077134D01*
X164270206Y-103641726D01*
X164008376Y-103249870D01*
X163675130Y-102916624D01*
X163283274Y-102654794D01*
X162847866Y-102474443D01*
X162385641Y-102382500D01*
X161914359Y-102382500D01*
X161452134Y-102474443D01*
X161016726Y-102654794D01*
X160624870Y-102916624D01*
X160291624Y-103249870D01*
X160029794Y-103641726D01*
X159849443Y-104077134D01*
X159757500Y-104539359D01*
X154179116Y-104539359D01*
X154149637Y-104495241D01*
X153949759Y-104295363D01*
X153920000Y-104275479D01*
X153920000Y-96384521D01*
X153949759Y-96364637D01*
X154149637Y-96164759D01*
X154306680Y-95929727D01*
X154414853Y-95668574D01*
X154470000Y-95391335D01*
X154470000Y-95108665D01*
X154414853Y-94831426D01*
X154306680Y-94570273D01*
X154149637Y-94335241D01*
X153949759Y-94135363D01*
X153829485Y-94054999D01*
X156693427Y-94054999D01*
X156525667Y-94306069D01*
X156336458Y-94762860D01*
X156240000Y-95247787D01*
X156240000Y-95742213D01*
X156336458Y-96227140D01*
X156525667Y-96683931D01*
X156800356Y-97095032D01*
X157149968Y-97444644D01*
X157561069Y-97719333D01*
X158017860Y-97908542D01*
X158502787Y-98005000D01*
X158997213Y-98005000D01*
X159482140Y-97908542D01*
X159938931Y-97719333D01*
X160350032Y-97444644D01*
X160699644Y-97095032D01*
X160974333Y-96683931D01*
X161163542Y-96227140D01*
X161260000Y-95742213D01*
X161260000Y-95247787D01*
X161163542Y-94762860D01*
X160974333Y-94306069D01*
X160806573Y-94054999D01*
X165603421Y-94054999D01*
X165876928Y-94328506D01*
X165876928Y-95515000D01*
X165889188Y-95639482D01*
X165925498Y-95759180D01*
X165984463Y-95869494D01*
X166063815Y-95966185D01*
X166120001Y-96012295D01*
X166120000Y-98560479D01*
X166090241Y-98580363D01*
X165890363Y-98780241D01*
X165733320Y-99015273D01*
X165625147Y-99276426D01*
X165570000Y-99553665D01*
X165570000Y-99836335D01*
X165625147Y-100113574D01*
X165733320Y-100374727D01*
X165890363Y-100609759D01*
X166090241Y-100809637D01*
X166325273Y-100966680D01*
X166586426Y-101074853D01*
X166863665Y-101130000D01*
X167146335Y-101130000D01*
X167423574Y-101074853D01*
X167684727Y-100966680D01*
X167919759Y-100809637D01*
X168119637Y-100609759D01*
X168276680Y-100374727D01*
X168384853Y-100113574D01*
X168440000Y-99836335D01*
X168440000Y-99553665D01*
X168384853Y-99276426D01*
X168276680Y-99015273D01*
X168119637Y-98780241D01*
X167919759Y-98580363D01*
X167890000Y-98560479D01*
X167890000Y-96153072D01*
X168315000Y-96153072D01*
X168439482Y-96140812D01*
X168559180Y-96104502D01*
X168669494Y-96045537D01*
X168766185Y-95966185D01*
X168845537Y-95869494D01*
X168904502Y-95759180D01*
X168940812Y-95639482D01*
X168953072Y-95515000D01*
X168953072Y-94463816D01*
X169280000Y-94463816D01*
X169280000Y-94766184D01*
X169338989Y-95062743D01*
X169454701Y-95342095D01*
X169622688Y-95593505D01*
X169836495Y-95807312D01*
X170087905Y-95975299D01*
X170367257Y-96091011D01*
X170663816Y-96150000D01*
X170966184Y-96150000D01*
X171262743Y-96091011D01*
X171542095Y-95975299D01*
X171793505Y-95807312D01*
X172007312Y-95593505D01*
X172175299Y-95342095D01*
X172291011Y-95062743D01*
X172307521Y-94979740D01*
X172723964Y-94979740D01*
X172772606Y-95140107D01*
X172902764Y-95411414D01*
X173083351Y-95652116D01*
X173307427Y-95852962D01*
X173566380Y-96006234D01*
X173850259Y-96106041D01*
X174088000Y-95985992D01*
X174088000Y-94742000D01*
X174342000Y-94742000D01*
X174342000Y-95985992D01*
X174579741Y-96106041D01*
X174863620Y-96006234D01*
X175122573Y-95852962D01*
X175346649Y-95652116D01*
X175527236Y-95411414D01*
X175605735Y-95247787D01*
X180340000Y-95247787D01*
X180340000Y-95742213D01*
X180436458Y-96227140D01*
X180625667Y-96683931D01*
X180900356Y-97095032D01*
X181249968Y-97444644D01*
X181661069Y-97719333D01*
X182117860Y-97908542D01*
X182602787Y-98005000D01*
X183097213Y-98005000D01*
X183582140Y-97908542D01*
X184038931Y-97719333D01*
X184450032Y-97444644D01*
X184799644Y-97095032D01*
X185074333Y-96683931D01*
X185263542Y-96227140D01*
X185360000Y-95742213D01*
X185360000Y-95247787D01*
X185263542Y-94762860D01*
X185074333Y-94306069D01*
X184799644Y-93894968D01*
X184450032Y-93545356D01*
X184038931Y-93270667D01*
X183582140Y-93081458D01*
X183097213Y-92985000D01*
X182602787Y-92985000D01*
X182117860Y-93081458D01*
X181661069Y-93270667D01*
X181249968Y-93545356D01*
X180900356Y-93894968D01*
X180625667Y-94306069D01*
X180436458Y-94762860D01*
X180340000Y-95247787D01*
X175605735Y-95247787D01*
X175657394Y-95140107D01*
X175706036Y-94979740D01*
X175585378Y-94742000D01*
X174342000Y-94742000D01*
X174088000Y-94742000D01*
X172844622Y-94742000D01*
X172723964Y-94979740D01*
X172307521Y-94979740D01*
X172350000Y-94766184D01*
X172350000Y-94463816D01*
X172307522Y-94250260D01*
X172723964Y-94250260D01*
X172844622Y-94488000D01*
X174088000Y-94488000D01*
X174088000Y-93244008D01*
X174342000Y-93244008D01*
X174342000Y-94488000D01*
X175585378Y-94488000D01*
X175706036Y-94250260D01*
X175657394Y-94089893D01*
X175527236Y-93818586D01*
X175346649Y-93577884D01*
X175122573Y-93377038D01*
X174863620Y-93223766D01*
X174579741Y-93123959D01*
X174342000Y-93244008D01*
X174088000Y-93244008D01*
X173850259Y-93123959D01*
X173566380Y-93223766D01*
X173307427Y-93377038D01*
X173083351Y-93577884D01*
X172902764Y-93818586D01*
X172772606Y-94089893D01*
X172723964Y-94250260D01*
X172307522Y-94250260D01*
X172291011Y-94167257D01*
X172175299Y-93887905D01*
X172007312Y-93636495D01*
X171793505Y-93422688D01*
X171542095Y-93254701D01*
X171262743Y-93138989D01*
X170966184Y-93080000D01*
X170663816Y-93080000D01*
X170367257Y-93138989D01*
X170087905Y-93254701D01*
X169836495Y-93422688D01*
X169622688Y-93636495D01*
X169454701Y-93887905D01*
X169338989Y-94167257D01*
X169280000Y-94463816D01*
X168953072Y-94463816D01*
X168953072Y-93715000D01*
X168940812Y-93590518D01*
X168904502Y-93470820D01*
X168845537Y-93360506D01*
X168766185Y-93263815D01*
X168669494Y-93184463D01*
X168559180Y-93125498D01*
X168439482Y-93089188D01*
X168315000Y-93076928D01*
X167128506Y-93076928D01*
X166626533Y-92574955D01*
X166598816Y-92541182D01*
X166464058Y-92430588D01*
X166310312Y-92348410D01*
X166143489Y-92297804D01*
X166013476Y-92284999D01*
X166013468Y-92284999D01*
X165969999Y-92280718D01*
X165926530Y-92284999D01*
X153308468Y-92284999D01*
X153264999Y-92280718D01*
X153221530Y-92284999D01*
X153221522Y-92284999D01*
X153091509Y-92297804D01*
X152924685Y-92348410D01*
X152770940Y-92430588D01*
X152669952Y-92513467D01*
X152669950Y-92513469D01*
X152636182Y-92541182D01*
X152608469Y-92574950D01*
X150749000Y-94434419D01*
X150749000Y-87488665D01*
X151600000Y-87488665D01*
X151600000Y-87771335D01*
X151655147Y-88048574D01*
X151763320Y-88309727D01*
X151920363Y-88544759D01*
X152120241Y-88744637D01*
X152355273Y-88901680D01*
X152616426Y-89009853D01*
X152893665Y-89065000D01*
X153176335Y-89065000D01*
X153211439Y-89058017D01*
X155663470Y-91510049D01*
X155691183Y-91543817D01*
X155724951Y-91571530D01*
X155724953Y-91571532D01*
X155825941Y-91654411D01*
X155979686Y-91736589D01*
X156131867Y-91782753D01*
X156146510Y-91787195D01*
X156276523Y-91800000D01*
X156276531Y-91800000D01*
X156320000Y-91804281D01*
X156363469Y-91800000D01*
X167860210Y-91800000D01*
X167922688Y-91893505D01*
X168136495Y-92107312D01*
X168387905Y-92275299D01*
X168667257Y-92391011D01*
X168963816Y-92450000D01*
X169266184Y-92450000D01*
X169562743Y-92391011D01*
X169842095Y-92275299D01*
X170093505Y-92107312D01*
X170307312Y-91893505D01*
X170369790Y-91800000D01*
X171134135Y-91800000D01*
X171148969Y-91827752D01*
X171353286Y-92076714D01*
X171602248Y-92281031D01*
X171886285Y-92432852D01*
X172194484Y-92526343D01*
X172434678Y-92550000D01*
X187392761Y-92550000D01*
X187659138Y-92816377D01*
X187692463Y-92896831D01*
X187882337Y-93180998D01*
X188124002Y-93422663D01*
X188408169Y-93612537D01*
X188723919Y-93743325D01*
X189059117Y-93810000D01*
X189400883Y-93810000D01*
X189736081Y-93743325D01*
X189816535Y-93710000D01*
X191405000Y-93710000D01*
X191405001Y-96921928D01*
X190270000Y-96921928D01*
X190145518Y-96934188D01*
X190025820Y-96970498D01*
X189915506Y-97029463D01*
X189818815Y-97108815D01*
X189739463Y-97205506D01*
X189680498Y-97315820D01*
X189644188Y-97435518D01*
X189631928Y-97560000D01*
X189631928Y-100560000D01*
X189644188Y-100684482D01*
X189680498Y-100804180D01*
X189739463Y-100914494D01*
X189818815Y-101011185D01*
X189915506Y-101090537D01*
X190025820Y-101149502D01*
X190145518Y-101185812D01*
X190270000Y-101198072D01*
X193270000Y-101198072D01*
X193394482Y-101185812D01*
X193514180Y-101149502D01*
X193624494Y-101090537D01*
X193721185Y-101011185D01*
X193800537Y-100914494D01*
X193859502Y-100804180D01*
X193895812Y-100684482D01*
X193908072Y-100560000D01*
X193908072Y-99234167D01*
X194139318Y-99002921D01*
X194201714Y-98951714D01*
X194406031Y-98702752D01*
X194557852Y-98418715D01*
X194651343Y-98110516D01*
X194675000Y-97870322D01*
X194675000Y-97870320D01*
X194682911Y-97790001D01*
X194675000Y-97709681D01*
X194675000Y-93521144D01*
X194729502Y-93419180D01*
X194765812Y-93299482D01*
X194778072Y-93175000D01*
X194778072Y-90975000D01*
X194765812Y-90850518D01*
X194729502Y-90730820D01*
X194670537Y-90620506D01*
X194591185Y-90523815D01*
X194494494Y-90444463D01*
X194384180Y-90385498D01*
X194264482Y-90349188D01*
X194140000Y-90336928D01*
X191940000Y-90336928D01*
X191815518Y-90349188D01*
X191695820Y-90385498D01*
X191593856Y-90440000D01*
X189907239Y-90440000D01*
X189282924Y-89815686D01*
X189231714Y-89753286D01*
X188982752Y-89548969D01*
X188698715Y-89397148D01*
X188390516Y-89303657D01*
X188150322Y-89280000D01*
X188150319Y-89280000D01*
X188070000Y-89272089D01*
X187989681Y-89280000D01*
X180185424Y-89280000D01*
X180583274Y-89115206D01*
X180975130Y-88853376D01*
X181308376Y-88520130D01*
X181570206Y-88128274D01*
X181750557Y-87692866D01*
X181842500Y-87230641D01*
X181842500Y-86759359D01*
X181750557Y-86297134D01*
X181570206Y-85861726D01*
X181308376Y-85469870D01*
X180975130Y-85136624D01*
X180583274Y-84874794D01*
X180147866Y-84694443D01*
X179685641Y-84602500D01*
X179214359Y-84602500D01*
X178752134Y-84694443D01*
X178316726Y-84874794D01*
X177924870Y-85136624D01*
X177591624Y-85469870D01*
X177329794Y-85861726D01*
X177149443Y-86297134D01*
X177057500Y-86759359D01*
X177057500Y-87230641D01*
X177149443Y-87692866D01*
X177329794Y-88128274D01*
X177591624Y-88520130D01*
X177924870Y-88853376D01*
X178316726Y-89115206D01*
X178714576Y-89280000D01*
X172434678Y-89280000D01*
X172194484Y-89303657D01*
X171886285Y-89397148D01*
X171602248Y-89548969D01*
X171353286Y-89753286D01*
X171148969Y-90002248D01*
X171134135Y-90030000D01*
X170369790Y-90030000D01*
X170307312Y-89936495D01*
X170093505Y-89722688D01*
X169842095Y-89554701D01*
X169562743Y-89438989D01*
X169266184Y-89380000D01*
X168963816Y-89380000D01*
X168667257Y-89438989D01*
X168387905Y-89554701D01*
X168136495Y-89722688D01*
X167922688Y-89936495D01*
X167860210Y-90030000D01*
X156686579Y-90030000D01*
X154463017Y-87806439D01*
X154470000Y-87771335D01*
X154470000Y-87488665D01*
X154414853Y-87211426D01*
X154306680Y-86950273D01*
X154179116Y-86759359D01*
X159757500Y-86759359D01*
X159757500Y-87230641D01*
X159849443Y-87692866D01*
X160029794Y-88128274D01*
X160291624Y-88520130D01*
X160624870Y-88853376D01*
X161016726Y-89115206D01*
X161452134Y-89295557D01*
X161914359Y-89387500D01*
X162385641Y-89387500D01*
X162847866Y-89295557D01*
X163283274Y-89115206D01*
X163675130Y-88853376D01*
X164008376Y-88520130D01*
X164270206Y-88128274D01*
X164450557Y-87692866D01*
X164542500Y-87230641D01*
X164542500Y-86759359D01*
X164450557Y-86297134D01*
X164270206Y-85861726D01*
X164008376Y-85469870D01*
X163675130Y-85136624D01*
X163283274Y-84874794D01*
X162847866Y-84694443D01*
X162385641Y-84602500D01*
X161914359Y-84602500D01*
X161452134Y-84694443D01*
X161016726Y-84874794D01*
X160624870Y-85136624D01*
X160291624Y-85469870D01*
X160029794Y-85861726D01*
X159849443Y-86297134D01*
X159757500Y-86759359D01*
X154179116Y-86759359D01*
X154149637Y-86715241D01*
X153949759Y-86515363D01*
X153714727Y-86358320D01*
X153453574Y-86250147D01*
X153176335Y-86195000D01*
X152893665Y-86195000D01*
X152616426Y-86250147D01*
X152355273Y-86358320D01*
X152120241Y-86515363D01*
X151920363Y-86715241D01*
X151763320Y-86950273D01*
X151655147Y-87211426D01*
X151600000Y-87488665D01*
X150749000Y-87488665D01*
X150749000Y-83822854D01*
X150749281Y-83820001D01*
X150749000Y-83817148D01*
X150749000Y-83015000D01*
X187491928Y-83015000D01*
X187504188Y-83139482D01*
X187540498Y-83259180D01*
X187599463Y-83369494D01*
X187678815Y-83466185D01*
X187775506Y-83545537D01*
X187885820Y-83604502D01*
X188005518Y-83640812D01*
X188130000Y-83653072D01*
X188944250Y-83650000D01*
X189103000Y-83491250D01*
X189103000Y-82042000D01*
X189357000Y-82042000D01*
X189357000Y-83491250D01*
X189515750Y-83650000D01*
X190330000Y-83653072D01*
X190454482Y-83640812D01*
X190574180Y-83604502D01*
X190684494Y-83545537D01*
X190781185Y-83466185D01*
X190860537Y-83369494D01*
X190919502Y-83259180D01*
X190955812Y-83139482D01*
X190968072Y-83015000D01*
X190965000Y-82200750D01*
X190806250Y-82042000D01*
X189357000Y-82042000D01*
X189103000Y-82042000D01*
X187653750Y-82042000D01*
X187495000Y-82200750D01*
X187491928Y-83015000D01*
X150749000Y-83015000D01*
X150749000Y-80815000D01*
X187491928Y-80815000D01*
X187495000Y-81629250D01*
X187653750Y-81788000D01*
X189103000Y-81788000D01*
X189103000Y-80338750D01*
X189357000Y-80338750D01*
X189357000Y-81788000D01*
X190806250Y-81788000D01*
X190850133Y-81744117D01*
X191305000Y-81744117D01*
X191305000Y-82085883D01*
X191371675Y-82421081D01*
X191502463Y-82736831D01*
X191692337Y-83020998D01*
X191934002Y-83262663D01*
X192218169Y-83452537D01*
X192533919Y-83583325D01*
X192869117Y-83650000D01*
X193210883Y-83650000D01*
X193546081Y-83583325D01*
X193861831Y-83452537D01*
X194145998Y-83262663D01*
X194387663Y-83020998D01*
X194577537Y-82736831D01*
X194708325Y-82421081D01*
X194775000Y-82085883D01*
X194775000Y-81744117D01*
X194708325Y-81408919D01*
X194577537Y-81093169D01*
X194387663Y-80809002D01*
X194145998Y-80567337D01*
X193861831Y-80377463D01*
X193546081Y-80246675D01*
X193210883Y-80180000D01*
X192869117Y-80180000D01*
X192533919Y-80246675D01*
X192218169Y-80377463D01*
X191934002Y-80567337D01*
X191692337Y-80809002D01*
X191502463Y-81093169D01*
X191371675Y-81408919D01*
X191305000Y-81744117D01*
X190850133Y-81744117D01*
X190965000Y-81629250D01*
X190968072Y-80815000D01*
X190955812Y-80690518D01*
X190919502Y-80570820D01*
X190860537Y-80460506D01*
X190781185Y-80363815D01*
X190684494Y-80284463D01*
X190574180Y-80225498D01*
X190454482Y-80189188D01*
X190330000Y-80176928D01*
X189515750Y-80180000D01*
X189357000Y-80338750D01*
X189103000Y-80338750D01*
X188944250Y-80180000D01*
X188130000Y-80176928D01*
X188005518Y-80189188D01*
X187885820Y-80225498D01*
X187775506Y-80284463D01*
X187678815Y-80363815D01*
X187599463Y-80460506D01*
X187540498Y-80570820D01*
X187504188Y-80690518D01*
X187491928Y-80815000D01*
X150749000Y-80815000D01*
X150749000Y-80453204D01*
X150746525Y-80428254D01*
X150745000Y-80423252D01*
X150745000Y-78965329D01*
X150965998Y-78817663D01*
X151207663Y-78575998D01*
X151397537Y-78291831D01*
X151528325Y-77976081D01*
X151551855Y-77857787D01*
X154305000Y-77857787D01*
X154305000Y-78352213D01*
X154401458Y-78837140D01*
X154590667Y-79293931D01*
X154865356Y-79705032D01*
X155214968Y-80054644D01*
X155626069Y-80329333D01*
X156082860Y-80518542D01*
X156567787Y-80615000D01*
X157062213Y-80615000D01*
X157547140Y-80518542D01*
X158003931Y-80329333D01*
X158415032Y-80054644D01*
X158764644Y-79705032D01*
X159039333Y-79293931D01*
X159228542Y-78837140D01*
X159325000Y-78352213D01*
X159325000Y-77963665D01*
X162070000Y-77963665D01*
X162070000Y-78246335D01*
X162125147Y-78523574D01*
X162233320Y-78784727D01*
X162390363Y-79019759D01*
X162590241Y-79219637D01*
X162825273Y-79376680D01*
X163086426Y-79484853D01*
X163363665Y-79540000D01*
X163646335Y-79540000D01*
X163923574Y-79484853D01*
X164184727Y-79376680D01*
X164419759Y-79219637D01*
X164619637Y-79019759D01*
X164696316Y-78905000D01*
X165566928Y-78905000D01*
X165579188Y-79029482D01*
X165615498Y-79149180D01*
X165674463Y-79259494D01*
X165753815Y-79356185D01*
X165850506Y-79435537D01*
X165960820Y-79494502D01*
X166080518Y-79530812D01*
X166205000Y-79543072D01*
X166719250Y-79540000D01*
X166878000Y-79381250D01*
X166878000Y-78232000D01*
X167132000Y-78232000D01*
X167132000Y-79381250D01*
X167290750Y-79540000D01*
X167805000Y-79543072D01*
X167929482Y-79530812D01*
X168049180Y-79494502D01*
X168159494Y-79435537D01*
X168256185Y-79356185D01*
X168335537Y-79259494D01*
X168394502Y-79149180D01*
X168430812Y-79029482D01*
X168443072Y-78905000D01*
X173186928Y-78905000D01*
X173199188Y-79029482D01*
X173235498Y-79149180D01*
X173294463Y-79259494D01*
X173373815Y-79356185D01*
X173470506Y-79435537D01*
X173580820Y-79494502D01*
X173700518Y-79530812D01*
X173825000Y-79543072D01*
X174339250Y-79540000D01*
X174498000Y-79381250D01*
X174498000Y-78232000D01*
X174752000Y-78232000D01*
X174752000Y-79381250D01*
X174910750Y-79540000D01*
X175425000Y-79543072D01*
X175549482Y-79530812D01*
X175669180Y-79494502D01*
X175779494Y-79435537D01*
X175876185Y-79356185D01*
X175955537Y-79259494D01*
X176014502Y-79149180D01*
X176050812Y-79029482D01*
X176063072Y-78905000D01*
X176060000Y-78390750D01*
X175901250Y-78232000D01*
X174752000Y-78232000D01*
X174498000Y-78232000D01*
X173348750Y-78232000D01*
X173190000Y-78390750D01*
X173186928Y-78905000D01*
X168443072Y-78905000D01*
X168440000Y-78390750D01*
X168281250Y-78232000D01*
X167132000Y-78232000D01*
X166878000Y-78232000D01*
X165728750Y-78232000D01*
X165570000Y-78390750D01*
X165566928Y-78905000D01*
X164696316Y-78905000D01*
X164776680Y-78784727D01*
X164884853Y-78523574D01*
X164940000Y-78246335D01*
X164940000Y-77963665D01*
X164884853Y-77686426D01*
X164776680Y-77425273D01*
X164696317Y-77305000D01*
X165566928Y-77305000D01*
X165570000Y-77819250D01*
X165728750Y-77978000D01*
X166878000Y-77978000D01*
X166878000Y-76828750D01*
X167132000Y-76828750D01*
X167132000Y-77978000D01*
X168281250Y-77978000D01*
X168440000Y-77819250D01*
X168443072Y-77305000D01*
X173186928Y-77305000D01*
X173190000Y-77819250D01*
X173348750Y-77978000D01*
X174498000Y-77978000D01*
X174498000Y-76828750D01*
X174752000Y-76828750D01*
X174752000Y-77978000D01*
X175901250Y-77978000D01*
X175915585Y-77963665D01*
X176690000Y-77963665D01*
X176690000Y-78246335D01*
X176745147Y-78523574D01*
X176853320Y-78784727D01*
X177010363Y-79019759D01*
X177210241Y-79219637D01*
X177445273Y-79376680D01*
X177706426Y-79484853D01*
X177983665Y-79540000D01*
X178266335Y-79540000D01*
X178543574Y-79484853D01*
X178804727Y-79376680D01*
X179039759Y-79219637D01*
X179239637Y-79019759D01*
X179396680Y-78784727D01*
X179504853Y-78523574D01*
X179560000Y-78246335D01*
X179560000Y-77963665D01*
X179504853Y-77686426D01*
X179396680Y-77425273D01*
X179239637Y-77190241D01*
X179039759Y-76990363D01*
X178804727Y-76833320D01*
X178543574Y-76725147D01*
X178266335Y-76670000D01*
X177983665Y-76670000D01*
X177706426Y-76725147D01*
X177445273Y-76833320D01*
X177210241Y-76990363D01*
X177010363Y-77190241D01*
X176853320Y-77425273D01*
X176745147Y-77686426D01*
X176690000Y-77963665D01*
X175915585Y-77963665D01*
X176060000Y-77819250D01*
X176063072Y-77305000D01*
X176050812Y-77180518D01*
X176014502Y-77060820D01*
X175955537Y-76950506D01*
X175876185Y-76853815D01*
X175779494Y-76774463D01*
X175669180Y-76715498D01*
X175549482Y-76679188D01*
X175425000Y-76666928D01*
X174910750Y-76670000D01*
X174752000Y-76828750D01*
X174498000Y-76828750D01*
X174339250Y-76670000D01*
X173825000Y-76666928D01*
X173700518Y-76679188D01*
X173580820Y-76715498D01*
X173470506Y-76774463D01*
X173373815Y-76853815D01*
X173294463Y-76950506D01*
X173235498Y-77060820D01*
X173199188Y-77180518D01*
X173186928Y-77305000D01*
X168443072Y-77305000D01*
X168430812Y-77180518D01*
X168394502Y-77060820D01*
X168335537Y-76950506D01*
X168256185Y-76853815D01*
X168159494Y-76774463D01*
X168049180Y-76715498D01*
X167929482Y-76679188D01*
X167805000Y-76666928D01*
X167290750Y-76670000D01*
X167132000Y-76828750D01*
X166878000Y-76828750D01*
X166719250Y-76670000D01*
X166205000Y-76666928D01*
X166080518Y-76679188D01*
X165960820Y-76715498D01*
X165850506Y-76774463D01*
X165753815Y-76853815D01*
X165674463Y-76950506D01*
X165615498Y-77060820D01*
X165579188Y-77180518D01*
X165566928Y-77305000D01*
X164696317Y-77305000D01*
X164619637Y-77190241D01*
X164419759Y-76990363D01*
X164184727Y-76833320D01*
X163923574Y-76725147D01*
X163646335Y-76670000D01*
X163363665Y-76670000D01*
X163086426Y-76725147D01*
X162825273Y-76833320D01*
X162590241Y-76990363D01*
X162390363Y-77190241D01*
X162233320Y-77425273D01*
X162125147Y-77686426D01*
X162070000Y-77963665D01*
X159325000Y-77963665D01*
X159325000Y-77857787D01*
X159228542Y-77372860D01*
X159039333Y-76916069D01*
X158764644Y-76504968D01*
X158415032Y-76155356D01*
X158003931Y-75880667D01*
X157547140Y-75691458D01*
X157062213Y-75595000D01*
X156567787Y-75595000D01*
X156082860Y-75691458D01*
X155626069Y-75880667D01*
X155214968Y-76155356D01*
X154865356Y-76504968D01*
X154590667Y-76916069D01*
X154401458Y-77372860D01*
X154305000Y-77857787D01*
X151551855Y-77857787D01*
X151595000Y-77640883D01*
X151595000Y-77299117D01*
X151528325Y-76963919D01*
X151397537Y-76648169D01*
X151207663Y-76364002D01*
X150965998Y-76122337D01*
X150681831Y-75932463D01*
X150366081Y-75801675D01*
X150030883Y-75735000D01*
X149689117Y-75735000D01*
X149428432Y-75786853D01*
X148205000Y-74563422D01*
X148205000Y-73644790D01*
X148298505Y-73582312D01*
X148512312Y-73368505D01*
X148680299Y-73117095D01*
X148796011Y-72837743D01*
X148855000Y-72541184D01*
X148855000Y-72238816D01*
X148796011Y-71942257D01*
X148680299Y-71662905D01*
X148512312Y-71411495D01*
X148298505Y-71197688D01*
X148047095Y-71029701D01*
X147767743Y-70913989D01*
X147471184Y-70855000D01*
X147168816Y-70855000D01*
X146872257Y-70913989D01*
X146592905Y-71029701D01*
X146341495Y-71197688D01*
X146127688Y-71411495D01*
X146050000Y-71527763D01*
X145972312Y-71411495D01*
X145758505Y-71197688D01*
X145507095Y-71029701D01*
X145227743Y-70913989D01*
X144931184Y-70855000D01*
X144628816Y-70855000D01*
X144332257Y-70913989D01*
X144052905Y-71029701D01*
X143801495Y-71197688D01*
X143735056Y-71264127D01*
X143729502Y-71245820D01*
X143670537Y-71135506D01*
X143591185Y-71038815D01*
X143494494Y-70959463D01*
X143384180Y-70900498D01*
X143264482Y-70864188D01*
X143140000Y-70851928D01*
X142525750Y-70855000D01*
X142367000Y-71013750D01*
X142367000Y-72263000D01*
X142387000Y-72263000D01*
X142387000Y-72517000D01*
X142367000Y-72517000D01*
X142367000Y-73766250D01*
X142525750Y-73925000D01*
X143140000Y-73928072D01*
X143264482Y-73915812D01*
X143384180Y-73879502D01*
X143494494Y-73820537D01*
X143591185Y-73741185D01*
X143670537Y-73644494D01*
X143729502Y-73534180D01*
X143735056Y-73515873D01*
X143801495Y-73582312D01*
X144052905Y-73750299D01*
X144332257Y-73866011D01*
X144628816Y-73925000D01*
X144931184Y-73925000D01*
X145227743Y-73866011D01*
X145507095Y-73750299D01*
X145758505Y-73582312D01*
X145972312Y-73368505D01*
X146050000Y-73252237D01*
X146127688Y-73368505D01*
X146341495Y-73582312D01*
X146435000Y-73644790D01*
X146435001Y-74886521D01*
X146430719Y-74930000D01*
X146447805Y-75103490D01*
X146498412Y-75270313D01*
X146580590Y-75424059D01*
X146663468Y-75525046D01*
X146663471Y-75525049D01*
X146691184Y-75558817D01*
X146724951Y-75586529D01*
X148176853Y-77038432D01*
X148125000Y-77299117D01*
X148125000Y-77640883D01*
X148191675Y-77976081D01*
X148322463Y-78291831D01*
X148512337Y-78575998D01*
X148754002Y-78817663D01*
X148975001Y-78965329D01*
X148975001Y-80328496D01*
X133855142Y-80349542D01*
X133903931Y-80329333D01*
X134315032Y-80054644D01*
X134664644Y-79705032D01*
X134939333Y-79293931D01*
X135128542Y-78837140D01*
X135181679Y-78570000D01*
X137961928Y-78570000D01*
X137974188Y-78694482D01*
X138010498Y-78814180D01*
X138069463Y-78924494D01*
X138148815Y-79021185D01*
X138245506Y-79100537D01*
X138355820Y-79159502D01*
X138475518Y-79195812D01*
X138600000Y-79208072D01*
X139414250Y-79205000D01*
X139573000Y-79046250D01*
X139573000Y-77597000D01*
X139827000Y-77597000D01*
X139827000Y-79046250D01*
X139985750Y-79205000D01*
X140800000Y-79208072D01*
X140924482Y-79195812D01*
X141044180Y-79159502D01*
X141154494Y-79100537D01*
X141251185Y-79021185D01*
X141330537Y-78924494D01*
X141389502Y-78814180D01*
X141425812Y-78694482D01*
X141438072Y-78570000D01*
X141435000Y-77755750D01*
X141276250Y-77597000D01*
X139827000Y-77597000D01*
X139573000Y-77597000D01*
X138123750Y-77597000D01*
X137965000Y-77755750D01*
X137961928Y-78570000D01*
X135181679Y-78570000D01*
X135225000Y-78352213D01*
X135225000Y-77857787D01*
X135128542Y-77372860D01*
X134939333Y-76916069D01*
X134664644Y-76504968D01*
X134529676Y-76370000D01*
X137961928Y-76370000D01*
X137965000Y-77184250D01*
X138123750Y-77343000D01*
X139573000Y-77343000D01*
X139573000Y-75893750D01*
X139827000Y-75893750D01*
X139827000Y-77343000D01*
X141276250Y-77343000D01*
X141435000Y-77184250D01*
X141438072Y-76370000D01*
X141425812Y-76245518D01*
X141389502Y-76125820D01*
X141330537Y-76015506D01*
X141251185Y-75918815D01*
X141154494Y-75839463D01*
X141044180Y-75780498D01*
X140924482Y-75744188D01*
X140800000Y-75731928D01*
X139985750Y-75735000D01*
X139827000Y-75893750D01*
X139573000Y-75893750D01*
X139414250Y-75735000D01*
X138600000Y-75731928D01*
X138475518Y-75744188D01*
X138355820Y-75780498D01*
X138245506Y-75839463D01*
X138148815Y-75918815D01*
X138069463Y-76015506D01*
X138010498Y-76125820D01*
X137974188Y-76245518D01*
X137961928Y-76370000D01*
X134529676Y-76370000D01*
X134315032Y-76155356D01*
X133903931Y-75880667D01*
X133447140Y-75691458D01*
X132962213Y-75595000D01*
X132467787Y-75595000D01*
X131982860Y-75691458D01*
X131526069Y-75880667D01*
X131114968Y-76155356D01*
X130765356Y-76504968D01*
X130490667Y-76916069D01*
X130301458Y-77372860D01*
X130205000Y-77857787D01*
X130205000Y-78352213D01*
X130301458Y-78837140D01*
X130490667Y-79293931D01*
X130765356Y-79705032D01*
X131114968Y-80054644D01*
X131526069Y-80329333D01*
X131582495Y-80352705D01*
X128691618Y-80356729D01*
X128743977Y-80304370D01*
X128627704Y-80188097D01*
X128871671Y-80116514D01*
X128992571Y-79861004D01*
X129061300Y-79586816D01*
X129075217Y-79304488D01*
X129033787Y-79024870D01*
X128938603Y-78758708D01*
X128871671Y-78633486D01*
X128627702Y-78561903D01*
X127814605Y-79375000D01*
X127828748Y-79389143D01*
X127649143Y-79568748D01*
X127635000Y-79554605D01*
X127620858Y-79568748D01*
X127441253Y-79389143D01*
X127455395Y-79375000D01*
X126642298Y-78561903D01*
X126398329Y-78633486D01*
X126277429Y-78888996D01*
X126208700Y-79163184D01*
X126194783Y-79445512D01*
X126236213Y-79725130D01*
X126331397Y-79991292D01*
X126398329Y-80116514D01*
X126642296Y-80188097D01*
X126526023Y-80304370D01*
X126581320Y-80359667D01*
X121052033Y-80367363D01*
X121129637Y-80289759D01*
X121286680Y-80054727D01*
X121394853Y-79793574D01*
X121450000Y-79516335D01*
X121450000Y-79233665D01*
X121394853Y-78956426D01*
X121286680Y-78695273D01*
X121129637Y-78460241D01*
X121051694Y-78382298D01*
X126821903Y-78382298D01*
X127635000Y-79195395D01*
X128448097Y-78382298D01*
X128376514Y-78138329D01*
X128121004Y-78017429D01*
X127846816Y-77948700D01*
X127564488Y-77934783D01*
X127284870Y-77976213D01*
X127018708Y-78071397D01*
X126893486Y-78138329D01*
X126821903Y-78382298D01*
X121051694Y-78382298D01*
X120929759Y-78260363D01*
X120694727Y-78103320D01*
X120433574Y-77995147D01*
X120156335Y-77940000D01*
X119873665Y-77940000D01*
X119596426Y-77995147D01*
X119335273Y-78103320D01*
X119100241Y-78260363D01*
X118900363Y-78460241D01*
X118743320Y-78695273D01*
X118635147Y-78956426D01*
X118580000Y-79233665D01*
X118580000Y-79516335D01*
X118635147Y-79793574D01*
X118743320Y-80054727D01*
X118900363Y-80289759D01*
X118980850Y-80370246D01*
X118452560Y-80370981D01*
X117510000Y-79428422D01*
X117510000Y-79246469D01*
X117459849Y-78994346D01*
X117361476Y-78756851D01*
X117218659Y-78543111D01*
X117036889Y-78361341D01*
X116823149Y-78218524D01*
X116585654Y-78120151D01*
X116333531Y-78070000D01*
X116076469Y-78070000D01*
X115824346Y-78120151D01*
X115586851Y-78218524D01*
X115373111Y-78361341D01*
X115191341Y-78543111D01*
X115048524Y-78756851D01*
X114950151Y-78994346D01*
X114900000Y-79246469D01*
X114900000Y-79503531D01*
X114950151Y-79755654D01*
X115048524Y-79993149D01*
X115191341Y-80206889D01*
X115359738Y-80375286D01*
X104070652Y-80391000D01*
X104045654Y-80393520D01*
X104021853Y-80400824D01*
X103999934Y-80412630D01*
X103980739Y-80428486D01*
X103965007Y-80447781D01*
X103953341Y-80469775D01*
X103946191Y-80493623D01*
X103943830Y-80518407D01*
X103945067Y-80904653D01*
X103934188Y-80940518D01*
X103921928Y-81065000D01*
X102260000Y-81065000D01*
X102260000Y-70742285D01*
X105385000Y-70742285D01*
X105385000Y-71497715D01*
X105532377Y-72238628D01*
X105821467Y-72936554D01*
X106241161Y-73564670D01*
X106775330Y-74098839D01*
X107403446Y-74518533D01*
X108101372Y-74807623D01*
X108842285Y-74955000D01*
X109597715Y-74955000D01*
X110338628Y-74807623D01*
X111036554Y-74518533D01*
X111664670Y-74098839D01*
X112198839Y-73564670D01*
X112618533Y-72936554D01*
X112907623Y-72238628D01*
X113055000Y-71497715D01*
X113055000Y-70742285D01*
X112958073Y-70255000D01*
X118511928Y-70255000D01*
X118511928Y-73255000D01*
X118524188Y-73379482D01*
X118560498Y-73499180D01*
X118619463Y-73609494D01*
X118698815Y-73706185D01*
X118795506Y-73785537D01*
X118905820Y-73844502D01*
X119025518Y-73880812D01*
X119150000Y-73893072D01*
X122150000Y-73893072D01*
X122274482Y-73880812D01*
X122394180Y-73844502D01*
X122504494Y-73785537D01*
X122601185Y-73706185D01*
X122680537Y-73609494D01*
X122739502Y-73499180D01*
X122775812Y-73379482D01*
X122788072Y-73255000D01*
X122788072Y-73246653D01*
X124417952Y-73246653D01*
X124573962Y-73562214D01*
X124948745Y-73753020D01*
X125353551Y-73867044D01*
X125772824Y-73899902D01*
X126190451Y-73850334D01*
X126590383Y-73720243D01*
X126886038Y-73562214D01*
X127020617Y-73290000D01*
X140701928Y-73290000D01*
X140714188Y-73414482D01*
X140750498Y-73534180D01*
X140809463Y-73644494D01*
X140888815Y-73741185D01*
X140985506Y-73820537D01*
X141095820Y-73879502D01*
X141215518Y-73915812D01*
X141340000Y-73928072D01*
X141954250Y-73925000D01*
X142113000Y-73766250D01*
X142113000Y-72517000D01*
X140863750Y-72517000D01*
X140705000Y-72675750D01*
X140701928Y-73290000D01*
X127020617Y-73290000D01*
X127042048Y-73246653D01*
X125730000Y-71934605D01*
X124417952Y-73246653D01*
X122788072Y-73246653D01*
X122788072Y-71797824D01*
X123585098Y-71797824D01*
X123634666Y-72215451D01*
X123764757Y-72615383D01*
X123922786Y-72911038D01*
X124238347Y-73067048D01*
X125550395Y-71755000D01*
X125909605Y-71755000D01*
X127221653Y-73067048D01*
X127537214Y-72911038D01*
X127728020Y-72536255D01*
X127842044Y-72131449D01*
X127874902Y-71712176D01*
X127825334Y-71294549D01*
X127695243Y-70894617D01*
X127537214Y-70598962D01*
X127221653Y-70442952D01*
X125909605Y-71755000D01*
X125550395Y-71755000D01*
X124238347Y-70442952D01*
X123922786Y-70598962D01*
X123731980Y-70973745D01*
X123617956Y-71378551D01*
X123585098Y-71797824D01*
X122788072Y-71797824D01*
X122788072Y-70263347D01*
X124417952Y-70263347D01*
X125730000Y-71575395D01*
X127042048Y-70263347D01*
X126886038Y-69947786D01*
X126511255Y-69756980D01*
X126106449Y-69642956D01*
X125687176Y-69610098D01*
X125269549Y-69659666D01*
X124869617Y-69789757D01*
X124573962Y-69947786D01*
X124417952Y-70263347D01*
X122788072Y-70263347D01*
X122788072Y-70255000D01*
X122775812Y-70130518D01*
X122739502Y-70010820D01*
X122680537Y-69900506D01*
X122601185Y-69803815D01*
X122504494Y-69724463D01*
X122394180Y-69665498D01*
X122274482Y-69629188D01*
X122150000Y-69616928D01*
X119150000Y-69616928D01*
X119025518Y-69629188D01*
X118905820Y-69665498D01*
X118795506Y-69724463D01*
X118698815Y-69803815D01*
X118619463Y-69900506D01*
X118560498Y-70010820D01*
X118524188Y-70130518D01*
X118511928Y-70255000D01*
X112958073Y-70255000D01*
X112907623Y-70001372D01*
X112645836Y-69369359D01*
X133722500Y-69369359D01*
X133722500Y-69840641D01*
X133814443Y-70302866D01*
X133994794Y-70738274D01*
X134256624Y-71130130D01*
X134589870Y-71463376D01*
X134981726Y-71725206D01*
X135417134Y-71905557D01*
X135879359Y-71997500D01*
X136350641Y-71997500D01*
X136812866Y-71905557D01*
X137248274Y-71725206D01*
X137600284Y-71490000D01*
X140701928Y-71490000D01*
X140705000Y-72104250D01*
X140863750Y-72263000D01*
X142113000Y-72263000D01*
X142113000Y-71013750D01*
X141954250Y-70855000D01*
X141340000Y-70851928D01*
X141215518Y-70864188D01*
X141095820Y-70900498D01*
X140985506Y-70959463D01*
X140888815Y-71038815D01*
X140809463Y-71135506D01*
X140750498Y-71245820D01*
X140714188Y-71365518D01*
X140701928Y-71490000D01*
X137600284Y-71490000D01*
X137640130Y-71463376D01*
X137973376Y-71130130D01*
X138235206Y-70738274D01*
X138415557Y-70302866D01*
X138507500Y-69840641D01*
X138507500Y-69369359D01*
X151022500Y-69369359D01*
X151022500Y-69840641D01*
X151114443Y-70302866D01*
X151294794Y-70738274D01*
X151556624Y-71130130D01*
X151889870Y-71463376D01*
X152281726Y-71725206D01*
X152717134Y-71905557D01*
X153179359Y-71997500D01*
X153650641Y-71997500D01*
X154112866Y-71905557D01*
X154548274Y-71725206D01*
X154940130Y-71463376D01*
X155273376Y-71130130D01*
X155532525Y-70742285D01*
X186665000Y-70742285D01*
X186665000Y-71497715D01*
X186812377Y-72238628D01*
X187101467Y-72936554D01*
X187521161Y-73564670D01*
X188055330Y-74098839D01*
X188683446Y-74518533D01*
X189381372Y-74807623D01*
X190122285Y-74955000D01*
X190877715Y-74955000D01*
X191618628Y-74807623D01*
X192316554Y-74518533D01*
X192944670Y-74098839D01*
X193478839Y-73564670D01*
X193898533Y-72936554D01*
X194187623Y-72238628D01*
X194335000Y-71497715D01*
X194335000Y-70742285D01*
X194187623Y-70001372D01*
X193898533Y-69303446D01*
X193478839Y-68675330D01*
X192944670Y-68141161D01*
X192316554Y-67721467D01*
X191618628Y-67432377D01*
X190877715Y-67285000D01*
X190122285Y-67285000D01*
X189381372Y-67432377D01*
X188683446Y-67721467D01*
X188055330Y-68141161D01*
X187521161Y-68675330D01*
X187101467Y-69303446D01*
X186812377Y-70001372D01*
X186665000Y-70742285D01*
X155532525Y-70742285D01*
X155535206Y-70738274D01*
X155715557Y-70302866D01*
X155807500Y-69840641D01*
X155807500Y-69369359D01*
X155715557Y-68907134D01*
X155535206Y-68471726D01*
X155273376Y-68079870D01*
X154940130Y-67746624D01*
X154548274Y-67484794D01*
X154112866Y-67304443D01*
X153650641Y-67212500D01*
X153179359Y-67212500D01*
X152717134Y-67304443D01*
X152281726Y-67484794D01*
X151889870Y-67746624D01*
X151556624Y-68079870D01*
X151294794Y-68471726D01*
X151114443Y-68907134D01*
X151022500Y-69369359D01*
X138507500Y-69369359D01*
X138415557Y-68907134D01*
X138235206Y-68471726D01*
X137973376Y-68079870D01*
X137640130Y-67746624D01*
X137248274Y-67484794D01*
X136812866Y-67304443D01*
X136350641Y-67212500D01*
X135879359Y-67212500D01*
X135417134Y-67304443D01*
X134981726Y-67484794D01*
X134589870Y-67746624D01*
X134256624Y-68079870D01*
X133994794Y-68471726D01*
X133814443Y-68907134D01*
X133722500Y-69369359D01*
X112645836Y-69369359D01*
X112618533Y-69303446D01*
X112198839Y-68675330D01*
X111664670Y-68141161D01*
X111036554Y-67721467D01*
X110338628Y-67432377D01*
X109597715Y-67285000D01*
X108842285Y-67285000D01*
X108101372Y-67432377D01*
X107403446Y-67721467D01*
X106775330Y-68141161D01*
X106241161Y-68675330D01*
X105821467Y-69303446D01*
X105532377Y-70001372D01*
X105385000Y-70742285D01*
X102260000Y-70742285D01*
X102260000Y-64160000D01*
X197460001Y-64160000D01*
X197460000Y-137770000D01*
G37*
X197460000Y-137770000D02*
X102260000Y-137770000D01*
X102260000Y-130432285D01*
X105385000Y-130432285D01*
X105385000Y-131187715D01*
X105532377Y-131928628D01*
X105821467Y-132626554D01*
X106241161Y-133254670D01*
X106775330Y-133788839D01*
X107403446Y-134208533D01*
X108101372Y-134497623D01*
X108842285Y-134645000D01*
X109597715Y-134645000D01*
X110338628Y-134497623D01*
X111036554Y-134208533D01*
X111664670Y-133788839D01*
X112198839Y-133254670D01*
X112618533Y-132626554D01*
X112907623Y-131928628D01*
X113055000Y-131187715D01*
X113055000Y-130432285D01*
X186665000Y-130432285D01*
X186665000Y-131187715D01*
X186812377Y-131928628D01*
X187101467Y-132626554D01*
X187521161Y-133254670D01*
X188055330Y-133788839D01*
X188683446Y-134208533D01*
X189381372Y-134497623D01*
X190122285Y-134645000D01*
X190877715Y-134645000D01*
X191618628Y-134497623D01*
X192316554Y-134208533D01*
X192944670Y-133788839D01*
X193478839Y-133254670D01*
X193898533Y-132626554D01*
X194187623Y-131928628D01*
X194335000Y-131187715D01*
X194335000Y-130432285D01*
X194187623Y-129691372D01*
X193898533Y-128993446D01*
X193478839Y-128365330D01*
X192944670Y-127831161D01*
X192316554Y-127411467D01*
X191618628Y-127122377D01*
X190877715Y-126975000D01*
X190122285Y-126975000D01*
X189381372Y-127122377D01*
X188683446Y-127411467D01*
X188055330Y-127831161D01*
X187521161Y-128365330D01*
X187101467Y-128993446D01*
X186812377Y-129691372D01*
X186665000Y-130432285D01*
X113055000Y-130432285D01*
X112907623Y-129691372D01*
X112618533Y-128993446D01*
X112198839Y-128365330D01*
X111664670Y-127831161D01*
X111036554Y-127411467D01*
X110338628Y-127122377D01*
X109597715Y-126975000D01*
X108842285Y-126975000D01*
X108101372Y-127122377D01*
X107403446Y-127411467D01*
X106775330Y-127831161D01*
X106241161Y-128365330D01*
X105821467Y-128993446D01*
X105532377Y-129691372D01*
X105385000Y-130432285D01*
X102260000Y-130432285D01*
X102260000Y-126722702D01*
X140791903Y-126722702D01*
X140863486Y-126966671D01*
X141118996Y-127087571D01*
X141393184Y-127156300D01*
X141675512Y-127170217D01*
X141955130Y-127128787D01*
X142221292Y-127033603D01*
X142346514Y-126966671D01*
X142418097Y-126722702D01*
X141605000Y-125909605D01*
X140791903Y-126722702D01*
X102260000Y-126722702D01*
X102260000Y-125800512D01*
X140164783Y-125800512D01*
X140206213Y-126080130D01*
X140301397Y-126346292D01*
X140368329Y-126471514D01*
X140612298Y-126543097D01*
X141425395Y-125730000D01*
X141784605Y-125730000D01*
X142597702Y-126543097D01*
X142841671Y-126471514D01*
X142962571Y-126216004D01*
X143031300Y-125941816D01*
X143045217Y-125659488D01*
X143034724Y-125588665D01*
X144615000Y-125588665D01*
X144615000Y-125871335D01*
X144670147Y-126148574D01*
X144778320Y-126409727D01*
X144935363Y-126644759D01*
X145135241Y-126844637D01*
X145370273Y-127001680D01*
X145631426Y-127109853D01*
X145908665Y-127165000D01*
X146191335Y-127165000D01*
X146468574Y-127109853D01*
X146729727Y-127001680D01*
X146964759Y-126844637D01*
X147164637Y-126644759D01*
X147321680Y-126409727D01*
X147429853Y-126148574D01*
X147485000Y-125871335D01*
X147485000Y-125588665D01*
X147429853Y-125311426D01*
X147321680Y-125050273D01*
X147164637Y-124815241D01*
X146964759Y-124615363D01*
X146729727Y-124458320D01*
X146468574Y-124350147D01*
X146191335Y-124295000D01*
X145908665Y-124295000D01*
X145631426Y-124350147D01*
X145370273Y-124458320D01*
X145135241Y-124615363D01*
X144935363Y-124815241D01*
X144778320Y-125050273D01*
X144670147Y-125311426D01*
X144615000Y-125588665D01*
X143034724Y-125588665D01*
X143003787Y-125379870D01*
X142908603Y-125113708D01*
X142841671Y-124988486D01*
X142597702Y-124916903D01*
X141784605Y-125730000D01*
X141425395Y-125730000D01*
X140612298Y-124916903D01*
X140368329Y-124988486D01*
X140247429Y-125243996D01*
X140178700Y-125518184D01*
X140164783Y-125800512D01*
X102260000Y-125800512D01*
X102260000Y-125269764D01*
X133314841Y-125269764D01*
X133362148Y-125493348D01*
X133583516Y-125594237D01*
X133820313Y-125650000D01*
X134063438Y-125658495D01*
X134303549Y-125619395D01*
X134531418Y-125534202D01*
X134607852Y-125493348D01*
X134655159Y-125269764D01*
X133985000Y-124599605D01*
X133314841Y-125269764D01*
X102260000Y-125269764D01*
X102260000Y-81065000D01*
X103921928Y-81065000D01*
X103921928Y-82765000D01*
X103934188Y-82889482D01*
X103951611Y-82946917D01*
X103955483Y-84155494D01*
X103925000Y-84308740D01*
X103925000Y-84601260D01*
X103957433Y-84764312D01*
X103963492Y-86655231D01*
X103925000Y-86848740D01*
X103925000Y-87141260D01*
X103965704Y-87345893D01*
X103971500Y-89154969D01*
X103925000Y-89388740D01*
X103925000Y-89681260D01*
X103973975Y-89927474D01*
X103979509Y-91654706D01*
X103925000Y-91928740D01*
X103925000Y-92221260D01*
X103982068Y-92508158D01*
X103982245Y-92508585D01*
X103987563Y-94168575D01*
X103982068Y-94181842D01*
X103925000Y-94468740D01*
X103925000Y-94761260D01*
X103982068Y-95048158D01*
X103990446Y-95068385D01*
X103995639Y-96689079D01*
X103982068Y-96721842D01*
X103925000Y-97008740D01*
X103925000Y-97301260D01*
X103982068Y-97588158D01*
X103998647Y-97628185D01*
X104003714Y-99209584D01*
X103982068Y-99261842D01*
X103925000Y-99548740D01*
X103925000Y-99841260D01*
X103982068Y-100128158D01*
X104006849Y-100187984D01*
X104011789Y-101730088D01*
X103982068Y-101801842D01*
X103925000Y-102088740D01*
X103925000Y-102381260D01*
X103982068Y-102668158D01*
X104015050Y-102747784D01*
X104019865Y-104250592D01*
X103982068Y-104341842D01*
X103925000Y-104628740D01*
X103925000Y-104921260D01*
X103982068Y-105208158D01*
X104023251Y-105307584D01*
X104027940Y-106771096D01*
X103982068Y-106881842D01*
X103925000Y-107168740D01*
X103925000Y-107461260D01*
X103982068Y-107748158D01*
X104031452Y-107867383D01*
X104036016Y-109291601D01*
X103982068Y-109421842D01*
X103925000Y-109708740D01*
X103925000Y-110001260D01*
X103982068Y-110288158D01*
X104039654Y-110427183D01*
X104044091Y-111812105D01*
X103982068Y-111961842D01*
X103925000Y-112248740D01*
X103925000Y-112541260D01*
X103982068Y-112828158D01*
X104047855Y-112986983D01*
X104052166Y-114332609D01*
X103982068Y-114501842D01*
X103925000Y-114788740D01*
X103925000Y-115081260D01*
X103982068Y-115368158D01*
X104056056Y-115546782D01*
X104060242Y-116853113D01*
X103982068Y-117041842D01*
X103925000Y-117328740D01*
X103925000Y-117621260D01*
X103982068Y-117908158D01*
X104064258Y-118106582D01*
X104068317Y-119373618D01*
X103982068Y-119581842D01*
X103925000Y-119868740D01*
X103925000Y-120161260D01*
X103982068Y-120448158D01*
X104072459Y-120666382D01*
X104082173Y-123698407D01*
X104084612Y-123722776D01*
X104091839Y-123746601D01*
X104103575Y-123768557D01*
X104119369Y-123787803D01*
X104138615Y-123803597D01*
X104160571Y-123815333D01*
X104184396Y-123822560D01*
X104209172Y-123825000D01*
X114900000Y-123825000D01*
X114900000Y-123826531D01*
X114950151Y-124078654D01*
X115048524Y-124316149D01*
X115191341Y-124529889D01*
X115373111Y-124711659D01*
X115586851Y-124854476D01*
X115824346Y-124952849D01*
X116076469Y-125003000D01*
X116333531Y-125003000D01*
X116585654Y-124952849D01*
X116823149Y-124854476D01*
X117036889Y-124711659D01*
X117165548Y-124583000D01*
X117304531Y-124583000D01*
X117348000Y-124587281D01*
X117391469Y-124583000D01*
X117391477Y-124583000D01*
X117521490Y-124570195D01*
X117688313Y-124519589D01*
X117727884Y-124498438D01*
X132746505Y-124498438D01*
X132785605Y-124738549D01*
X132870798Y-124966418D01*
X132911652Y-125042852D01*
X133135236Y-125090159D01*
X133805395Y-124420000D01*
X134164605Y-124420000D01*
X134834764Y-125090159D01*
X135058348Y-125042852D01*
X135159237Y-124821484D01*
X135179061Y-124737298D01*
X140791903Y-124737298D01*
X141605000Y-125550395D01*
X142418097Y-124737298D01*
X142346514Y-124493329D01*
X142091004Y-124372429D01*
X141816816Y-124303700D01*
X141534488Y-124289783D01*
X141254870Y-124331213D01*
X140988708Y-124426397D01*
X140863486Y-124493329D01*
X140791903Y-124737298D01*
X135179061Y-124737298D01*
X135215000Y-124584687D01*
X135223495Y-124341562D01*
X135184395Y-124101451D01*
X135099202Y-123873582D01*
X135058348Y-123797148D01*
X134834764Y-123749841D01*
X134164605Y-124420000D01*
X133805395Y-124420000D01*
X133135236Y-123749841D01*
X132911652Y-123797148D01*
X132810763Y-124018516D01*
X132755000Y-124255313D01*
X132746505Y-124498438D01*
X117727884Y-124498438D01*
X117842059Y-124437411D01*
X117976817Y-124326817D01*
X118004534Y-124293044D01*
X118472578Y-123825000D01*
X130163657Y-123825000D01*
X130188331Y-123822580D01*
X130212161Y-123815373D01*
X130234127Y-123803655D01*
X130253385Y-123787877D01*
X130471385Y-123570236D01*
X133314841Y-123570236D01*
X133985000Y-124240395D01*
X134655159Y-123570236D01*
X134607852Y-123346652D01*
X134386484Y-123245763D01*
X134149687Y-123190000D01*
X133906562Y-123181505D01*
X133666451Y-123220605D01*
X133438582Y-123305798D01*
X133362148Y-123346652D01*
X133314841Y-123570236D01*
X130471385Y-123570236D01*
X133777316Y-120269764D01*
X135814841Y-120269764D01*
X135862148Y-120493348D01*
X136083516Y-120594237D01*
X136320313Y-120650000D01*
X136563438Y-120658495D01*
X136803549Y-120619395D01*
X137031418Y-120534202D01*
X137107852Y-120493348D01*
X137155159Y-120269764D01*
X136485000Y-119599605D01*
X135814841Y-120269764D01*
X133777316Y-120269764D01*
X134549918Y-119498438D01*
X135246505Y-119498438D01*
X135285605Y-119738549D01*
X135370798Y-119966418D01*
X135411652Y-120042852D01*
X135635236Y-120090159D01*
X136305395Y-119420000D01*
X136664605Y-119420000D01*
X137334764Y-120090159D01*
X137558348Y-120042852D01*
X137659237Y-119821484D01*
X137715000Y-119584687D01*
X137723495Y-119341562D01*
X137684395Y-119101451D01*
X137599202Y-118873582D01*
X137558348Y-118797148D01*
X137334764Y-118749841D01*
X136664605Y-119420000D01*
X136305395Y-119420000D01*
X135635236Y-118749841D01*
X135411652Y-118797148D01*
X135310763Y-119018516D01*
X135255000Y-119255313D01*
X135246505Y-119498438D01*
X134549918Y-119498438D01*
X135479655Y-118570236D01*
X135814841Y-118570236D01*
X136485000Y-119240395D01*
X137155159Y-118570236D01*
X137107852Y-118346652D01*
X136886484Y-118245763D01*
X136649687Y-118190000D01*
X136406562Y-118181505D01*
X136166451Y-118220605D01*
X135938582Y-118305798D01*
X135862148Y-118346652D01*
X135814841Y-118570236D01*
X135479655Y-118570236D01*
X137122728Y-116929877D01*
X137139934Y-116908514D01*
X137151245Y-116886336D01*
X137158013Y-116862377D01*
X137159977Y-116837558D01*
X137078205Y-112585374D01*
X137200951Y-112462628D01*
X137186928Y-112605000D01*
X137186928Y-112805000D01*
X137201110Y-112948991D01*
X137225684Y-113030000D01*
X137201110Y-113111009D01*
X137186928Y-113255000D01*
X137186928Y-113455000D01*
X137201110Y-113598991D01*
X137225684Y-113680000D01*
X137201110Y-113761009D01*
X137186928Y-113905000D01*
X137186928Y-114105000D01*
X137201110Y-114248991D01*
X137243110Y-114387448D01*
X137311316Y-114515051D01*
X137403104Y-114626896D01*
X137514949Y-114718684D01*
X137642552Y-114786890D01*
X137752500Y-114820242D01*
X137752500Y-115099031D01*
X137748219Y-115142500D01*
X137752500Y-115185969D01*
X137752500Y-115185976D01*
X137765305Y-115315989D01*
X137815911Y-115482812D01*
X137898089Y-115636558D01*
X138008683Y-115771317D01*
X138042456Y-115799034D01*
X140176983Y-117933561D01*
X140170000Y-117968665D01*
X140170000Y-118251335D01*
X140225147Y-118528574D01*
X140333320Y-118789727D01*
X140490363Y-119024759D01*
X140690241Y-119224637D01*
X140925273Y-119381680D01*
X141186426Y-119489853D01*
X141463665Y-119545000D01*
X141746335Y-119545000D01*
X142023574Y-119489853D01*
X142284727Y-119381680D01*
X142519759Y-119224637D01*
X142719637Y-119024759D01*
X142739521Y-118995000D01*
X144915479Y-118995000D01*
X144935363Y-119024759D01*
X145135241Y-119224637D01*
X145370273Y-119381680D01*
X145631426Y-119489853D01*
X145908665Y-119545000D01*
X146191335Y-119545000D01*
X146468574Y-119489853D01*
X146729727Y-119381680D01*
X146964759Y-119224637D01*
X147164637Y-119024759D01*
X147321680Y-118789727D01*
X147429853Y-118528574D01*
X147485000Y-118251335D01*
X147485000Y-117968665D01*
X147429853Y-117691426D01*
X147321680Y-117430273D01*
X147164637Y-117195241D01*
X146964759Y-116995363D01*
X146729727Y-116838320D01*
X146468574Y-116730147D01*
X146191335Y-116675000D01*
X145908665Y-116675000D01*
X145631426Y-116730147D01*
X145370273Y-116838320D01*
X145135241Y-116995363D01*
X144935363Y-117195241D01*
X144915479Y-117225000D01*
X142739521Y-117225000D01*
X142719637Y-117195241D01*
X142519759Y-116995363D01*
X142284727Y-116838320D01*
X142023574Y-116730147D01*
X141746335Y-116675000D01*
X141463665Y-116675000D01*
X141428561Y-116681983D01*
X141078578Y-116332000D01*
X148843719Y-116332000D01*
X148848001Y-116375479D01*
X148848000Y-120220532D01*
X148843719Y-120264001D01*
X148848000Y-120307470D01*
X148848000Y-120307477D01*
X148855073Y-120379287D01*
X148860805Y-120437491D01*
X148864041Y-120448158D01*
X148911411Y-120604313D01*
X148993589Y-120758059D01*
X149104183Y-120892818D01*
X149137956Y-120920535D01*
X150097469Y-121880049D01*
X150125182Y-121913817D01*
X150158950Y-121941530D01*
X150158952Y-121941532D01*
X150259940Y-122024411D01*
X150413685Y-122106589D01*
X150580509Y-122157195D01*
X150710522Y-122170000D01*
X150710530Y-122170000D01*
X150753999Y-122174281D01*
X150797468Y-122170000D01*
X152843421Y-122170000D01*
X151193422Y-123820000D01*
X151088363Y-123820000D01*
X150849764Y-123867460D01*
X150625008Y-123960557D01*
X150422733Y-124095713D01*
X150250713Y-124267733D01*
X150115557Y-124470008D01*
X150022460Y-124694764D01*
X149975000Y-124933363D01*
X149975000Y-125176637D01*
X150022460Y-125415236D01*
X150115557Y-125639992D01*
X150250713Y-125842267D01*
X150422733Y-126014287D01*
X150625008Y-126149443D01*
X150849764Y-126242540D01*
X151088363Y-126290000D01*
X151331637Y-126290000D01*
X151570236Y-126242540D01*
X151794992Y-126149443D01*
X151997267Y-126014287D01*
X152169287Y-125842267D01*
X152304443Y-125639992D01*
X152397540Y-125415236D01*
X152445000Y-125176637D01*
X152445000Y-125071578D01*
X154076579Y-123440000D01*
X155348446Y-123440000D01*
X155422733Y-123514287D01*
X155625008Y-123649443D01*
X155849764Y-123742540D01*
X156088363Y-123790000D01*
X156331637Y-123790000D01*
X156570236Y-123742540D01*
X156794992Y-123649443D01*
X156997267Y-123514287D01*
X157071554Y-123440000D01*
X160103531Y-123440000D01*
X160147000Y-123444281D01*
X160190469Y-123440000D01*
X160190477Y-123440000D01*
X160320490Y-123427195D01*
X160487313Y-123376589D01*
X160641059Y-123294411D01*
X160775817Y-123183817D01*
X160803534Y-123150044D01*
X161539913Y-122413665D01*
X162070000Y-122413665D01*
X162070000Y-122696335D01*
X162125147Y-122973574D01*
X162233320Y-123234727D01*
X162390363Y-123469759D01*
X162590241Y-123669637D01*
X162825273Y-123826680D01*
X163086426Y-123934853D01*
X163363665Y-123990000D01*
X163646335Y-123990000D01*
X163923574Y-123934853D01*
X164184727Y-123826680D01*
X164419759Y-123669637D01*
X164619637Y-123469759D01*
X164696316Y-123355000D01*
X165566928Y-123355000D01*
X165579188Y-123479482D01*
X165615498Y-123599180D01*
X165674463Y-123709494D01*
X165753815Y-123806185D01*
X165850506Y-123885537D01*
X165960820Y-123944502D01*
X166080518Y-123980812D01*
X166205000Y-123993072D01*
X166719250Y-123990000D01*
X166878000Y-123831250D01*
X166878000Y-122682000D01*
X167132000Y-122682000D01*
X167132000Y-123831250D01*
X167290750Y-123990000D01*
X167805000Y-123993072D01*
X167929482Y-123980812D01*
X168049180Y-123944502D01*
X168159494Y-123885537D01*
X168256185Y-123806185D01*
X168335537Y-123709494D01*
X168394502Y-123599180D01*
X168430812Y-123479482D01*
X168443072Y-123355000D01*
X173186928Y-123355000D01*
X173199188Y-123479482D01*
X173235498Y-123599180D01*
X173294463Y-123709494D01*
X173373815Y-123806185D01*
X173470506Y-123885537D01*
X173580820Y-123944502D01*
X173700518Y-123980812D01*
X173825000Y-123993072D01*
X174339250Y-123990000D01*
X174498000Y-123831250D01*
X174498000Y-122682000D01*
X174752000Y-122682000D01*
X174752000Y-123831250D01*
X174910750Y-123990000D01*
X175425000Y-123993072D01*
X175549482Y-123980812D01*
X175669180Y-123944502D01*
X175779494Y-123885537D01*
X175876185Y-123806185D01*
X175955537Y-123709494D01*
X176014502Y-123599180D01*
X176050812Y-123479482D01*
X176063072Y-123355000D01*
X176060000Y-122840750D01*
X175901250Y-122682000D01*
X174752000Y-122682000D01*
X174498000Y-122682000D01*
X173348750Y-122682000D01*
X173190000Y-122840750D01*
X173186928Y-123355000D01*
X168443072Y-123355000D01*
X168440000Y-122840750D01*
X168281250Y-122682000D01*
X167132000Y-122682000D01*
X166878000Y-122682000D01*
X165728750Y-122682000D01*
X165570000Y-122840750D01*
X165566928Y-123355000D01*
X164696316Y-123355000D01*
X164776680Y-123234727D01*
X164884853Y-122973574D01*
X164940000Y-122696335D01*
X164940000Y-122413665D01*
X164884853Y-122136426D01*
X164776680Y-121875273D01*
X164696317Y-121755000D01*
X165566928Y-121755000D01*
X165570000Y-122269250D01*
X165728750Y-122428000D01*
X166878000Y-122428000D01*
X166878000Y-121278750D01*
X167132000Y-121278750D01*
X167132000Y-122428000D01*
X168281250Y-122428000D01*
X168440000Y-122269250D01*
X168443072Y-121755000D01*
X173186928Y-121755000D01*
X173190000Y-122269250D01*
X173348750Y-122428000D01*
X174498000Y-122428000D01*
X174498000Y-121278750D01*
X174752000Y-121278750D01*
X174752000Y-122428000D01*
X175901250Y-122428000D01*
X175915585Y-122413665D01*
X176690000Y-122413665D01*
X176690000Y-122696335D01*
X176745147Y-122973574D01*
X176853320Y-123234727D01*
X177010363Y-123469759D01*
X177210241Y-123669637D01*
X177445273Y-123826680D01*
X177706426Y-123934853D01*
X177983665Y-123990000D01*
X178266335Y-123990000D01*
X178543574Y-123934853D01*
X178804727Y-123826680D01*
X179039759Y-123669637D01*
X179239637Y-123469759D01*
X179396680Y-123234727D01*
X179504853Y-122973574D01*
X179560000Y-122696335D01*
X179560000Y-122413665D01*
X179504853Y-122136426D01*
X179396680Y-121875273D01*
X179239637Y-121640241D01*
X179039759Y-121440363D01*
X178804727Y-121283320D01*
X178543574Y-121175147D01*
X178266335Y-121120000D01*
X177983665Y-121120000D01*
X177706426Y-121175147D01*
X177445273Y-121283320D01*
X177210241Y-121440363D01*
X177010363Y-121640241D01*
X176853320Y-121875273D01*
X176745147Y-122136426D01*
X176690000Y-122413665D01*
X175915585Y-122413665D01*
X176060000Y-122269250D01*
X176063072Y-121755000D01*
X176050812Y-121630518D01*
X176014502Y-121510820D01*
X175955537Y-121400506D01*
X175876185Y-121303815D01*
X175779494Y-121224463D01*
X175669180Y-121165498D01*
X175549482Y-121129188D01*
X175425000Y-121116928D01*
X174910750Y-121120000D01*
X174752000Y-121278750D01*
X174498000Y-121278750D01*
X174339250Y-121120000D01*
X173825000Y-121116928D01*
X173700518Y-121129188D01*
X173580820Y-121165498D01*
X173470506Y-121224463D01*
X173373815Y-121303815D01*
X173294463Y-121400506D01*
X173235498Y-121510820D01*
X173199188Y-121630518D01*
X173186928Y-121755000D01*
X168443072Y-121755000D01*
X168430812Y-121630518D01*
X168394502Y-121510820D01*
X168335537Y-121400506D01*
X168256185Y-121303815D01*
X168159494Y-121224463D01*
X168049180Y-121165498D01*
X167929482Y-121129188D01*
X167805000Y-121116928D01*
X167290750Y-121120000D01*
X167132000Y-121278750D01*
X166878000Y-121278750D01*
X166719250Y-121120000D01*
X166205000Y-121116928D01*
X166080518Y-121129188D01*
X165960820Y-121165498D01*
X165850506Y-121224463D01*
X165753815Y-121303815D01*
X165674463Y-121400506D01*
X165615498Y-121510820D01*
X165579188Y-121630518D01*
X165566928Y-121755000D01*
X164696317Y-121755000D01*
X164619637Y-121640241D01*
X164419759Y-121440363D01*
X164184727Y-121283320D01*
X163923574Y-121175147D01*
X163646335Y-121120000D01*
X163363665Y-121120000D01*
X163086426Y-121175147D01*
X162825273Y-121283320D01*
X162590241Y-121440363D01*
X162390363Y-121640241D01*
X162233320Y-121875273D01*
X162125147Y-122136426D01*
X162070000Y-122413665D01*
X161539913Y-122413665D01*
X162838578Y-121115000D01*
X187491928Y-121115000D01*
X187504188Y-121239482D01*
X187540498Y-121359180D01*
X187599463Y-121469494D01*
X187678815Y-121566185D01*
X187775506Y-121645537D01*
X187885820Y-121704502D01*
X188005518Y-121740812D01*
X188130000Y-121753072D01*
X188944250Y-121750000D01*
X189103000Y-121591250D01*
X189103000Y-120142000D01*
X189357000Y-120142000D01*
X189357000Y-121591250D01*
X189515750Y-121750000D01*
X190330000Y-121753072D01*
X190454482Y-121740812D01*
X190574180Y-121704502D01*
X190684494Y-121645537D01*
X190781185Y-121566185D01*
X190860537Y-121469494D01*
X190919502Y-121359180D01*
X190955812Y-121239482D01*
X190968072Y-121115000D01*
X190965000Y-120300750D01*
X190806250Y-120142000D01*
X189357000Y-120142000D01*
X189103000Y-120142000D01*
X187653750Y-120142000D01*
X187495000Y-120300750D01*
X187491928Y-121115000D01*
X162838578Y-121115000D01*
X165038578Y-118915000D01*
X187491928Y-118915000D01*
X187495000Y-119729250D01*
X187653750Y-119888000D01*
X189103000Y-119888000D01*
X189103000Y-118438750D01*
X189357000Y-118438750D01*
X189357000Y-119888000D01*
X190806250Y-119888000D01*
X190850133Y-119844117D01*
X191305000Y-119844117D01*
X191305000Y-120185883D01*
X191371675Y-120521081D01*
X191502463Y-120836831D01*
X191692337Y-121120998D01*
X191934002Y-121362663D01*
X192218169Y-121552537D01*
X192533919Y-121683325D01*
X192869117Y-121750000D01*
X193210883Y-121750000D01*
X193546081Y-121683325D01*
X193861831Y-121552537D01*
X194145998Y-121362663D01*
X194387663Y-121120998D01*
X194577537Y-120836831D01*
X194708325Y-120521081D01*
X194775000Y-120185883D01*
X194775000Y-119844117D01*
X194708325Y-119508919D01*
X194577537Y-119193169D01*
X194387663Y-118909002D01*
X194145998Y-118667337D01*
X193861831Y-118477463D01*
X193546081Y-118346675D01*
X193210883Y-118280000D01*
X192869117Y-118280000D01*
X192533919Y-118346675D01*
X192218169Y-118477463D01*
X191934002Y-118667337D01*
X191692337Y-118909002D01*
X191502463Y-119193169D01*
X191371675Y-119508919D01*
X191305000Y-119844117D01*
X190850133Y-119844117D01*
X190965000Y-119729250D01*
X190968072Y-118915000D01*
X190955812Y-118790518D01*
X190919502Y-118670820D01*
X190860537Y-118560506D01*
X190781185Y-118463815D01*
X190684494Y-118384463D01*
X190574180Y-118325498D01*
X190454482Y-118289188D01*
X190330000Y-118276928D01*
X189515750Y-118280000D01*
X189357000Y-118438750D01*
X189103000Y-118438750D01*
X188944250Y-118280000D01*
X188130000Y-118276928D01*
X188005518Y-118289188D01*
X187885820Y-118325498D01*
X187775506Y-118384463D01*
X187678815Y-118463815D01*
X187599463Y-118560506D01*
X187540498Y-118670820D01*
X187504188Y-118790518D01*
X187491928Y-118915000D01*
X165038578Y-118915000D01*
X169759049Y-114194530D01*
X169792817Y-114166817D01*
X169820831Y-114132683D01*
X169903411Y-114032059D01*
X169985589Y-113878314D01*
X170033860Y-113719187D01*
X170087905Y-113755299D01*
X170367257Y-113871011D01*
X170663816Y-113930000D01*
X170966184Y-113930000D01*
X171262743Y-113871011D01*
X171542095Y-113755299D01*
X171793505Y-113587312D01*
X172007312Y-113373505D01*
X172175299Y-113122095D01*
X172291011Y-112842743D01*
X172307521Y-112759740D01*
X172723964Y-112759740D01*
X172772606Y-112920107D01*
X172902764Y-113191414D01*
X173083351Y-113432116D01*
X173307427Y-113632962D01*
X173566380Y-113786234D01*
X173850259Y-113886041D01*
X174088000Y-113765992D01*
X174088000Y-112522000D01*
X174342000Y-112522000D01*
X174342000Y-113765992D01*
X174579741Y-113886041D01*
X174863620Y-113786234D01*
X175122573Y-113632962D01*
X175346649Y-113432116D01*
X175527236Y-113191414D01*
X175605735Y-113027787D01*
X180340000Y-113027787D01*
X180340000Y-113522213D01*
X180436458Y-114007140D01*
X180625667Y-114463931D01*
X180900356Y-114875032D01*
X181249968Y-115224644D01*
X181661069Y-115499333D01*
X182117860Y-115688542D01*
X182602787Y-115785000D01*
X183097213Y-115785000D01*
X183582140Y-115688542D01*
X184038931Y-115499333D01*
X184450032Y-115224644D01*
X184799644Y-114875032D01*
X185074333Y-114463931D01*
X185263542Y-114007140D01*
X185360000Y-113522213D01*
X185360000Y-113027787D01*
X185263542Y-112542860D01*
X185074333Y-112086069D01*
X184799644Y-111674968D01*
X184450032Y-111325356D01*
X184038931Y-111050667D01*
X183582140Y-110861458D01*
X183097213Y-110765000D01*
X182602787Y-110765000D01*
X182117860Y-110861458D01*
X181661069Y-111050667D01*
X181249968Y-111325356D01*
X180900356Y-111674968D01*
X180625667Y-112086069D01*
X180436458Y-112542860D01*
X180340000Y-113027787D01*
X175605735Y-113027787D01*
X175657394Y-112920107D01*
X175706036Y-112759740D01*
X175585378Y-112522000D01*
X174342000Y-112522000D01*
X174088000Y-112522000D01*
X172844622Y-112522000D01*
X172723964Y-112759740D01*
X172307521Y-112759740D01*
X172350000Y-112546184D01*
X172350000Y-112243816D01*
X172307522Y-112030260D01*
X172723964Y-112030260D01*
X172844622Y-112268000D01*
X174088000Y-112268000D01*
X174088000Y-111024008D01*
X174342000Y-111024008D01*
X174342000Y-112268000D01*
X175585378Y-112268000D01*
X175706036Y-112030260D01*
X175657394Y-111869893D01*
X175527236Y-111598586D01*
X175346649Y-111357884D01*
X175122573Y-111157038D01*
X174863620Y-111003766D01*
X174579741Y-110903959D01*
X174342000Y-111024008D01*
X174088000Y-111024008D01*
X173850259Y-110903959D01*
X173566380Y-111003766D01*
X173307427Y-111157038D01*
X173083351Y-111357884D01*
X172902764Y-111598586D01*
X172772606Y-111869893D01*
X172723964Y-112030260D01*
X172307522Y-112030260D01*
X172291011Y-111947257D01*
X172175299Y-111667905D01*
X172007312Y-111416495D01*
X171793505Y-111202688D01*
X171542095Y-111034701D01*
X171460624Y-111000954D01*
X172164371Y-110297208D01*
X172194484Y-110306343D01*
X172434678Y-110330000D01*
X187392761Y-110330000D01*
X187659138Y-110596377D01*
X187692463Y-110676831D01*
X187882337Y-110960998D01*
X188124002Y-111202663D01*
X188408169Y-111392537D01*
X188723919Y-111523325D01*
X189059117Y-111590000D01*
X189400883Y-111590000D01*
X189736081Y-111523325D01*
X189816535Y-111490000D01*
X191593856Y-111490000D01*
X191695820Y-111544502D01*
X191815518Y-111580812D01*
X191940000Y-111593072D01*
X194140000Y-111593072D01*
X194264482Y-111580812D01*
X194384180Y-111544502D01*
X194494494Y-111485537D01*
X194591185Y-111406185D01*
X194670537Y-111309494D01*
X194729502Y-111199180D01*
X194765812Y-111079482D01*
X194778072Y-110955000D01*
X194778072Y-108755000D01*
X194765812Y-108630518D01*
X194729502Y-108510820D01*
X194675000Y-108408856D01*
X194675000Y-105490319D01*
X194682911Y-105409999D01*
X194670405Y-105283026D01*
X194651343Y-105089484D01*
X194557852Y-104781285D01*
X194406031Y-104497248D01*
X194201714Y-104248286D01*
X194139318Y-104197079D01*
X193905000Y-103962761D01*
X193905000Y-103929721D01*
X193822953Y-103517244D01*
X193662012Y-103128698D01*
X193428363Y-102779017D01*
X193130983Y-102481637D01*
X192781302Y-102247988D01*
X192392756Y-102087047D01*
X191980279Y-102005000D01*
X191559721Y-102005000D01*
X191147244Y-102087047D01*
X190758698Y-102247988D01*
X190409017Y-102481637D01*
X190111637Y-102779017D01*
X189877988Y-103128698D01*
X189717047Y-103517244D01*
X189635000Y-103929721D01*
X189635000Y-104350279D01*
X189717047Y-104762756D01*
X189877988Y-105151302D01*
X190111637Y-105500983D01*
X190409017Y-105798363D01*
X190758698Y-106032012D01*
X191147244Y-106192953D01*
X191405001Y-106244224D01*
X191405000Y-108220000D01*
X189907239Y-108220000D01*
X189282924Y-107595686D01*
X189231714Y-107533286D01*
X188982752Y-107328969D01*
X188698715Y-107177148D01*
X188390516Y-107083657D01*
X188150322Y-107060000D01*
X188150319Y-107060000D01*
X188070000Y-107052089D01*
X187989681Y-107060000D01*
X180185424Y-107060000D01*
X180583274Y-106895206D01*
X180975130Y-106633376D01*
X181308376Y-106300130D01*
X181570206Y-105908274D01*
X181750557Y-105472866D01*
X181842500Y-105010641D01*
X181842500Y-104539359D01*
X181750557Y-104077134D01*
X181570206Y-103641726D01*
X181308376Y-103249870D01*
X180975130Y-102916624D01*
X180583274Y-102654794D01*
X180147866Y-102474443D01*
X179685641Y-102382500D01*
X179214359Y-102382500D01*
X178752134Y-102474443D01*
X178316726Y-102654794D01*
X177924870Y-102916624D01*
X177591624Y-103249870D01*
X177329794Y-103641726D01*
X177149443Y-104077134D01*
X177057500Y-104539359D01*
X177057500Y-105010641D01*
X177149443Y-105472866D01*
X177329794Y-105908274D01*
X177591624Y-106300130D01*
X177924870Y-106633376D01*
X178316726Y-106895206D01*
X178714576Y-107060000D01*
X172434678Y-107060000D01*
X172194484Y-107083657D01*
X171886285Y-107177148D01*
X171882301Y-107179278D01*
X175220049Y-103841530D01*
X175253817Y-103813817D01*
X175285089Y-103775713D01*
X175364411Y-103679059D01*
X175384366Y-103641726D01*
X175446589Y-103525313D01*
X175497195Y-103358490D01*
X175510000Y-103228477D01*
X175510000Y-103228469D01*
X175514281Y-103185000D01*
X175510000Y-103141531D01*
X175510000Y-100829521D01*
X175539759Y-100809637D01*
X175739637Y-100609759D01*
X175896680Y-100374727D01*
X176004853Y-100113574D01*
X176060000Y-99836335D01*
X176060000Y-99553665D01*
X176004853Y-99276426D01*
X175896680Y-99015273D01*
X175739637Y-98780241D01*
X175539759Y-98580363D01*
X175304727Y-98423320D01*
X175043574Y-98315147D01*
X174766335Y-98260000D01*
X174483665Y-98260000D01*
X174206426Y-98315147D01*
X173945273Y-98423320D01*
X173710241Y-98580363D01*
X173510363Y-98780241D01*
X173353320Y-99015273D01*
X173245147Y-99276426D01*
X173190000Y-99553665D01*
X173190000Y-99836335D01*
X173245147Y-100113574D01*
X173353320Y-100374727D01*
X173510363Y-100609759D01*
X173710241Y-100809637D01*
X173740000Y-100829522D01*
X173740001Y-102818420D01*
X169376482Y-107181940D01*
X169266184Y-107160000D01*
X168963816Y-107160000D01*
X168667257Y-107218989D01*
X168387905Y-107334701D01*
X168136495Y-107502688D01*
X167922688Y-107716495D01*
X167860210Y-107810000D01*
X167065466Y-107810000D01*
X167021999Y-107805719D01*
X166978533Y-107810000D01*
X166978523Y-107810000D01*
X166848510Y-107822805D01*
X166681687Y-107873411D01*
X166527941Y-107955589D01*
X166527939Y-107955590D01*
X166527940Y-107955590D01*
X166426953Y-108038468D01*
X166426951Y-108038470D01*
X166393183Y-108066183D01*
X166365470Y-108099951D01*
X161260000Y-113205421D01*
X161260000Y-113027787D01*
X161163542Y-112542860D01*
X160974333Y-112086069D01*
X160699644Y-111674968D01*
X160350032Y-111325356D01*
X159938931Y-111050667D01*
X159482140Y-110861458D01*
X158997213Y-110765000D01*
X158502787Y-110765000D01*
X158017860Y-110861458D01*
X157561069Y-111050667D01*
X157149968Y-111325356D01*
X156800356Y-111674968D01*
X156525667Y-112086069D01*
X156336458Y-112542860D01*
X156240000Y-113027787D01*
X156240000Y-113522213D01*
X156336458Y-114007140D01*
X156525667Y-114463931D01*
X156800356Y-114875032D01*
X157149968Y-115224644D01*
X157561069Y-115499333D01*
X158017860Y-115688542D01*
X158502787Y-115785000D01*
X158680422Y-115785000D01*
X155295422Y-119170000D01*
X152071554Y-119170000D01*
X151997267Y-119095713D01*
X151794992Y-118960557D01*
X151570236Y-118867460D01*
X151331637Y-118820000D01*
X151088363Y-118820000D01*
X150849764Y-118867460D01*
X150625008Y-118960557D01*
X150618000Y-118965240D01*
X150618000Y-116698578D01*
X152858561Y-114458017D01*
X152893665Y-114465000D01*
X153176335Y-114465000D01*
X153453574Y-114409853D01*
X153714727Y-114301680D01*
X153949759Y-114144637D01*
X154149637Y-113944759D01*
X154306680Y-113709727D01*
X154414853Y-113448574D01*
X154470000Y-113171335D01*
X154470000Y-112888665D01*
X154414853Y-112611426D01*
X154306680Y-112350273D01*
X154149637Y-112115241D01*
X153949759Y-111915363D01*
X153714727Y-111758320D01*
X153453574Y-111650147D01*
X153176335Y-111595000D01*
X152893665Y-111595000D01*
X152616426Y-111650147D01*
X152355273Y-111758320D01*
X152120241Y-111915363D01*
X151920363Y-112115241D01*
X151763320Y-112350273D01*
X151655147Y-112611426D01*
X151600000Y-112888665D01*
X151600000Y-113171335D01*
X151606983Y-113206439D01*
X149137951Y-115675471D01*
X149104184Y-115703183D01*
X149076471Y-115736951D01*
X149076468Y-115736954D01*
X148993590Y-115837941D01*
X148911412Y-115991687D01*
X148860805Y-116158510D01*
X148843719Y-116332000D01*
X141078578Y-116332000D01*
X139556505Y-114809927D01*
X139632448Y-114786890D01*
X139760051Y-114718684D01*
X139871896Y-114626896D01*
X139963684Y-114515051D01*
X140031890Y-114387448D01*
X140073890Y-114248991D01*
X140088072Y-114105000D01*
X140088072Y-114078665D01*
X144615000Y-114078665D01*
X144615000Y-114361335D01*
X144670147Y-114638574D01*
X144778320Y-114899727D01*
X144935363Y-115134759D01*
X145135241Y-115334637D01*
X145370273Y-115491680D01*
X145631426Y-115599853D01*
X145908665Y-115655000D01*
X146191335Y-115655000D01*
X146468574Y-115599853D01*
X146729727Y-115491680D01*
X146964759Y-115334637D01*
X147164637Y-115134759D01*
X147321680Y-114899727D01*
X147429853Y-114638574D01*
X147485000Y-114361335D01*
X147485000Y-114078665D01*
X147429853Y-113801426D01*
X147321680Y-113540273D01*
X147164637Y-113305241D01*
X146964759Y-113105363D01*
X146729727Y-112948320D01*
X146468574Y-112840147D01*
X146191335Y-112785000D01*
X145908665Y-112785000D01*
X145631426Y-112840147D01*
X145370273Y-112948320D01*
X145135241Y-113105363D01*
X144935363Y-113305241D01*
X144778320Y-113540273D01*
X144670147Y-113801426D01*
X144615000Y-114078665D01*
X140088072Y-114078665D01*
X140088072Y-113905000D01*
X140073890Y-113761009D01*
X140049316Y-113680000D01*
X140073890Y-113598991D01*
X140086606Y-113469887D01*
X140192687Y-113526588D01*
X140359510Y-113577195D01*
X140533000Y-113594281D01*
X140706490Y-113577195D01*
X140873313Y-113526588D01*
X141027059Y-113444410D01*
X141128046Y-113361532D01*
X143470050Y-111019529D01*
X143503817Y-110991817D01*
X143534033Y-110955000D01*
X143614410Y-110857060D01*
X143614411Y-110857059D01*
X143696589Y-110703313D01*
X143747195Y-110536490D01*
X143760000Y-110406477D01*
X143760000Y-110406467D01*
X143764281Y-110363001D01*
X143763233Y-110352361D01*
X143789759Y-110334637D01*
X143989637Y-110134759D01*
X144009521Y-110105000D01*
X144915479Y-110105000D01*
X144935363Y-110134759D01*
X145135241Y-110334637D01*
X145370273Y-110491680D01*
X145631426Y-110599853D01*
X145908665Y-110655000D01*
X146191335Y-110655000D01*
X146468574Y-110599853D01*
X146729727Y-110491680D01*
X146964759Y-110334637D01*
X147164637Y-110134759D01*
X147184521Y-110105000D01*
X149181531Y-110105000D01*
X149225000Y-110109281D01*
X149268469Y-110105000D01*
X149268477Y-110105000D01*
X149398490Y-110092195D01*
X149565313Y-110041589D01*
X149719059Y-109959411D01*
X149853817Y-109848817D01*
X149881534Y-109815044D01*
X152858561Y-106838017D01*
X152893665Y-106845000D01*
X153176335Y-106845000D01*
X153453574Y-106789853D01*
X153714727Y-106681680D01*
X153949759Y-106524637D01*
X154149637Y-106324759D01*
X154306680Y-106089727D01*
X154414853Y-105828574D01*
X154470000Y-105551335D01*
X154470000Y-105268665D01*
X154414853Y-104991426D01*
X154306680Y-104730273D01*
X154179116Y-104539359D01*
X159757500Y-104539359D01*
X159757500Y-105010641D01*
X159849443Y-105472866D01*
X160029794Y-105908274D01*
X160291624Y-106300130D01*
X160624870Y-106633376D01*
X161016726Y-106895206D01*
X161452134Y-107075557D01*
X161914359Y-107167500D01*
X162385641Y-107167500D01*
X162847866Y-107075557D01*
X163283274Y-106895206D01*
X163675130Y-106633376D01*
X164008376Y-106300130D01*
X164270206Y-105908274D01*
X164450557Y-105472866D01*
X164542500Y-105010641D01*
X164542500Y-104539359D01*
X164450557Y-104077134D01*
X164270206Y-103641726D01*
X164008376Y-103249870D01*
X163675130Y-102916624D01*
X163283274Y-102654794D01*
X162847866Y-102474443D01*
X162385641Y-102382500D01*
X161914359Y-102382500D01*
X161452134Y-102474443D01*
X161016726Y-102654794D01*
X160624870Y-102916624D01*
X160291624Y-103249870D01*
X160029794Y-103641726D01*
X159849443Y-104077134D01*
X159757500Y-104539359D01*
X154179116Y-104539359D01*
X154149637Y-104495241D01*
X153949759Y-104295363D01*
X153920000Y-104275479D01*
X153920000Y-96384521D01*
X153949759Y-96364637D01*
X154149637Y-96164759D01*
X154306680Y-95929727D01*
X154414853Y-95668574D01*
X154470000Y-95391335D01*
X154470000Y-95108665D01*
X154414853Y-94831426D01*
X154306680Y-94570273D01*
X154149637Y-94335241D01*
X153949759Y-94135363D01*
X153829485Y-94054999D01*
X156693427Y-94054999D01*
X156525667Y-94306069D01*
X156336458Y-94762860D01*
X156240000Y-95247787D01*
X156240000Y-95742213D01*
X156336458Y-96227140D01*
X156525667Y-96683931D01*
X156800356Y-97095032D01*
X157149968Y-97444644D01*
X157561069Y-97719333D01*
X158017860Y-97908542D01*
X158502787Y-98005000D01*
X158997213Y-98005000D01*
X159482140Y-97908542D01*
X159938931Y-97719333D01*
X160350032Y-97444644D01*
X160699644Y-97095032D01*
X160974333Y-96683931D01*
X161163542Y-96227140D01*
X161260000Y-95742213D01*
X161260000Y-95247787D01*
X161163542Y-94762860D01*
X160974333Y-94306069D01*
X160806573Y-94054999D01*
X165603421Y-94054999D01*
X165876928Y-94328506D01*
X165876928Y-95515000D01*
X165889188Y-95639482D01*
X165925498Y-95759180D01*
X165984463Y-95869494D01*
X166063815Y-95966185D01*
X166120001Y-96012295D01*
X166120000Y-98560479D01*
X166090241Y-98580363D01*
X165890363Y-98780241D01*
X165733320Y-99015273D01*
X165625147Y-99276426D01*
X165570000Y-99553665D01*
X165570000Y-99836335D01*
X165625147Y-100113574D01*
X165733320Y-100374727D01*
X165890363Y-100609759D01*
X166090241Y-100809637D01*
X166325273Y-100966680D01*
X166586426Y-101074853D01*
X166863665Y-101130000D01*
X167146335Y-101130000D01*
X167423574Y-101074853D01*
X167684727Y-100966680D01*
X167919759Y-100809637D01*
X168119637Y-100609759D01*
X168276680Y-100374727D01*
X168384853Y-100113574D01*
X168440000Y-99836335D01*
X168440000Y-99553665D01*
X168384853Y-99276426D01*
X168276680Y-99015273D01*
X168119637Y-98780241D01*
X167919759Y-98580363D01*
X167890000Y-98560479D01*
X167890000Y-96153072D01*
X168315000Y-96153072D01*
X168439482Y-96140812D01*
X168559180Y-96104502D01*
X168669494Y-96045537D01*
X168766185Y-95966185D01*
X168845537Y-95869494D01*
X168904502Y-95759180D01*
X168940812Y-95639482D01*
X168953072Y-95515000D01*
X168953072Y-94463816D01*
X169280000Y-94463816D01*
X169280000Y-94766184D01*
X169338989Y-95062743D01*
X169454701Y-95342095D01*
X169622688Y-95593505D01*
X169836495Y-95807312D01*
X170087905Y-95975299D01*
X170367257Y-96091011D01*
X170663816Y-96150000D01*
X170966184Y-96150000D01*
X171262743Y-96091011D01*
X171542095Y-95975299D01*
X171793505Y-95807312D01*
X172007312Y-95593505D01*
X172175299Y-95342095D01*
X172291011Y-95062743D01*
X172307521Y-94979740D01*
X172723964Y-94979740D01*
X172772606Y-95140107D01*
X172902764Y-95411414D01*
X173083351Y-95652116D01*
X173307427Y-95852962D01*
X173566380Y-96006234D01*
X173850259Y-96106041D01*
X174088000Y-95985992D01*
X174088000Y-94742000D01*
X174342000Y-94742000D01*
X174342000Y-95985992D01*
X174579741Y-96106041D01*
X174863620Y-96006234D01*
X175122573Y-95852962D01*
X175346649Y-95652116D01*
X175527236Y-95411414D01*
X175605735Y-95247787D01*
X180340000Y-95247787D01*
X180340000Y-95742213D01*
X180436458Y-96227140D01*
X180625667Y-96683931D01*
X180900356Y-97095032D01*
X181249968Y-97444644D01*
X181661069Y-97719333D01*
X182117860Y-97908542D01*
X182602787Y-98005000D01*
X183097213Y-98005000D01*
X183582140Y-97908542D01*
X184038931Y-97719333D01*
X184450032Y-97444644D01*
X184799644Y-97095032D01*
X185074333Y-96683931D01*
X185263542Y-96227140D01*
X185360000Y-95742213D01*
X185360000Y-95247787D01*
X185263542Y-94762860D01*
X185074333Y-94306069D01*
X184799644Y-93894968D01*
X184450032Y-93545356D01*
X184038931Y-93270667D01*
X183582140Y-93081458D01*
X183097213Y-92985000D01*
X182602787Y-92985000D01*
X182117860Y-93081458D01*
X181661069Y-93270667D01*
X181249968Y-93545356D01*
X180900356Y-93894968D01*
X180625667Y-94306069D01*
X180436458Y-94762860D01*
X180340000Y-95247787D01*
X175605735Y-95247787D01*
X175657394Y-95140107D01*
X175706036Y-94979740D01*
X175585378Y-94742000D01*
X174342000Y-94742000D01*
X174088000Y-94742000D01*
X172844622Y-94742000D01*
X172723964Y-94979740D01*
X172307521Y-94979740D01*
X172350000Y-94766184D01*
X172350000Y-94463816D01*
X172307522Y-94250260D01*
X172723964Y-94250260D01*
X172844622Y-94488000D01*
X174088000Y-94488000D01*
X174088000Y-93244008D01*
X174342000Y-93244008D01*
X174342000Y-94488000D01*
X175585378Y-94488000D01*
X175706036Y-94250260D01*
X175657394Y-94089893D01*
X175527236Y-93818586D01*
X175346649Y-93577884D01*
X175122573Y-93377038D01*
X174863620Y-93223766D01*
X174579741Y-93123959D01*
X174342000Y-93244008D01*
X174088000Y-93244008D01*
X173850259Y-93123959D01*
X173566380Y-93223766D01*
X173307427Y-93377038D01*
X173083351Y-93577884D01*
X172902764Y-93818586D01*
X172772606Y-94089893D01*
X172723964Y-94250260D01*
X172307522Y-94250260D01*
X172291011Y-94167257D01*
X172175299Y-93887905D01*
X172007312Y-93636495D01*
X171793505Y-93422688D01*
X171542095Y-93254701D01*
X171262743Y-93138989D01*
X170966184Y-93080000D01*
X170663816Y-93080000D01*
X170367257Y-93138989D01*
X170087905Y-93254701D01*
X169836495Y-93422688D01*
X169622688Y-93636495D01*
X169454701Y-93887905D01*
X169338989Y-94167257D01*
X169280000Y-94463816D01*
X168953072Y-94463816D01*
X168953072Y-93715000D01*
X168940812Y-93590518D01*
X168904502Y-93470820D01*
X168845537Y-93360506D01*
X168766185Y-93263815D01*
X168669494Y-93184463D01*
X168559180Y-93125498D01*
X168439482Y-93089188D01*
X168315000Y-93076928D01*
X167128506Y-93076928D01*
X166626533Y-92574955D01*
X166598816Y-92541182D01*
X166464058Y-92430588D01*
X166310312Y-92348410D01*
X166143489Y-92297804D01*
X166013476Y-92284999D01*
X166013468Y-92284999D01*
X165969999Y-92280718D01*
X165926530Y-92284999D01*
X153308468Y-92284999D01*
X153264999Y-92280718D01*
X153221530Y-92284999D01*
X153221522Y-92284999D01*
X153091509Y-92297804D01*
X152924685Y-92348410D01*
X152770940Y-92430588D01*
X152669952Y-92513467D01*
X152669950Y-92513469D01*
X152636182Y-92541182D01*
X152608469Y-92574950D01*
X150749000Y-94434419D01*
X150749000Y-87488665D01*
X151600000Y-87488665D01*
X151600000Y-87771335D01*
X151655147Y-88048574D01*
X151763320Y-88309727D01*
X151920363Y-88544759D01*
X152120241Y-88744637D01*
X152355273Y-88901680D01*
X152616426Y-89009853D01*
X152893665Y-89065000D01*
X153176335Y-89065000D01*
X153211439Y-89058017D01*
X155663470Y-91510049D01*
X155691183Y-91543817D01*
X155724951Y-91571530D01*
X155724953Y-91571532D01*
X155825941Y-91654411D01*
X155979686Y-91736589D01*
X156131867Y-91782753D01*
X156146510Y-91787195D01*
X156276523Y-91800000D01*
X156276531Y-91800000D01*
X156320000Y-91804281D01*
X156363469Y-91800000D01*
X167860210Y-91800000D01*
X167922688Y-91893505D01*
X168136495Y-92107312D01*
X168387905Y-92275299D01*
X168667257Y-92391011D01*
X168963816Y-92450000D01*
X169266184Y-92450000D01*
X169562743Y-92391011D01*
X169842095Y-92275299D01*
X170093505Y-92107312D01*
X170307312Y-91893505D01*
X170369790Y-91800000D01*
X171134135Y-91800000D01*
X171148969Y-91827752D01*
X171353286Y-92076714D01*
X171602248Y-92281031D01*
X171886285Y-92432852D01*
X172194484Y-92526343D01*
X172434678Y-92550000D01*
X187392761Y-92550000D01*
X187659138Y-92816377D01*
X187692463Y-92896831D01*
X187882337Y-93180998D01*
X188124002Y-93422663D01*
X188408169Y-93612537D01*
X188723919Y-93743325D01*
X189059117Y-93810000D01*
X189400883Y-93810000D01*
X189736081Y-93743325D01*
X189816535Y-93710000D01*
X191405000Y-93710000D01*
X191405001Y-96921928D01*
X190270000Y-96921928D01*
X190145518Y-96934188D01*
X190025820Y-96970498D01*
X189915506Y-97029463D01*
X189818815Y-97108815D01*
X189739463Y-97205506D01*
X189680498Y-97315820D01*
X189644188Y-97435518D01*
X189631928Y-97560000D01*
X189631928Y-100560000D01*
X189644188Y-100684482D01*
X189680498Y-100804180D01*
X189739463Y-100914494D01*
X189818815Y-101011185D01*
X189915506Y-101090537D01*
X190025820Y-101149502D01*
X190145518Y-101185812D01*
X190270000Y-101198072D01*
X193270000Y-101198072D01*
X193394482Y-101185812D01*
X193514180Y-101149502D01*
X193624494Y-101090537D01*
X193721185Y-101011185D01*
X193800537Y-100914494D01*
X193859502Y-100804180D01*
X193895812Y-100684482D01*
X193908072Y-100560000D01*
X193908072Y-99234167D01*
X194139318Y-99002921D01*
X194201714Y-98951714D01*
X194406031Y-98702752D01*
X194557852Y-98418715D01*
X194651343Y-98110516D01*
X194675000Y-97870322D01*
X194675000Y-97870320D01*
X194682911Y-97790001D01*
X194675000Y-97709681D01*
X194675000Y-93521144D01*
X194729502Y-93419180D01*
X194765812Y-93299482D01*
X194778072Y-93175000D01*
X194778072Y-90975000D01*
X194765812Y-90850518D01*
X194729502Y-90730820D01*
X194670537Y-90620506D01*
X194591185Y-90523815D01*
X194494494Y-90444463D01*
X194384180Y-90385498D01*
X194264482Y-90349188D01*
X194140000Y-90336928D01*
X191940000Y-90336928D01*
X191815518Y-90349188D01*
X191695820Y-90385498D01*
X191593856Y-90440000D01*
X189907239Y-90440000D01*
X189282924Y-89815686D01*
X189231714Y-89753286D01*
X188982752Y-89548969D01*
X188698715Y-89397148D01*
X188390516Y-89303657D01*
X188150322Y-89280000D01*
X188150319Y-89280000D01*
X188070000Y-89272089D01*
X187989681Y-89280000D01*
X180185424Y-89280000D01*
X180583274Y-89115206D01*
X180975130Y-88853376D01*
X181308376Y-88520130D01*
X181570206Y-88128274D01*
X181750557Y-87692866D01*
X181842500Y-87230641D01*
X181842500Y-86759359D01*
X181750557Y-86297134D01*
X181570206Y-85861726D01*
X181308376Y-85469870D01*
X180975130Y-85136624D01*
X180583274Y-84874794D01*
X180147866Y-84694443D01*
X179685641Y-84602500D01*
X179214359Y-84602500D01*
X178752134Y-84694443D01*
X178316726Y-84874794D01*
X177924870Y-85136624D01*
X177591624Y-85469870D01*
X177329794Y-85861726D01*
X177149443Y-86297134D01*
X177057500Y-86759359D01*
X177057500Y-87230641D01*
X177149443Y-87692866D01*
X177329794Y-88128274D01*
X177591624Y-88520130D01*
X177924870Y-88853376D01*
X178316726Y-89115206D01*
X178714576Y-89280000D01*
X172434678Y-89280000D01*
X172194484Y-89303657D01*
X171886285Y-89397148D01*
X171602248Y-89548969D01*
X171353286Y-89753286D01*
X171148969Y-90002248D01*
X171134135Y-90030000D01*
X170369790Y-90030000D01*
X170307312Y-89936495D01*
X170093505Y-89722688D01*
X169842095Y-89554701D01*
X169562743Y-89438989D01*
X169266184Y-89380000D01*
X168963816Y-89380000D01*
X168667257Y-89438989D01*
X168387905Y-89554701D01*
X168136495Y-89722688D01*
X167922688Y-89936495D01*
X167860210Y-90030000D01*
X156686579Y-90030000D01*
X154463017Y-87806439D01*
X154470000Y-87771335D01*
X154470000Y-87488665D01*
X154414853Y-87211426D01*
X154306680Y-86950273D01*
X154179116Y-86759359D01*
X159757500Y-86759359D01*
X159757500Y-87230641D01*
X159849443Y-87692866D01*
X160029794Y-88128274D01*
X160291624Y-88520130D01*
X160624870Y-88853376D01*
X161016726Y-89115206D01*
X161452134Y-89295557D01*
X161914359Y-89387500D01*
X162385641Y-89387500D01*
X162847866Y-89295557D01*
X163283274Y-89115206D01*
X163675130Y-88853376D01*
X164008376Y-88520130D01*
X164270206Y-88128274D01*
X164450557Y-87692866D01*
X164542500Y-87230641D01*
X164542500Y-86759359D01*
X164450557Y-86297134D01*
X164270206Y-85861726D01*
X164008376Y-85469870D01*
X163675130Y-85136624D01*
X163283274Y-84874794D01*
X162847866Y-84694443D01*
X162385641Y-84602500D01*
X161914359Y-84602500D01*
X161452134Y-84694443D01*
X161016726Y-84874794D01*
X160624870Y-85136624D01*
X160291624Y-85469870D01*
X160029794Y-85861726D01*
X159849443Y-86297134D01*
X159757500Y-86759359D01*
X154179116Y-86759359D01*
X154149637Y-86715241D01*
X153949759Y-86515363D01*
X153714727Y-86358320D01*
X153453574Y-86250147D01*
X153176335Y-86195000D01*
X152893665Y-86195000D01*
X152616426Y-86250147D01*
X152355273Y-86358320D01*
X152120241Y-86515363D01*
X151920363Y-86715241D01*
X151763320Y-86950273D01*
X151655147Y-87211426D01*
X151600000Y-87488665D01*
X150749000Y-87488665D01*
X150749000Y-83822854D01*
X150749281Y-83820001D01*
X150749000Y-83817148D01*
X150749000Y-83015000D01*
X187491928Y-83015000D01*
X187504188Y-83139482D01*
X187540498Y-83259180D01*
X187599463Y-83369494D01*
X187678815Y-83466185D01*
X187775506Y-83545537D01*
X187885820Y-83604502D01*
X188005518Y-83640812D01*
X188130000Y-83653072D01*
X188944250Y-83650000D01*
X189103000Y-83491250D01*
X189103000Y-82042000D01*
X189357000Y-82042000D01*
X189357000Y-83491250D01*
X189515750Y-83650000D01*
X190330000Y-83653072D01*
X190454482Y-83640812D01*
X190574180Y-83604502D01*
X190684494Y-83545537D01*
X190781185Y-83466185D01*
X190860537Y-83369494D01*
X190919502Y-83259180D01*
X190955812Y-83139482D01*
X190968072Y-83015000D01*
X190965000Y-82200750D01*
X190806250Y-82042000D01*
X189357000Y-82042000D01*
X189103000Y-82042000D01*
X187653750Y-82042000D01*
X187495000Y-82200750D01*
X187491928Y-83015000D01*
X150749000Y-83015000D01*
X150749000Y-80815000D01*
X187491928Y-80815000D01*
X187495000Y-81629250D01*
X187653750Y-81788000D01*
X189103000Y-81788000D01*
X189103000Y-80338750D01*
X189357000Y-80338750D01*
X189357000Y-81788000D01*
X190806250Y-81788000D01*
X190850133Y-81744117D01*
X191305000Y-81744117D01*
X191305000Y-82085883D01*
X191371675Y-82421081D01*
X191502463Y-82736831D01*
X191692337Y-83020998D01*
X191934002Y-83262663D01*
X192218169Y-83452537D01*
X192533919Y-83583325D01*
X192869117Y-83650000D01*
X193210883Y-83650000D01*
X193546081Y-83583325D01*
X193861831Y-83452537D01*
X194145998Y-83262663D01*
X194387663Y-83020998D01*
X194577537Y-82736831D01*
X194708325Y-82421081D01*
X194775000Y-82085883D01*
X194775000Y-81744117D01*
X194708325Y-81408919D01*
X194577537Y-81093169D01*
X194387663Y-80809002D01*
X194145998Y-80567337D01*
X193861831Y-80377463D01*
X193546081Y-80246675D01*
X193210883Y-80180000D01*
X192869117Y-80180000D01*
X192533919Y-80246675D01*
X192218169Y-80377463D01*
X191934002Y-80567337D01*
X191692337Y-80809002D01*
X191502463Y-81093169D01*
X191371675Y-81408919D01*
X191305000Y-81744117D01*
X190850133Y-81744117D01*
X190965000Y-81629250D01*
X190968072Y-80815000D01*
X190955812Y-80690518D01*
X190919502Y-80570820D01*
X190860537Y-80460506D01*
X190781185Y-80363815D01*
X190684494Y-80284463D01*
X190574180Y-80225498D01*
X190454482Y-80189188D01*
X190330000Y-80176928D01*
X189515750Y-80180000D01*
X189357000Y-80338750D01*
X189103000Y-80338750D01*
X188944250Y-80180000D01*
X188130000Y-80176928D01*
X188005518Y-80189188D01*
X187885820Y-80225498D01*
X187775506Y-80284463D01*
X187678815Y-80363815D01*
X187599463Y-80460506D01*
X187540498Y-80570820D01*
X187504188Y-80690518D01*
X187491928Y-80815000D01*
X150749000Y-80815000D01*
X150749000Y-80453204D01*
X150746525Y-80428254D01*
X150745000Y-80423252D01*
X150745000Y-78965329D01*
X150965998Y-78817663D01*
X151207663Y-78575998D01*
X151397537Y-78291831D01*
X151528325Y-77976081D01*
X151551855Y-77857787D01*
X154305000Y-77857787D01*
X154305000Y-78352213D01*
X154401458Y-78837140D01*
X154590667Y-79293931D01*
X154865356Y-79705032D01*
X155214968Y-80054644D01*
X155626069Y-80329333D01*
X156082860Y-80518542D01*
X156567787Y-80615000D01*
X157062213Y-80615000D01*
X157547140Y-80518542D01*
X158003931Y-80329333D01*
X158415032Y-80054644D01*
X158764644Y-79705032D01*
X159039333Y-79293931D01*
X159228542Y-78837140D01*
X159325000Y-78352213D01*
X159325000Y-77963665D01*
X162070000Y-77963665D01*
X162070000Y-78246335D01*
X162125147Y-78523574D01*
X162233320Y-78784727D01*
X162390363Y-79019759D01*
X162590241Y-79219637D01*
X162825273Y-79376680D01*
X163086426Y-79484853D01*
X163363665Y-79540000D01*
X163646335Y-79540000D01*
X163923574Y-79484853D01*
X164184727Y-79376680D01*
X164419759Y-79219637D01*
X164619637Y-79019759D01*
X164696316Y-78905000D01*
X165566928Y-78905000D01*
X165579188Y-79029482D01*
X165615498Y-79149180D01*
X165674463Y-79259494D01*
X165753815Y-79356185D01*
X165850506Y-79435537D01*
X165960820Y-79494502D01*
X166080518Y-79530812D01*
X166205000Y-79543072D01*
X166719250Y-79540000D01*
X166878000Y-79381250D01*
X166878000Y-78232000D01*
X167132000Y-78232000D01*
X167132000Y-79381250D01*
X167290750Y-79540000D01*
X167805000Y-79543072D01*
X167929482Y-79530812D01*
X168049180Y-79494502D01*
X168159494Y-79435537D01*
X168256185Y-79356185D01*
X168335537Y-79259494D01*
X168394502Y-79149180D01*
X168430812Y-79029482D01*
X168443072Y-78905000D01*
X173186928Y-78905000D01*
X173199188Y-79029482D01*
X173235498Y-79149180D01*
X173294463Y-79259494D01*
X173373815Y-79356185D01*
X173470506Y-79435537D01*
X173580820Y-79494502D01*
X173700518Y-79530812D01*
X173825000Y-79543072D01*
X174339250Y-79540000D01*
X174498000Y-79381250D01*
X174498000Y-78232000D01*
X174752000Y-78232000D01*
X174752000Y-79381250D01*
X174910750Y-79540000D01*
X175425000Y-79543072D01*
X175549482Y-79530812D01*
X175669180Y-79494502D01*
X175779494Y-79435537D01*
X175876185Y-79356185D01*
X175955537Y-79259494D01*
X176014502Y-79149180D01*
X176050812Y-79029482D01*
X176063072Y-78905000D01*
X176060000Y-78390750D01*
X175901250Y-78232000D01*
X174752000Y-78232000D01*
X174498000Y-78232000D01*
X173348750Y-78232000D01*
X173190000Y-78390750D01*
X173186928Y-78905000D01*
X168443072Y-78905000D01*
X168440000Y-78390750D01*
X168281250Y-78232000D01*
X167132000Y-78232000D01*
X166878000Y-78232000D01*
X165728750Y-78232000D01*
X165570000Y-78390750D01*
X165566928Y-78905000D01*
X164696316Y-78905000D01*
X164776680Y-78784727D01*
X164884853Y-78523574D01*
X164940000Y-78246335D01*
X164940000Y-77963665D01*
X164884853Y-77686426D01*
X164776680Y-77425273D01*
X164696317Y-77305000D01*
X165566928Y-77305000D01*
X165570000Y-77819250D01*
X165728750Y-77978000D01*
X166878000Y-77978000D01*
X166878000Y-76828750D01*
X167132000Y-76828750D01*
X167132000Y-77978000D01*
X168281250Y-77978000D01*
X168440000Y-77819250D01*
X168443072Y-77305000D01*
X173186928Y-77305000D01*
X173190000Y-77819250D01*
X173348750Y-77978000D01*
X174498000Y-77978000D01*
X174498000Y-76828750D01*
X174752000Y-76828750D01*
X174752000Y-77978000D01*
X175901250Y-77978000D01*
X175915585Y-77963665D01*
X176690000Y-77963665D01*
X176690000Y-78246335D01*
X176745147Y-78523574D01*
X176853320Y-78784727D01*
X177010363Y-79019759D01*
X177210241Y-79219637D01*
X177445273Y-79376680D01*
X177706426Y-79484853D01*
X177983665Y-79540000D01*
X178266335Y-79540000D01*
X178543574Y-79484853D01*
X178804727Y-79376680D01*
X179039759Y-79219637D01*
X179239637Y-79019759D01*
X179396680Y-78784727D01*
X179504853Y-78523574D01*
X179560000Y-78246335D01*
X179560000Y-77963665D01*
X179504853Y-77686426D01*
X179396680Y-77425273D01*
X179239637Y-77190241D01*
X179039759Y-76990363D01*
X178804727Y-76833320D01*
X178543574Y-76725147D01*
X178266335Y-76670000D01*
X177983665Y-76670000D01*
X177706426Y-76725147D01*
X177445273Y-76833320D01*
X177210241Y-76990363D01*
X177010363Y-77190241D01*
X176853320Y-77425273D01*
X176745147Y-77686426D01*
X176690000Y-77963665D01*
X175915585Y-77963665D01*
X176060000Y-77819250D01*
X176063072Y-77305000D01*
X176050812Y-77180518D01*
X176014502Y-77060820D01*
X175955537Y-76950506D01*
X175876185Y-76853815D01*
X175779494Y-76774463D01*
X175669180Y-76715498D01*
X175549482Y-76679188D01*
X175425000Y-76666928D01*
X174910750Y-76670000D01*
X174752000Y-76828750D01*
X174498000Y-76828750D01*
X174339250Y-76670000D01*
X173825000Y-76666928D01*
X173700518Y-76679188D01*
X173580820Y-76715498D01*
X173470506Y-76774463D01*
X173373815Y-76853815D01*
X173294463Y-76950506D01*
X173235498Y-77060820D01*
X173199188Y-77180518D01*
X173186928Y-77305000D01*
X168443072Y-77305000D01*
X168430812Y-77180518D01*
X168394502Y-77060820D01*
X168335537Y-76950506D01*
X168256185Y-76853815D01*
X168159494Y-76774463D01*
X168049180Y-76715498D01*
X167929482Y-76679188D01*
X167805000Y-76666928D01*
X167290750Y-76670000D01*
X167132000Y-76828750D01*
X166878000Y-76828750D01*
X166719250Y-76670000D01*
X166205000Y-76666928D01*
X166080518Y-76679188D01*
X165960820Y-76715498D01*
X165850506Y-76774463D01*
X165753815Y-76853815D01*
X165674463Y-76950506D01*
X165615498Y-77060820D01*
X165579188Y-77180518D01*
X165566928Y-77305000D01*
X164696317Y-77305000D01*
X164619637Y-77190241D01*
X164419759Y-76990363D01*
X164184727Y-76833320D01*
X163923574Y-76725147D01*
X163646335Y-76670000D01*
X163363665Y-76670000D01*
X163086426Y-76725147D01*
X162825273Y-76833320D01*
X162590241Y-76990363D01*
X162390363Y-77190241D01*
X162233320Y-77425273D01*
X162125147Y-77686426D01*
X162070000Y-77963665D01*
X159325000Y-77963665D01*
X159325000Y-77857787D01*
X159228542Y-77372860D01*
X159039333Y-76916069D01*
X158764644Y-76504968D01*
X158415032Y-76155356D01*
X158003931Y-75880667D01*
X157547140Y-75691458D01*
X157062213Y-75595000D01*
X156567787Y-75595000D01*
X156082860Y-75691458D01*
X155626069Y-75880667D01*
X155214968Y-76155356D01*
X154865356Y-76504968D01*
X154590667Y-76916069D01*
X154401458Y-77372860D01*
X154305000Y-77857787D01*
X151551855Y-77857787D01*
X151595000Y-77640883D01*
X151595000Y-77299117D01*
X151528325Y-76963919D01*
X151397537Y-76648169D01*
X151207663Y-76364002D01*
X150965998Y-76122337D01*
X150681831Y-75932463D01*
X150366081Y-75801675D01*
X150030883Y-75735000D01*
X149689117Y-75735000D01*
X149428432Y-75786853D01*
X148205000Y-74563422D01*
X148205000Y-73644790D01*
X148298505Y-73582312D01*
X148512312Y-73368505D01*
X148680299Y-73117095D01*
X148796011Y-72837743D01*
X148855000Y-72541184D01*
X148855000Y-72238816D01*
X148796011Y-71942257D01*
X148680299Y-71662905D01*
X148512312Y-71411495D01*
X148298505Y-71197688D01*
X148047095Y-71029701D01*
X147767743Y-70913989D01*
X147471184Y-70855000D01*
X147168816Y-70855000D01*
X146872257Y-70913989D01*
X146592905Y-71029701D01*
X146341495Y-71197688D01*
X146127688Y-71411495D01*
X146050000Y-71527763D01*
X145972312Y-71411495D01*
X145758505Y-71197688D01*
X145507095Y-71029701D01*
X145227743Y-70913989D01*
X144931184Y-70855000D01*
X144628816Y-70855000D01*
X144332257Y-70913989D01*
X144052905Y-71029701D01*
X143801495Y-71197688D01*
X143735056Y-71264127D01*
X143729502Y-71245820D01*
X143670537Y-71135506D01*
X143591185Y-71038815D01*
X143494494Y-70959463D01*
X143384180Y-70900498D01*
X143264482Y-70864188D01*
X143140000Y-70851928D01*
X142525750Y-70855000D01*
X142367000Y-71013750D01*
X142367000Y-72263000D01*
X142387000Y-72263000D01*
X142387000Y-72517000D01*
X142367000Y-72517000D01*
X142367000Y-73766250D01*
X142525750Y-73925000D01*
X143140000Y-73928072D01*
X143264482Y-73915812D01*
X143384180Y-73879502D01*
X143494494Y-73820537D01*
X143591185Y-73741185D01*
X143670537Y-73644494D01*
X143729502Y-73534180D01*
X143735056Y-73515873D01*
X143801495Y-73582312D01*
X144052905Y-73750299D01*
X144332257Y-73866011D01*
X144628816Y-73925000D01*
X144931184Y-73925000D01*
X145227743Y-73866011D01*
X145507095Y-73750299D01*
X145758505Y-73582312D01*
X145972312Y-73368505D01*
X146050000Y-73252237D01*
X146127688Y-73368505D01*
X146341495Y-73582312D01*
X146435000Y-73644790D01*
X146435001Y-74886521D01*
X146430719Y-74930000D01*
X146447805Y-75103490D01*
X146498412Y-75270313D01*
X146580590Y-75424059D01*
X146663468Y-75525046D01*
X146663471Y-75525049D01*
X146691184Y-75558817D01*
X146724951Y-75586529D01*
X148176853Y-77038432D01*
X148125000Y-77299117D01*
X148125000Y-77640883D01*
X148191675Y-77976081D01*
X148322463Y-78291831D01*
X148512337Y-78575998D01*
X148754002Y-78817663D01*
X148975001Y-78965329D01*
X148975001Y-80328496D01*
X133855142Y-80349542D01*
X133903931Y-80329333D01*
X134315032Y-80054644D01*
X134664644Y-79705032D01*
X134939333Y-79293931D01*
X135128542Y-78837140D01*
X135181679Y-78570000D01*
X137961928Y-78570000D01*
X137974188Y-78694482D01*
X138010498Y-78814180D01*
X138069463Y-78924494D01*
X138148815Y-79021185D01*
X138245506Y-79100537D01*
X138355820Y-79159502D01*
X138475518Y-79195812D01*
X138600000Y-79208072D01*
X139414250Y-79205000D01*
X139573000Y-79046250D01*
X139573000Y-77597000D01*
X139827000Y-77597000D01*
X139827000Y-79046250D01*
X139985750Y-79205000D01*
X140800000Y-79208072D01*
X140924482Y-79195812D01*
X141044180Y-79159502D01*
X141154494Y-79100537D01*
X141251185Y-79021185D01*
X141330537Y-78924494D01*
X141389502Y-78814180D01*
X141425812Y-78694482D01*
X141438072Y-78570000D01*
X141435000Y-77755750D01*
X141276250Y-77597000D01*
X139827000Y-77597000D01*
X139573000Y-77597000D01*
X138123750Y-77597000D01*
X137965000Y-77755750D01*
X137961928Y-78570000D01*
X135181679Y-78570000D01*
X135225000Y-78352213D01*
X135225000Y-77857787D01*
X135128542Y-77372860D01*
X134939333Y-76916069D01*
X134664644Y-76504968D01*
X134529676Y-76370000D01*
X137961928Y-76370000D01*
X137965000Y-77184250D01*
X138123750Y-77343000D01*
X139573000Y-77343000D01*
X139573000Y-75893750D01*
X139827000Y-75893750D01*
X139827000Y-77343000D01*
X141276250Y-77343000D01*
X141435000Y-77184250D01*
X141438072Y-76370000D01*
X141425812Y-76245518D01*
X141389502Y-76125820D01*
X141330537Y-76015506D01*
X141251185Y-75918815D01*
X141154494Y-75839463D01*
X141044180Y-75780498D01*
X140924482Y-75744188D01*
X140800000Y-75731928D01*
X139985750Y-75735000D01*
X139827000Y-75893750D01*
X139573000Y-75893750D01*
X139414250Y-75735000D01*
X138600000Y-75731928D01*
X138475518Y-75744188D01*
X138355820Y-75780498D01*
X138245506Y-75839463D01*
X138148815Y-75918815D01*
X138069463Y-76015506D01*
X138010498Y-76125820D01*
X137974188Y-76245518D01*
X137961928Y-76370000D01*
X134529676Y-76370000D01*
X134315032Y-76155356D01*
X133903931Y-75880667D01*
X133447140Y-75691458D01*
X132962213Y-75595000D01*
X132467787Y-75595000D01*
X131982860Y-75691458D01*
X131526069Y-75880667D01*
X131114968Y-76155356D01*
X130765356Y-76504968D01*
X130490667Y-76916069D01*
X130301458Y-77372860D01*
X130205000Y-77857787D01*
X130205000Y-78352213D01*
X130301458Y-78837140D01*
X130490667Y-79293931D01*
X130765356Y-79705032D01*
X131114968Y-80054644D01*
X131526069Y-80329333D01*
X131582495Y-80352705D01*
X128691618Y-80356729D01*
X128743977Y-80304370D01*
X128627704Y-80188097D01*
X128871671Y-80116514D01*
X128992571Y-79861004D01*
X129061300Y-79586816D01*
X129075217Y-79304488D01*
X129033787Y-79024870D01*
X128938603Y-78758708D01*
X128871671Y-78633486D01*
X128627702Y-78561903D01*
X127814605Y-79375000D01*
X127828748Y-79389143D01*
X127649143Y-79568748D01*
X127635000Y-79554605D01*
X127620858Y-79568748D01*
X127441253Y-79389143D01*
X127455395Y-79375000D01*
X126642298Y-78561903D01*
X126398329Y-78633486D01*
X126277429Y-78888996D01*
X126208700Y-79163184D01*
X126194783Y-79445512D01*
X126236213Y-79725130D01*
X126331397Y-79991292D01*
X126398329Y-80116514D01*
X126642296Y-80188097D01*
X126526023Y-80304370D01*
X126581320Y-80359667D01*
X121052033Y-80367363D01*
X121129637Y-80289759D01*
X121286680Y-80054727D01*
X121394853Y-79793574D01*
X121450000Y-79516335D01*
X121450000Y-79233665D01*
X121394853Y-78956426D01*
X121286680Y-78695273D01*
X121129637Y-78460241D01*
X121051694Y-78382298D01*
X126821903Y-78382298D01*
X127635000Y-79195395D01*
X128448097Y-78382298D01*
X128376514Y-78138329D01*
X128121004Y-78017429D01*
X127846816Y-77948700D01*
X127564488Y-77934783D01*
X127284870Y-77976213D01*
X127018708Y-78071397D01*
X126893486Y-78138329D01*
X126821903Y-78382298D01*
X121051694Y-78382298D01*
X120929759Y-78260363D01*
X120694727Y-78103320D01*
X120433574Y-77995147D01*
X120156335Y-77940000D01*
X119873665Y-77940000D01*
X119596426Y-77995147D01*
X119335273Y-78103320D01*
X119100241Y-78260363D01*
X118900363Y-78460241D01*
X118743320Y-78695273D01*
X118635147Y-78956426D01*
X118580000Y-79233665D01*
X118580000Y-79516335D01*
X118635147Y-79793574D01*
X118743320Y-80054727D01*
X118900363Y-80289759D01*
X118980850Y-80370246D01*
X118452560Y-80370981D01*
X117510000Y-79428422D01*
X117510000Y-79246469D01*
X117459849Y-78994346D01*
X117361476Y-78756851D01*
X117218659Y-78543111D01*
X117036889Y-78361341D01*
X116823149Y-78218524D01*
X116585654Y-78120151D01*
X116333531Y-78070000D01*
X116076469Y-78070000D01*
X115824346Y-78120151D01*
X115586851Y-78218524D01*
X115373111Y-78361341D01*
X115191341Y-78543111D01*
X115048524Y-78756851D01*
X114950151Y-78994346D01*
X114900000Y-79246469D01*
X114900000Y-79503531D01*
X114950151Y-79755654D01*
X115048524Y-79993149D01*
X115191341Y-80206889D01*
X115359738Y-80375286D01*
X104070652Y-80391000D01*
X104045654Y-80393520D01*
X104021853Y-80400824D01*
X103999934Y-80412630D01*
X103980739Y-80428486D01*
X103965007Y-80447781D01*
X103953341Y-80469775D01*
X103946191Y-80493623D01*
X103943830Y-80518407D01*
X103945067Y-80904653D01*
X103934188Y-80940518D01*
X103921928Y-81065000D01*
X102260000Y-81065000D01*
X102260000Y-70742285D01*
X105385000Y-70742285D01*
X105385000Y-71497715D01*
X105532377Y-72238628D01*
X105821467Y-72936554D01*
X106241161Y-73564670D01*
X106775330Y-74098839D01*
X107403446Y-74518533D01*
X108101372Y-74807623D01*
X108842285Y-74955000D01*
X109597715Y-74955000D01*
X110338628Y-74807623D01*
X111036554Y-74518533D01*
X111664670Y-74098839D01*
X112198839Y-73564670D01*
X112618533Y-72936554D01*
X112907623Y-72238628D01*
X113055000Y-71497715D01*
X113055000Y-70742285D01*
X112958073Y-70255000D01*
X118511928Y-70255000D01*
X118511928Y-73255000D01*
X118524188Y-73379482D01*
X118560498Y-73499180D01*
X118619463Y-73609494D01*
X118698815Y-73706185D01*
X118795506Y-73785537D01*
X118905820Y-73844502D01*
X119025518Y-73880812D01*
X119150000Y-73893072D01*
X122150000Y-73893072D01*
X122274482Y-73880812D01*
X122394180Y-73844502D01*
X122504494Y-73785537D01*
X122601185Y-73706185D01*
X122680537Y-73609494D01*
X122739502Y-73499180D01*
X122775812Y-73379482D01*
X122788072Y-73255000D01*
X122788072Y-73246653D01*
X124417952Y-73246653D01*
X124573962Y-73562214D01*
X124948745Y-73753020D01*
X125353551Y-73867044D01*
X125772824Y-73899902D01*
X126190451Y-73850334D01*
X126590383Y-73720243D01*
X126886038Y-73562214D01*
X127020617Y-73290000D01*
X140701928Y-73290000D01*
X140714188Y-73414482D01*
X140750498Y-73534180D01*
X140809463Y-73644494D01*
X140888815Y-73741185D01*
X140985506Y-73820537D01*
X141095820Y-73879502D01*
X141215518Y-73915812D01*
X141340000Y-73928072D01*
X141954250Y-73925000D01*
X142113000Y-73766250D01*
X142113000Y-72517000D01*
X140863750Y-72517000D01*
X140705000Y-72675750D01*
X140701928Y-73290000D01*
X127020617Y-73290000D01*
X127042048Y-73246653D01*
X125730000Y-71934605D01*
X124417952Y-73246653D01*
X122788072Y-73246653D01*
X122788072Y-71797824D01*
X123585098Y-71797824D01*
X123634666Y-72215451D01*
X123764757Y-72615383D01*
X123922786Y-72911038D01*
X124238347Y-73067048D01*
X125550395Y-71755000D01*
X125909605Y-71755000D01*
X127221653Y-73067048D01*
X127537214Y-72911038D01*
X127728020Y-72536255D01*
X127842044Y-72131449D01*
X127874902Y-71712176D01*
X127825334Y-71294549D01*
X127695243Y-70894617D01*
X127537214Y-70598962D01*
X127221653Y-70442952D01*
X125909605Y-71755000D01*
X125550395Y-71755000D01*
X124238347Y-70442952D01*
X123922786Y-70598962D01*
X123731980Y-70973745D01*
X123617956Y-71378551D01*
X123585098Y-71797824D01*
X122788072Y-71797824D01*
X122788072Y-70263347D01*
X124417952Y-70263347D01*
X125730000Y-71575395D01*
X127042048Y-70263347D01*
X126886038Y-69947786D01*
X126511255Y-69756980D01*
X126106449Y-69642956D01*
X125687176Y-69610098D01*
X125269549Y-69659666D01*
X124869617Y-69789757D01*
X124573962Y-69947786D01*
X124417952Y-70263347D01*
X122788072Y-70263347D01*
X122788072Y-70255000D01*
X122775812Y-70130518D01*
X122739502Y-70010820D01*
X122680537Y-69900506D01*
X122601185Y-69803815D01*
X122504494Y-69724463D01*
X122394180Y-69665498D01*
X122274482Y-69629188D01*
X122150000Y-69616928D01*
X119150000Y-69616928D01*
X119025518Y-69629188D01*
X118905820Y-69665498D01*
X118795506Y-69724463D01*
X118698815Y-69803815D01*
X118619463Y-69900506D01*
X118560498Y-70010820D01*
X118524188Y-70130518D01*
X118511928Y-70255000D01*
X112958073Y-70255000D01*
X112907623Y-70001372D01*
X112645836Y-69369359D01*
X133722500Y-69369359D01*
X133722500Y-69840641D01*
X133814443Y-70302866D01*
X133994794Y-70738274D01*
X134256624Y-71130130D01*
X134589870Y-71463376D01*
X134981726Y-71725206D01*
X135417134Y-71905557D01*
X135879359Y-71997500D01*
X136350641Y-71997500D01*
X136812866Y-71905557D01*
X137248274Y-71725206D01*
X137600284Y-71490000D01*
X140701928Y-71490000D01*
X140705000Y-72104250D01*
X140863750Y-72263000D01*
X142113000Y-72263000D01*
X142113000Y-71013750D01*
X141954250Y-70855000D01*
X141340000Y-70851928D01*
X141215518Y-70864188D01*
X141095820Y-70900498D01*
X140985506Y-70959463D01*
X140888815Y-71038815D01*
X140809463Y-71135506D01*
X140750498Y-71245820D01*
X140714188Y-71365518D01*
X140701928Y-71490000D01*
X137600284Y-71490000D01*
X137640130Y-71463376D01*
X137973376Y-71130130D01*
X138235206Y-70738274D01*
X138415557Y-70302866D01*
X138507500Y-69840641D01*
X138507500Y-69369359D01*
X151022500Y-69369359D01*
X151022500Y-69840641D01*
X151114443Y-70302866D01*
X151294794Y-70738274D01*
X151556624Y-71130130D01*
X151889870Y-71463376D01*
X152281726Y-71725206D01*
X152717134Y-71905557D01*
X153179359Y-71997500D01*
X153650641Y-71997500D01*
X154112866Y-71905557D01*
X154548274Y-71725206D01*
X154940130Y-71463376D01*
X155273376Y-71130130D01*
X155532525Y-70742285D01*
X186665000Y-70742285D01*
X186665000Y-71497715D01*
X186812377Y-72238628D01*
X187101467Y-72936554D01*
X187521161Y-73564670D01*
X188055330Y-74098839D01*
X188683446Y-74518533D01*
X189381372Y-74807623D01*
X190122285Y-74955000D01*
X190877715Y-74955000D01*
X191618628Y-74807623D01*
X192316554Y-74518533D01*
X192944670Y-74098839D01*
X193478839Y-73564670D01*
X193898533Y-72936554D01*
X194187623Y-72238628D01*
X194335000Y-71497715D01*
X194335000Y-70742285D01*
X194187623Y-70001372D01*
X193898533Y-69303446D01*
X193478839Y-68675330D01*
X192944670Y-68141161D01*
X192316554Y-67721467D01*
X191618628Y-67432377D01*
X190877715Y-67285000D01*
X190122285Y-67285000D01*
X189381372Y-67432377D01*
X188683446Y-67721467D01*
X188055330Y-68141161D01*
X187521161Y-68675330D01*
X187101467Y-69303446D01*
X186812377Y-70001372D01*
X186665000Y-70742285D01*
X155532525Y-70742285D01*
X155535206Y-70738274D01*
X155715557Y-70302866D01*
X155807500Y-69840641D01*
X155807500Y-69369359D01*
X155715557Y-68907134D01*
X155535206Y-68471726D01*
X155273376Y-68079870D01*
X154940130Y-67746624D01*
X154548274Y-67484794D01*
X154112866Y-67304443D01*
X153650641Y-67212500D01*
X153179359Y-67212500D01*
X152717134Y-67304443D01*
X152281726Y-67484794D01*
X151889870Y-67746624D01*
X151556624Y-68079870D01*
X151294794Y-68471726D01*
X151114443Y-68907134D01*
X151022500Y-69369359D01*
X138507500Y-69369359D01*
X138415557Y-68907134D01*
X138235206Y-68471726D01*
X137973376Y-68079870D01*
X137640130Y-67746624D01*
X137248274Y-67484794D01*
X136812866Y-67304443D01*
X136350641Y-67212500D01*
X135879359Y-67212500D01*
X135417134Y-67304443D01*
X134981726Y-67484794D01*
X134589870Y-67746624D01*
X134256624Y-68079870D01*
X133994794Y-68471726D01*
X133814443Y-68907134D01*
X133722500Y-69369359D01*
X112645836Y-69369359D01*
X112618533Y-69303446D01*
X112198839Y-68675330D01*
X111664670Y-68141161D01*
X111036554Y-67721467D01*
X110338628Y-67432377D01*
X109597715Y-67285000D01*
X108842285Y-67285000D01*
X108101372Y-67432377D01*
X107403446Y-67721467D01*
X106775330Y-68141161D01*
X106241161Y-68675330D01*
X105821467Y-69303446D01*
X105532377Y-70001372D01*
X105385000Y-70742285D01*
X102260000Y-70742285D01*
X102260000Y-64160000D01*
X197460001Y-64160000D01*
X197460000Y-137770000D01*
%TD*%
M02*
