%TF.GenerationSoftware,KiCad,Pcbnew,(5.1.6)-1*%
%TF.CreationDate,2021-05-27T20:40:55-04:00*%
%TF.ProjectId,MirrorDeflectionDriver,4d697272-6f72-4446-9566-6c656374696f,rev?*%
%TF.SameCoordinates,Original*%
%TF.FileFunction,Soldermask,Bot*%
%TF.FilePolarity,Negative*%
%FSLAX46Y46*%
G04 Gerber Fmt 4.6, Leading zero omitted, Abs format (unit mm)*
G04 Created by KiCad (PCBNEW (5.1.6)-1) date 2021-05-27 20:40:55*
%MOMM*%
%LPD*%
G01*
G04 APERTURE LIST*
%ADD10O,2.300000X2.300000*%
%ADD11R,2.300000X2.300000*%
%ADD12C,6.500000*%
%ADD13R,1.400000X1.400000*%
%ADD14C,1.400000*%
%ADD15O,1.800000X1.800000*%
%ADD16R,1.800000X1.800000*%
%ADD17O,1.900000X1.900000*%
%ADD18R,1.900000X1.900000*%
%ADD19C,3.850000*%
%ADD20C,3.615000*%
%ADD21C,1.440000*%
%ADD22C,1.300000*%
%ADD23O,1.700000X1.700000*%
%ADD24C,1.700000*%
%ADD25C,3.100000*%
%ADD26R,3.100000X3.100000*%
%ADD27R,1.700000X1.700000*%
G04 APERTURE END LIST*
D10*
%TO.C,D2*%
X136398000Y-96774000D03*
D11*
X136398000Y-86614000D03*
%TD*%
D12*
%TO.C,REF\u002A\u002A*%
X109220000Y-130810000D03*
%TD*%
%TO.C,REF\u002A\u002A*%
X190500000Y-130810000D03*
%TD*%
%TO.C,REF\u002A\u002A*%
X190500000Y-71120000D03*
%TD*%
%TO.C,REF\u002A\u002A*%
X109220000Y-71120000D03*
%TD*%
D13*
%TO.C,U2*%
X120269000Y-84455000D03*
D14*
X122809000Y-84455000D03*
X121539000Y-83185000D03*
%TD*%
D15*
%TO.C,J2*%
X107950000Y-120015000D03*
X105410000Y-120015000D03*
X107950000Y-117475000D03*
X105410000Y-117475000D03*
X107950000Y-114935000D03*
X105410000Y-114935000D03*
X107950000Y-112395000D03*
X105410000Y-112395000D03*
X107950000Y-109855000D03*
X105410000Y-109855000D03*
X107950000Y-107315000D03*
X105410000Y-107315000D03*
X107950000Y-104775000D03*
X105410000Y-104775000D03*
X107950000Y-102235000D03*
X105410000Y-102235000D03*
X107950000Y-99695000D03*
X105410000Y-99695000D03*
X107950000Y-97155000D03*
X105410000Y-97155000D03*
X107950000Y-94615000D03*
X105410000Y-94615000D03*
X107950000Y-92075000D03*
X105410000Y-92075000D03*
X107950000Y-89535000D03*
X105410000Y-89535000D03*
X107950000Y-86995000D03*
X105410000Y-86995000D03*
X107950000Y-84455000D03*
X105410000Y-84455000D03*
X107950000Y-81915000D03*
D16*
X105410000Y-81915000D03*
%TD*%
D17*
%TO.C,U7*%
X174215000Y-112395000D03*
X172515000Y-108695000D03*
X170815000Y-112395000D03*
X169115000Y-108695000D03*
D18*
X167415000Y-112395000D03*
%TD*%
D17*
%TO.C,U6*%
X174215000Y-94615000D03*
X172515000Y-90915000D03*
X170815000Y-94615000D03*
X169115000Y-90915000D03*
D18*
X167415000Y-94615000D03*
%TD*%
D19*
%TO.C,U5*%
X158750000Y-95495000D03*
X182850000Y-95495000D03*
D20*
X162150000Y-86995000D03*
X179450000Y-86995000D03*
%TD*%
D19*
%TO.C,U4*%
X158750000Y-113275000D03*
X182850000Y-113275000D03*
D20*
X162150000Y-104775000D03*
X179450000Y-104775000D03*
%TD*%
D19*
%TO.C,U3*%
X132715000Y-78105000D03*
X156815000Y-78105000D03*
D20*
X136115000Y-69605000D03*
X153415000Y-69605000D03*
%TD*%
D17*
%TO.C,U1*%
X147320000Y-72390000D03*
X144780000Y-72390000D03*
D18*
X142240000Y-72390000D03*
%TD*%
D21*
%TO.C,RN2*%
X116205000Y-99695000D03*
X116205000Y-97155000D03*
X116205000Y-94615000D03*
X116205000Y-92075000D03*
X116205000Y-89535000D03*
X116205000Y-86995000D03*
X116205000Y-84455000D03*
X116205000Y-81915000D03*
X116205000Y-79375000D03*
%TD*%
%TO.C,RN1*%
X116205000Y-103378000D03*
X116205000Y-105918000D03*
X116205000Y-108458000D03*
X116205000Y-110998000D03*
X116205000Y-113538000D03*
X116205000Y-116078000D03*
X116205000Y-118618000D03*
X116205000Y-121158000D03*
X116205000Y-123698000D03*
%TD*%
D22*
%TO.C,R13*%
X151210000Y-125055000D03*
X156210000Y-122555000D03*
X151210000Y-120055000D03*
%TD*%
D23*
%TO.C,R12*%
X174625000Y-99695000D03*
D24*
X167005000Y-99695000D03*
%TD*%
D23*
%TO.C,R11*%
X153035000Y-113030000D03*
D24*
X153035000Y-105410000D03*
%TD*%
D23*
%TO.C,R10*%
X153035000Y-87630000D03*
D24*
X153035000Y-95250000D03*
%TD*%
D22*
%TO.C,R9*%
X148550000Y-99735000D03*
X143550000Y-102235000D03*
X148550000Y-104735000D03*
%TD*%
D23*
%TO.C,R8*%
X142875000Y-109220000D03*
D24*
X135255000Y-109220000D03*
%TD*%
D23*
%TO.C,R7*%
X146050000Y-125730000D03*
D24*
X146050000Y-118110000D03*
%TD*%
D23*
%TO.C,R6*%
X141605000Y-118110000D03*
D24*
X141605000Y-125730000D03*
%TD*%
D23*
%TO.C,R5*%
X130810000Y-101600000D03*
D24*
X130810000Y-109220000D03*
%TD*%
D22*
%TO.C,R4*%
X131485000Y-119420000D03*
X133985000Y-124420000D03*
X136485000Y-119420000D03*
%TD*%
D23*
%TO.C,R3*%
X120650000Y-95885000D03*
D24*
X120650000Y-88265000D03*
%TD*%
D23*
%TO.C,R2*%
X120015000Y-79375000D03*
D24*
X127635000Y-79375000D03*
%TD*%
D23*
%TO.C,R1*%
X147320000Y-92075000D03*
D24*
X139700000Y-92075000D03*
%TD*%
D25*
%TO.C,J3*%
X191770000Y-104140000D03*
D26*
X191770000Y-99060000D03*
%TD*%
D25*
%TO.C,J1*%
X125730000Y-71755000D03*
D26*
X120650000Y-71755000D03*
%TD*%
D10*
%TO.C,D6*%
X193040000Y-120015000D03*
D11*
X193040000Y-109855000D03*
%TD*%
D10*
%TO.C,D5*%
X189230000Y-109855000D03*
D11*
X189230000Y-120015000D03*
%TD*%
D10*
%TO.C,D4*%
X193040000Y-81915000D03*
D11*
X193040000Y-92075000D03*
%TD*%
D10*
%TO.C,D3*%
X189230000Y-92075000D03*
D11*
X189230000Y-81915000D03*
%TD*%
D10*
%TO.C,D1*%
X149860000Y-77470000D03*
D11*
X139700000Y-77470000D03*
%TD*%
D24*
%TO.C,C9*%
X146050000Y-114220000D03*
X146050000Y-109220000D03*
%TD*%
%TO.C,C8*%
X124587000Y-91266000D03*
X124587000Y-96266000D03*
%TD*%
%TO.C,C7*%
X127254000Y-91266000D03*
X127254000Y-96266000D03*
%TD*%
%TO.C,C6*%
X163505000Y-78105000D03*
D27*
X167005000Y-78105000D03*
%TD*%
D24*
%TO.C,C5*%
X146685000Y-83495000D03*
D27*
X146685000Y-86995000D03*
%TD*%
D24*
%TO.C,C4*%
X163505000Y-122555000D03*
D27*
X167005000Y-122555000D03*
%TD*%
D24*
%TO.C,C3*%
X139700000Y-82550000D03*
X139700000Y-87550000D03*
%TD*%
%TO.C,C2*%
X178125000Y-78105000D03*
D27*
X174625000Y-78105000D03*
%TD*%
D24*
%TO.C,C1*%
X178125000Y-122555000D03*
D27*
X174625000Y-122555000D03*
%TD*%
M02*
