%TF.GenerationSoftware,KiCad,Pcbnew,(5.1.6)-1*%
%TF.CreationDate,2021-05-27T20:40:55-04:00*%
%TF.ProjectId,MirrorDeflectionDriver,4d697272-6f72-4446-9566-6c656374696f,rev?*%
%TF.SameCoordinates,Original*%
%TF.FileFunction,Legend,Top*%
%TF.FilePolarity,Positive*%
%FSLAX46Y46*%
G04 Gerber Fmt 4.6, Leading zero omitted, Abs format (unit mm)*
G04 Created by KiCad (PCBNEW (5.1.6)-1) date 2021-05-27 20:40:55*
%MOMM*%
%LPD*%
G01*
G04 APERTURE LIST*
%ADD10C,0.150000*%
%ADD11C,0.300000*%
%ADD12C,0.120000*%
%ADD13C,0.200000*%
%ADD14C,0.100000*%
%ADD15C,0.254000*%
G04 APERTURE END LIST*
D10*
X185674047Y-98496428D02*
X186435952Y-98496428D01*
X186055000Y-98877380D02*
X186055000Y-98115476D01*
X186126428Y-105155952D02*
X186126428Y-104394047D01*
X185047380Y-103480952D02*
X184047380Y-103480952D01*
X184047380Y-103242857D01*
X184095000Y-103100000D01*
X184190238Y-103004761D01*
X184285476Y-102957142D01*
X184475952Y-102909523D01*
X184618809Y-102909523D01*
X184809285Y-102957142D01*
X184904523Y-103004761D01*
X184999761Y-103100000D01*
X185047380Y-103242857D01*
X185047380Y-103480952D01*
X185047380Y-101909523D02*
X184571190Y-102242857D01*
X185047380Y-102480952D02*
X184047380Y-102480952D01*
X184047380Y-102100000D01*
X184095000Y-102004761D01*
X184142619Y-101957142D01*
X184237857Y-101909523D01*
X184380714Y-101909523D01*
X184475952Y-101957142D01*
X184523571Y-102004761D01*
X184571190Y-102100000D01*
X184571190Y-102480952D01*
X185047380Y-101480952D02*
X184047380Y-101480952D01*
X184047380Y-101147619D02*
X185047380Y-100814285D01*
X184047380Y-100480952D01*
X184523571Y-100147619D02*
X184523571Y-99814285D01*
X185047380Y-99671428D02*
X185047380Y-100147619D01*
X184047380Y-100147619D01*
X184047380Y-99671428D01*
X185697380Y-102600000D02*
X185697380Y-102409523D01*
X185745000Y-102314285D01*
X185840238Y-102219047D01*
X186030714Y-102171428D01*
X186364047Y-102171428D01*
X186554523Y-102219047D01*
X186649761Y-102314285D01*
X186697380Y-102409523D01*
X186697380Y-102600000D01*
X186649761Y-102695238D01*
X186554523Y-102790476D01*
X186364047Y-102838095D01*
X186030714Y-102838095D01*
X185840238Y-102790476D01*
X185745000Y-102695238D01*
X185697380Y-102600000D01*
X185697380Y-101742857D02*
X186506904Y-101742857D01*
X186602142Y-101695238D01*
X186649761Y-101647619D01*
X186697380Y-101552380D01*
X186697380Y-101361904D01*
X186649761Y-101266666D01*
X186602142Y-101219047D01*
X186506904Y-101171428D01*
X185697380Y-101171428D01*
X185697380Y-100838095D02*
X185697380Y-100266666D01*
X186697380Y-100552380D02*
X185697380Y-100552380D01*
D11*
X129413095Y-71897857D02*
X130936904Y-71897857D01*
X130175000Y-72659761D02*
X130175000Y-71135952D01*
D10*
X126237619Y-65206666D02*
X126285238Y-65254285D01*
X126380476Y-65397142D01*
X126428095Y-65492380D01*
X126475714Y-65635238D01*
X126523333Y-65873333D01*
X126523333Y-66063809D01*
X126475714Y-66301904D01*
X126428095Y-66444761D01*
X126380476Y-66540000D01*
X126285238Y-66682857D01*
X126237619Y-66730476D01*
X125332857Y-65587619D02*
X125904285Y-65587619D01*
X125618571Y-65587619D02*
X125618571Y-66587619D01*
X125713809Y-66444761D01*
X125809047Y-66349523D01*
X125904285Y-66301904D01*
X124475714Y-66587619D02*
X124666190Y-66587619D01*
X124761428Y-66540000D01*
X124809047Y-66492380D01*
X124904285Y-66349523D01*
X124951904Y-66159047D01*
X124951904Y-65778095D01*
X124904285Y-65682857D01*
X124856666Y-65635238D01*
X124761428Y-65587619D01*
X124570952Y-65587619D01*
X124475714Y-65635238D01*
X124428095Y-65682857D01*
X124380476Y-65778095D01*
X124380476Y-66016190D01*
X124428095Y-66111428D01*
X124475714Y-66159047D01*
X124570952Y-66206666D01*
X124761428Y-66206666D01*
X124856666Y-66159047D01*
X124904285Y-66111428D01*
X124951904Y-66016190D01*
X123951904Y-65968571D02*
X123190000Y-65968571D01*
X122809047Y-66587619D02*
X122190000Y-66587619D01*
X122523333Y-66206666D01*
X122380476Y-66206666D01*
X122285238Y-66159047D01*
X122237619Y-66111428D01*
X122190000Y-66016190D01*
X122190000Y-65778095D01*
X122237619Y-65682857D01*
X122285238Y-65635238D01*
X122380476Y-65587619D01*
X122666190Y-65587619D01*
X122761428Y-65635238D01*
X122809047Y-65682857D01*
X121570952Y-66587619D02*
X121475714Y-66587619D01*
X121380476Y-66540000D01*
X121332857Y-66492380D01*
X121285238Y-66397142D01*
X121237619Y-66206666D01*
X121237619Y-65968571D01*
X121285238Y-65778095D01*
X121332857Y-65682857D01*
X121380476Y-65635238D01*
X121475714Y-65587619D01*
X121570952Y-65587619D01*
X121666190Y-65635238D01*
X121713809Y-65682857D01*
X121761428Y-65778095D01*
X121809047Y-65968571D01*
X121809047Y-66206666D01*
X121761428Y-66397142D01*
X121713809Y-66492380D01*
X121666190Y-66540000D01*
X121570952Y-66587619D01*
X120904285Y-66254285D02*
X120666190Y-65587619D01*
X120428095Y-66254285D01*
X120142380Y-65206666D02*
X120094761Y-65254285D01*
X119999523Y-65397142D01*
X119951904Y-65492380D01*
X119904285Y-65635238D01*
X119856666Y-65873333D01*
X119856666Y-66063809D01*
X119904285Y-66301904D01*
X119951904Y-66444761D01*
X119999523Y-66540000D01*
X120094761Y-66682857D01*
X120142380Y-66730476D01*
D11*
X115443095Y-71897857D02*
X116966904Y-71897857D01*
D10*
X151812857Y-116927380D02*
X152050952Y-117927380D01*
X152241428Y-117213095D01*
X152431904Y-117927380D01*
X152670000Y-116927380D01*
X153003333Y-117641666D02*
X153479523Y-117641666D01*
X152908095Y-117927380D02*
X153241428Y-116927380D01*
X153574761Y-117927380D01*
X154479523Y-117927380D02*
X154146190Y-117451190D01*
X153908095Y-117927380D02*
X153908095Y-116927380D01*
X154289047Y-116927380D01*
X154384285Y-116975000D01*
X154431904Y-117022619D01*
X154479523Y-117117857D01*
X154479523Y-117260714D01*
X154431904Y-117355952D01*
X154384285Y-117403571D01*
X154289047Y-117451190D01*
X153908095Y-117451190D01*
X154908095Y-117927380D02*
X154908095Y-116927380D01*
X155289047Y-116927380D01*
X155384285Y-116975000D01*
X155431904Y-117022619D01*
X155479523Y-117117857D01*
X155479523Y-117260714D01*
X155431904Y-117355952D01*
X155384285Y-117403571D01*
X155289047Y-117451190D01*
X154908095Y-117451190D01*
X129357380Y-125515238D02*
X128357380Y-125515238D01*
X128833571Y-125515238D02*
X128833571Y-124943809D01*
X129357380Y-124943809D02*
X128357380Y-124943809D01*
X128357380Y-124277142D02*
X128357380Y-124086666D01*
X128405000Y-123991428D01*
X128500238Y-123896190D01*
X128690714Y-123848571D01*
X129024047Y-123848571D01*
X129214523Y-123896190D01*
X129309761Y-123991428D01*
X129357380Y-124086666D01*
X129357380Y-124277142D01*
X129309761Y-124372380D01*
X129214523Y-124467619D01*
X129024047Y-124515238D01*
X128690714Y-124515238D01*
X128500238Y-124467619D01*
X128405000Y-124372380D01*
X128357380Y-124277142D01*
X129357380Y-122943809D02*
X129357380Y-123420000D01*
X128357380Y-123420000D01*
X129357380Y-122610476D02*
X128357380Y-122610476D01*
X128357380Y-122372380D01*
X128405000Y-122229523D01*
X128500238Y-122134285D01*
X128595476Y-122086666D01*
X128785952Y-122039047D01*
X128928809Y-122039047D01*
X129119285Y-122086666D01*
X129214523Y-122134285D01*
X129309761Y-122229523D01*
X129357380Y-122372380D01*
X129357380Y-122610476D01*
X129357380Y-120848571D02*
X128357380Y-120848571D01*
X128357380Y-120467619D01*
X128405000Y-120372380D01*
X128452619Y-120324761D01*
X128547857Y-120277142D01*
X128690714Y-120277142D01*
X128785952Y-120324761D01*
X128833571Y-120372380D01*
X128881190Y-120467619D01*
X128881190Y-120848571D01*
X128357380Y-119658095D02*
X128357380Y-119467619D01*
X128405000Y-119372380D01*
X128500238Y-119277142D01*
X128690714Y-119229523D01*
X129024047Y-119229523D01*
X129214523Y-119277142D01*
X129309761Y-119372380D01*
X129357380Y-119467619D01*
X129357380Y-119658095D01*
X129309761Y-119753333D01*
X129214523Y-119848571D01*
X129024047Y-119896190D01*
X128690714Y-119896190D01*
X128500238Y-119848571D01*
X128405000Y-119753333D01*
X128357380Y-119658095D01*
X129309761Y-118848571D02*
X129357380Y-118705714D01*
X129357380Y-118467619D01*
X129309761Y-118372380D01*
X129262142Y-118324761D01*
X129166904Y-118277142D01*
X129071666Y-118277142D01*
X128976428Y-118324761D01*
X128928809Y-118372380D01*
X128881190Y-118467619D01*
X128833571Y-118658095D01*
X128785952Y-118753333D01*
X128738333Y-118800952D01*
X128643095Y-118848571D01*
X128547857Y-118848571D01*
X128452619Y-118800952D01*
X128405000Y-118753333D01*
X128357380Y-118658095D01*
X128357380Y-118420000D01*
X128405000Y-118277142D01*
X145121428Y-96655000D02*
X145026190Y-96607380D01*
X144883333Y-96607380D01*
X144740476Y-96655000D01*
X144645238Y-96750238D01*
X144597619Y-96845476D01*
X144550000Y-97035952D01*
X144550000Y-97178809D01*
X144597619Y-97369285D01*
X144645238Y-97464523D01*
X144740476Y-97559761D01*
X144883333Y-97607380D01*
X144978571Y-97607380D01*
X145121428Y-97559761D01*
X145169047Y-97512142D01*
X145169047Y-97178809D01*
X144978571Y-97178809D01*
X145550000Y-97321666D02*
X146026190Y-97321666D01*
X145454761Y-97607380D02*
X145788095Y-96607380D01*
X146121428Y-97607380D01*
X146454761Y-97607380D02*
X146454761Y-96607380D01*
X146930952Y-97607380D02*
X146930952Y-96607380D01*
X147502380Y-97607380D01*
X147502380Y-96607380D01*
D12*
X110363000Y-80645000D02*
X111823500Y-80645000D01*
X112903000Y-83312000D02*
X110363000Y-83312000D01*
X110299500Y-86169500D02*
X112204500Y-86169500D01*
X114363500Y-88646000D02*
X113411000Y-88646000D01*
D11*
X110621428Y-82593571D02*
X110478571Y-82522142D01*
X110407142Y-82379285D01*
X110407142Y-81093571D01*
X111835714Y-82593571D02*
X111835714Y-81093571D01*
X111835714Y-82522142D02*
X111692857Y-82593571D01*
X111407142Y-82593571D01*
X111264285Y-82522142D01*
X111192857Y-82450714D01*
X111121428Y-82307857D01*
X111121428Y-81879285D01*
X111192857Y-81736428D01*
X111264285Y-81665000D01*
X111407142Y-81593571D01*
X111692857Y-81593571D01*
X111835714Y-81665000D01*
X110407142Y-85133571D02*
X110407142Y-84133571D01*
X110407142Y-84419285D02*
X110478571Y-84276428D01*
X110550000Y-84205000D01*
X110692857Y-84133571D01*
X110835714Y-84133571D01*
X111264285Y-85062142D02*
X111407142Y-85133571D01*
X111692857Y-85133571D01*
X111835714Y-85062142D01*
X111907142Y-84919285D01*
X111907142Y-84847857D01*
X111835714Y-84705000D01*
X111692857Y-84633571D01*
X111478571Y-84633571D01*
X111335714Y-84562142D01*
X111264285Y-84419285D01*
X111264285Y-84347857D01*
X111335714Y-84205000D01*
X111478571Y-84133571D01*
X111692857Y-84133571D01*
X111835714Y-84205000D01*
X112335714Y-84133571D02*
X112907142Y-84133571D01*
X112550000Y-83633571D02*
X112550000Y-84919285D01*
X112621428Y-85062142D01*
X112764285Y-85133571D01*
X112907142Y-85133571D01*
X111050000Y-87602142D02*
X110907142Y-87673571D01*
X110621428Y-87673571D01*
X110478571Y-87602142D01*
X110407142Y-87530714D01*
X110335714Y-87387857D01*
X110335714Y-86959285D01*
X110407142Y-86816428D01*
X110478571Y-86745000D01*
X110621428Y-86673571D01*
X110907142Y-86673571D01*
X111050000Y-86745000D01*
X111621428Y-87602142D02*
X111764285Y-87673571D01*
X112050000Y-87673571D01*
X112192857Y-87602142D01*
X112264285Y-87459285D01*
X112264285Y-87387857D01*
X112192857Y-87245000D01*
X112050000Y-87173571D01*
X111835714Y-87173571D01*
X111692857Y-87102142D01*
X111621428Y-86959285D01*
X111621428Y-86887857D01*
X111692857Y-86745000D01*
X111835714Y-86673571D01*
X112050000Y-86673571D01*
X112192857Y-86745000D01*
X111264285Y-90213571D02*
X110764285Y-89499285D01*
X110407142Y-90213571D02*
X110407142Y-88713571D01*
X110978571Y-88713571D01*
X111121428Y-88785000D01*
X111192857Y-88856428D01*
X111264285Y-88999285D01*
X111264285Y-89213571D01*
X111192857Y-89356428D01*
X111121428Y-89427857D01*
X110978571Y-89499285D01*
X110407142Y-89499285D01*
X112978571Y-88642142D02*
X111692857Y-90570714D01*
X113335714Y-89213571D02*
X113621428Y-90213571D01*
X113907142Y-89499285D01*
X114192857Y-90213571D01*
X114478571Y-89213571D01*
X110407142Y-92753571D02*
X110407142Y-91253571D01*
X110764285Y-91253571D01*
X110978571Y-91325000D01*
X111121428Y-91467857D01*
X111192857Y-91610714D01*
X111264285Y-91896428D01*
X111264285Y-92110714D01*
X111192857Y-92396428D01*
X111121428Y-92539285D01*
X110978571Y-92682142D01*
X110764285Y-92753571D01*
X110407142Y-92753571D01*
X112692857Y-92753571D02*
X111835714Y-92753571D01*
X112264285Y-92753571D02*
X112264285Y-91253571D01*
X112121428Y-91467857D01*
X111978571Y-91610714D01*
X111835714Y-91682142D01*
X114121428Y-92753571D02*
X113264285Y-92753571D01*
X113692857Y-92753571D02*
X113692857Y-91253571D01*
X113550000Y-91467857D01*
X113407142Y-91610714D01*
X113264285Y-91682142D01*
X110407142Y-95293571D02*
X110407142Y-93793571D01*
X110764285Y-93793571D01*
X110978571Y-93865000D01*
X111121428Y-94007857D01*
X111192857Y-94150714D01*
X111264285Y-94436428D01*
X111264285Y-94650714D01*
X111192857Y-94936428D01*
X111121428Y-95079285D01*
X110978571Y-95222142D01*
X110764285Y-95293571D01*
X110407142Y-95293571D01*
X112692857Y-95293571D02*
X111835714Y-95293571D01*
X112264285Y-95293571D02*
X112264285Y-93793571D01*
X112121428Y-94007857D01*
X111978571Y-94150714D01*
X111835714Y-94222142D01*
X113621428Y-93793571D02*
X113764285Y-93793571D01*
X113907142Y-93865000D01*
X113978571Y-93936428D01*
X114050000Y-94079285D01*
X114121428Y-94365000D01*
X114121428Y-94722142D01*
X114050000Y-95007857D01*
X113978571Y-95150714D01*
X113907142Y-95222142D01*
X113764285Y-95293571D01*
X113621428Y-95293571D01*
X113478571Y-95222142D01*
X113407142Y-95150714D01*
X113335714Y-95007857D01*
X113264285Y-94722142D01*
X113264285Y-94365000D01*
X113335714Y-94079285D01*
X113407142Y-93936428D01*
X113478571Y-93865000D01*
X113621428Y-93793571D01*
X110407142Y-97833571D02*
X110407142Y-96333571D01*
X110764285Y-96333571D01*
X110978571Y-96405000D01*
X111121428Y-96547857D01*
X111192857Y-96690714D01*
X111264285Y-96976428D01*
X111264285Y-97190714D01*
X111192857Y-97476428D01*
X111121428Y-97619285D01*
X110978571Y-97762142D01*
X110764285Y-97833571D01*
X110407142Y-97833571D01*
X111978571Y-97833571D02*
X112264285Y-97833571D01*
X112407142Y-97762142D01*
X112478571Y-97690714D01*
X112621428Y-97476428D01*
X112692857Y-97190714D01*
X112692857Y-96619285D01*
X112621428Y-96476428D01*
X112550000Y-96405000D01*
X112407142Y-96333571D01*
X112121428Y-96333571D01*
X111978571Y-96405000D01*
X111907142Y-96476428D01*
X111835714Y-96619285D01*
X111835714Y-96976428D01*
X111907142Y-97119285D01*
X111978571Y-97190714D01*
X112121428Y-97262142D01*
X112407142Y-97262142D01*
X112550000Y-97190714D01*
X112621428Y-97119285D01*
X112692857Y-96976428D01*
X110407142Y-100373571D02*
X110407142Y-98873571D01*
X110764285Y-98873571D01*
X110978571Y-98945000D01*
X111121428Y-99087857D01*
X111192857Y-99230714D01*
X111264285Y-99516428D01*
X111264285Y-99730714D01*
X111192857Y-100016428D01*
X111121428Y-100159285D01*
X110978571Y-100302142D01*
X110764285Y-100373571D01*
X110407142Y-100373571D01*
X112121428Y-99516428D02*
X111978571Y-99445000D01*
X111907142Y-99373571D01*
X111835714Y-99230714D01*
X111835714Y-99159285D01*
X111907142Y-99016428D01*
X111978571Y-98945000D01*
X112121428Y-98873571D01*
X112407142Y-98873571D01*
X112550000Y-98945000D01*
X112621428Y-99016428D01*
X112692857Y-99159285D01*
X112692857Y-99230714D01*
X112621428Y-99373571D01*
X112550000Y-99445000D01*
X112407142Y-99516428D01*
X112121428Y-99516428D01*
X111978571Y-99587857D01*
X111907142Y-99659285D01*
X111835714Y-99802142D01*
X111835714Y-100087857D01*
X111907142Y-100230714D01*
X111978571Y-100302142D01*
X112121428Y-100373571D01*
X112407142Y-100373571D01*
X112550000Y-100302142D01*
X112621428Y-100230714D01*
X112692857Y-100087857D01*
X112692857Y-99802142D01*
X112621428Y-99659285D01*
X112550000Y-99587857D01*
X112407142Y-99516428D01*
X110407142Y-102913571D02*
X110407142Y-101413571D01*
X110764285Y-101413571D01*
X110978571Y-101485000D01*
X111121428Y-101627857D01*
X111192857Y-101770714D01*
X111264285Y-102056428D01*
X111264285Y-102270714D01*
X111192857Y-102556428D01*
X111121428Y-102699285D01*
X110978571Y-102842142D01*
X110764285Y-102913571D01*
X110407142Y-102913571D01*
X111764285Y-101413571D02*
X112764285Y-101413571D01*
X112121428Y-102913571D01*
X110407142Y-105453571D02*
X110407142Y-103953571D01*
X110764285Y-103953571D01*
X110978571Y-104025000D01*
X111121428Y-104167857D01*
X111192857Y-104310714D01*
X111264285Y-104596428D01*
X111264285Y-104810714D01*
X111192857Y-105096428D01*
X111121428Y-105239285D01*
X110978571Y-105382142D01*
X110764285Y-105453571D01*
X110407142Y-105453571D01*
X112550000Y-103953571D02*
X112264285Y-103953571D01*
X112121428Y-104025000D01*
X112050000Y-104096428D01*
X111907142Y-104310714D01*
X111835714Y-104596428D01*
X111835714Y-105167857D01*
X111907142Y-105310714D01*
X111978571Y-105382142D01*
X112121428Y-105453571D01*
X112407142Y-105453571D01*
X112550000Y-105382142D01*
X112621428Y-105310714D01*
X112692857Y-105167857D01*
X112692857Y-104810714D01*
X112621428Y-104667857D01*
X112550000Y-104596428D01*
X112407142Y-104525000D01*
X112121428Y-104525000D01*
X111978571Y-104596428D01*
X111907142Y-104667857D01*
X111835714Y-104810714D01*
X110407142Y-107993571D02*
X110407142Y-106493571D01*
X110764285Y-106493571D01*
X110978571Y-106565000D01*
X111121428Y-106707857D01*
X111192857Y-106850714D01*
X111264285Y-107136428D01*
X111264285Y-107350714D01*
X111192857Y-107636428D01*
X111121428Y-107779285D01*
X110978571Y-107922142D01*
X110764285Y-107993571D01*
X110407142Y-107993571D01*
X112621428Y-106493571D02*
X111907142Y-106493571D01*
X111835714Y-107207857D01*
X111907142Y-107136428D01*
X112050000Y-107065000D01*
X112407142Y-107065000D01*
X112550000Y-107136428D01*
X112621428Y-107207857D01*
X112692857Y-107350714D01*
X112692857Y-107707857D01*
X112621428Y-107850714D01*
X112550000Y-107922142D01*
X112407142Y-107993571D01*
X112050000Y-107993571D01*
X111907142Y-107922142D01*
X111835714Y-107850714D01*
X110407142Y-110533571D02*
X110407142Y-109033571D01*
X110764285Y-109033571D01*
X110978571Y-109105000D01*
X111121428Y-109247857D01*
X111192857Y-109390714D01*
X111264285Y-109676428D01*
X111264285Y-109890714D01*
X111192857Y-110176428D01*
X111121428Y-110319285D01*
X110978571Y-110462142D01*
X110764285Y-110533571D01*
X110407142Y-110533571D01*
X112550000Y-109533571D02*
X112550000Y-110533571D01*
X112192857Y-108962142D02*
X111835714Y-110033571D01*
X112764285Y-110033571D01*
X110407142Y-113073571D02*
X110407142Y-111573571D01*
X110764285Y-111573571D01*
X110978571Y-111645000D01*
X111121428Y-111787857D01*
X111192857Y-111930714D01*
X111264285Y-112216428D01*
X111264285Y-112430714D01*
X111192857Y-112716428D01*
X111121428Y-112859285D01*
X110978571Y-113002142D01*
X110764285Y-113073571D01*
X110407142Y-113073571D01*
X111764285Y-111573571D02*
X112692857Y-111573571D01*
X112192857Y-112145000D01*
X112407142Y-112145000D01*
X112550000Y-112216428D01*
X112621428Y-112287857D01*
X112692857Y-112430714D01*
X112692857Y-112787857D01*
X112621428Y-112930714D01*
X112550000Y-113002142D01*
X112407142Y-113073571D01*
X111978571Y-113073571D01*
X111835714Y-113002142D01*
X111764285Y-112930714D01*
X110407142Y-115613571D02*
X110407142Y-114113571D01*
X110764285Y-114113571D01*
X110978571Y-114185000D01*
X111121428Y-114327857D01*
X111192857Y-114470714D01*
X111264285Y-114756428D01*
X111264285Y-114970714D01*
X111192857Y-115256428D01*
X111121428Y-115399285D01*
X110978571Y-115542142D01*
X110764285Y-115613571D01*
X110407142Y-115613571D01*
X111835714Y-114256428D02*
X111907142Y-114185000D01*
X112050000Y-114113571D01*
X112407142Y-114113571D01*
X112550000Y-114185000D01*
X112621428Y-114256428D01*
X112692857Y-114399285D01*
X112692857Y-114542142D01*
X112621428Y-114756428D01*
X111764285Y-115613571D01*
X112692857Y-115613571D01*
X110407142Y-118153571D02*
X110407142Y-116653571D01*
X110764285Y-116653571D01*
X110978571Y-116725000D01*
X111121428Y-116867857D01*
X111192857Y-117010714D01*
X111264285Y-117296428D01*
X111264285Y-117510714D01*
X111192857Y-117796428D01*
X111121428Y-117939285D01*
X110978571Y-118082142D01*
X110764285Y-118153571D01*
X110407142Y-118153571D01*
X112692857Y-118153571D02*
X111835714Y-118153571D01*
X112264285Y-118153571D02*
X112264285Y-116653571D01*
X112121428Y-116867857D01*
X111978571Y-117010714D01*
X111835714Y-117082142D01*
X110407142Y-120693571D02*
X110407142Y-119193571D01*
X110764285Y-119193571D01*
X110978571Y-119265000D01*
X111121428Y-119407857D01*
X111192857Y-119550714D01*
X111264285Y-119836428D01*
X111264285Y-120050714D01*
X111192857Y-120336428D01*
X111121428Y-120479285D01*
X110978571Y-120622142D01*
X110764285Y-120693571D01*
X110407142Y-120693571D01*
X112192857Y-119193571D02*
X112335714Y-119193571D01*
X112478571Y-119265000D01*
X112550000Y-119336428D01*
X112621428Y-119479285D01*
X112692857Y-119765000D01*
X112692857Y-120122142D01*
X112621428Y-120407857D01*
X112550000Y-120550714D01*
X112478571Y-120622142D01*
X112335714Y-120693571D01*
X112192857Y-120693571D01*
X112050000Y-120622142D01*
X111978571Y-120550714D01*
X111907142Y-120407857D01*
X111835714Y-120122142D01*
X111835714Y-119765000D01*
X111907142Y-119479285D01*
X111978571Y-119336428D01*
X112050000Y-119265000D01*
X112192857Y-119193571D01*
X118101785Y-133028571D02*
X117976785Y-134028571D01*
X117816071Y-132457142D02*
X117325000Y-133528571D01*
X118253571Y-133528571D01*
X118744642Y-133600000D02*
X119458928Y-133600000D01*
X118548214Y-134028571D02*
X119235714Y-132528571D01*
X119548214Y-134028571D01*
X121191071Y-134028571D02*
X121378571Y-132528571D01*
X121735714Y-132528571D01*
X121941071Y-132600000D01*
X122066071Y-132742857D01*
X122119642Y-132885714D01*
X122155357Y-133171428D01*
X122128571Y-133385714D01*
X122021428Y-133671428D01*
X121932142Y-133814285D01*
X121771428Y-133957142D01*
X121548214Y-134028571D01*
X121191071Y-134028571D01*
X122691071Y-134028571D02*
X122816071Y-133028571D01*
X122878571Y-132528571D02*
X122798214Y-132600000D01*
X122860714Y-132671428D01*
X122941071Y-132600000D01*
X122878571Y-132528571D01*
X122860714Y-132671428D01*
X123316071Y-133028571D02*
X123887500Y-133028571D01*
X123405357Y-134028571D02*
X123566071Y-132742857D01*
X123655357Y-132600000D01*
X123807142Y-132528571D01*
X123950000Y-132528571D01*
X124173214Y-133028571D02*
X124744642Y-133028571D01*
X124262500Y-134028571D02*
X124423214Y-132742857D01*
X124512500Y-132600000D01*
X124664285Y-132528571D01*
X124807142Y-132528571D01*
X125700000Y-133957142D02*
X125548214Y-134028571D01*
X125262500Y-134028571D01*
X125128571Y-133957142D01*
X125075000Y-133814285D01*
X125146428Y-133242857D01*
X125235714Y-133100000D01*
X125387500Y-133028571D01*
X125673214Y-133028571D01*
X125807142Y-133100000D01*
X125860714Y-133242857D01*
X125842857Y-133385714D01*
X125110714Y-133528571D01*
X126405357Y-134028571D02*
X126530357Y-133028571D01*
X126494642Y-133314285D02*
X126583928Y-133171428D01*
X126664285Y-133100000D01*
X126816071Y-133028571D01*
X126958928Y-133028571D01*
X127914285Y-133957142D02*
X127762500Y-134028571D01*
X127476785Y-134028571D01*
X127342857Y-133957142D01*
X127289285Y-133814285D01*
X127360714Y-133242857D01*
X127450000Y-133100000D01*
X127601785Y-133028571D01*
X127887500Y-133028571D01*
X128021428Y-133100000D01*
X128075000Y-133242857D01*
X128057142Y-133385714D01*
X127325000Y-133528571D01*
X128744642Y-133028571D02*
X128619642Y-134028571D01*
X128726785Y-133171428D02*
X128807142Y-133100000D01*
X128958928Y-133028571D01*
X129173214Y-133028571D01*
X129307142Y-133100000D01*
X129360714Y-133242857D01*
X129262500Y-134028571D01*
X129887500Y-133028571D02*
X130458928Y-133028571D01*
X130164285Y-132528571D02*
X130003571Y-133814285D01*
X130057142Y-133957142D01*
X130191071Y-134028571D01*
X130333928Y-134028571D01*
X130833928Y-134028571D02*
X130958928Y-133028571D01*
X131021428Y-132528571D02*
X130941071Y-132600000D01*
X131003571Y-132671428D01*
X131083928Y-132600000D01*
X131021428Y-132528571D01*
X131003571Y-132671428D01*
X132191071Y-134028571D02*
X132289285Y-133242857D01*
X132235714Y-133100000D01*
X132101785Y-133028571D01*
X131816071Y-133028571D01*
X131664285Y-133100000D01*
X132200000Y-133957142D02*
X132048214Y-134028571D01*
X131691071Y-134028571D01*
X131557142Y-133957142D01*
X131503571Y-133814285D01*
X131521428Y-133671428D01*
X131610714Y-133528571D01*
X131762500Y-133457142D01*
X132119642Y-133457142D01*
X132271428Y-133385714D01*
X133119642Y-134028571D02*
X132985714Y-133957142D01*
X132932142Y-133814285D01*
X133092857Y-132528571D01*
X134833928Y-134028571D02*
X135021428Y-132528571D01*
X135378571Y-132528571D01*
X135583928Y-132600000D01*
X135708928Y-132742857D01*
X135762500Y-132885714D01*
X135798214Y-133171428D01*
X135771428Y-133385714D01*
X135664285Y-133671428D01*
X135575000Y-133814285D01*
X135414285Y-133957142D01*
X135191071Y-134028571D01*
X134833928Y-134028571D01*
X136333928Y-134028571D02*
X136458928Y-133028571D01*
X136423214Y-133314285D02*
X136512500Y-133171428D01*
X136592857Y-133100000D01*
X136744642Y-133028571D01*
X136887500Y-133028571D01*
X137262500Y-134028571D02*
X137387500Y-133028571D01*
X137450000Y-132528571D02*
X137369642Y-132600000D01*
X137432142Y-132671428D01*
X137512500Y-132600000D01*
X137450000Y-132528571D01*
X137432142Y-132671428D01*
X137958928Y-133028571D02*
X138191071Y-134028571D01*
X138673214Y-133028571D01*
X139700000Y-133957142D02*
X139548214Y-134028571D01*
X139262500Y-134028571D01*
X139128571Y-133957142D01*
X139075000Y-133814285D01*
X139146428Y-133242857D01*
X139235714Y-133100000D01*
X139387500Y-133028571D01*
X139673214Y-133028571D01*
X139807142Y-133100000D01*
X139860714Y-133242857D01*
X139842857Y-133385714D01*
X139110714Y-133528571D01*
X140405357Y-134028571D02*
X140530357Y-133028571D01*
X140494642Y-133314285D02*
X140583928Y-133171428D01*
X140664285Y-133100000D01*
X140816071Y-133028571D01*
X140958928Y-133028571D01*
X142548214Y-133457142D02*
X143691071Y-133457142D01*
X145521428Y-132528571D02*
X146521428Y-132528571D01*
X145333928Y-134028571D01*
X146333928Y-134028571D01*
X147548214Y-134028571D02*
X147646428Y-133242857D01*
X147592857Y-133100000D01*
X147458928Y-133028571D01*
X147173214Y-133028571D01*
X147021428Y-133100000D01*
X147557142Y-133957142D02*
X147405357Y-134028571D01*
X147048214Y-134028571D01*
X146914285Y-133957142D01*
X146860714Y-133814285D01*
X146878571Y-133671428D01*
X146967857Y-133528571D01*
X147119642Y-133457142D01*
X147476785Y-133457142D01*
X147628571Y-133385714D01*
X148914285Y-133957142D02*
X148762500Y-134028571D01*
X148476785Y-134028571D01*
X148342857Y-133957142D01*
X148280357Y-133885714D01*
X148226785Y-133742857D01*
X148280357Y-133314285D01*
X148369642Y-133171428D01*
X148450000Y-133100000D01*
X148601785Y-133028571D01*
X148887500Y-133028571D01*
X149021428Y-133100000D01*
X149548214Y-134028571D02*
X149735714Y-132528571D01*
X150191071Y-134028571D02*
X150289285Y-133242857D01*
X150235714Y-133100000D01*
X150101785Y-133028571D01*
X149887500Y-133028571D01*
X149735714Y-133100000D01*
X149655357Y-133171428D01*
X152646428Y-133242857D02*
X152851785Y-133314285D01*
X152914285Y-133385714D01*
X152967857Y-133528571D01*
X152941071Y-133742857D01*
X152851785Y-133885714D01*
X152771428Y-133957142D01*
X152619642Y-134028571D01*
X152048214Y-134028571D01*
X152235714Y-132528571D01*
X152735714Y-132528571D01*
X152869642Y-132600000D01*
X152932142Y-132671428D01*
X152985714Y-132814285D01*
X152967857Y-132957142D01*
X152878571Y-133100000D01*
X152798214Y-133171428D01*
X152646428Y-133242857D01*
X152146428Y-133242857D01*
X154191071Y-134028571D02*
X154289285Y-133242857D01*
X154235714Y-133100000D01*
X154101785Y-133028571D01*
X153816071Y-133028571D01*
X153664285Y-133100000D01*
X154200000Y-133957142D02*
X154048214Y-134028571D01*
X153691071Y-134028571D01*
X153557142Y-133957142D01*
X153503571Y-133814285D01*
X153521428Y-133671428D01*
X153610714Y-133528571D01*
X153762500Y-133457142D01*
X154119642Y-133457142D01*
X154271428Y-133385714D01*
X155119642Y-134028571D02*
X154985714Y-133957142D01*
X154932142Y-133814285D01*
X155092857Y-132528571D01*
X156333928Y-134028571D02*
X156521428Y-132528571D01*
X156342857Y-133957142D02*
X156191071Y-134028571D01*
X155905357Y-134028571D01*
X155771428Y-133957142D01*
X155708928Y-133885714D01*
X155655357Y-133742857D01*
X155708928Y-133314285D01*
X155798214Y-133171428D01*
X155878571Y-133100000D01*
X156030357Y-133028571D01*
X156316071Y-133028571D01*
X156450000Y-133100000D01*
X157030357Y-133028571D02*
X157191071Y-134028571D01*
X157566071Y-133314285D01*
X157762500Y-134028571D01*
X158173214Y-133028571D01*
X158619642Y-134028571D02*
X158744642Y-133028571D01*
X158807142Y-132528571D02*
X158726785Y-132600000D01*
X158789285Y-132671428D01*
X158869642Y-132600000D01*
X158807142Y-132528571D01*
X158789285Y-132671428D01*
X159458928Y-133028571D02*
X159333928Y-134028571D01*
X159441071Y-133171428D02*
X159521428Y-133100000D01*
X159673214Y-133028571D01*
X159887500Y-133028571D01*
X160021428Y-133100000D01*
X160075000Y-133242857D01*
X159976785Y-134028571D01*
X161932142Y-132671428D02*
X162012500Y-132600000D01*
X162164285Y-132528571D01*
X162521428Y-132528571D01*
X162655357Y-132600000D01*
X162717857Y-132671428D01*
X162771428Y-132814285D01*
X162753571Y-132957142D01*
X162655357Y-133171428D01*
X161691071Y-134028571D01*
X162619642Y-134028571D01*
X163735714Y-132528571D02*
X163878571Y-132528571D01*
X164012500Y-132600000D01*
X164075000Y-132671428D01*
X164128571Y-132814285D01*
X164164285Y-133100000D01*
X164119642Y-133457142D01*
X164012500Y-133742857D01*
X163923214Y-133885714D01*
X163842857Y-133957142D01*
X163691071Y-134028571D01*
X163548214Y-134028571D01*
X163414285Y-133957142D01*
X163351785Y-133885714D01*
X163298214Y-133742857D01*
X163262500Y-133457142D01*
X163307142Y-133100000D01*
X163414285Y-132814285D01*
X163503571Y-132671428D01*
X163583928Y-132600000D01*
X163735714Y-132528571D01*
X164789285Y-132671428D02*
X164869642Y-132600000D01*
X165021428Y-132528571D01*
X165378571Y-132528571D01*
X165512500Y-132600000D01*
X165575000Y-132671428D01*
X165628571Y-132814285D01*
X165610714Y-132957142D01*
X165512500Y-133171428D01*
X164548214Y-134028571D01*
X165476785Y-134028571D01*
X166905357Y-134028571D02*
X166048214Y-134028571D01*
X166476785Y-134028571D02*
X166664285Y-132528571D01*
X166494642Y-132742857D01*
X166333928Y-132885714D01*
X166182142Y-132957142D01*
D12*
%TO.C,D2*%
X137868000Y-89754000D02*
X134928000Y-89754000D01*
X137868000Y-89994000D02*
X134928000Y-89994000D01*
X137868000Y-89874000D02*
X134928000Y-89874000D01*
X136398000Y-95434000D02*
X136398000Y-94414000D01*
X136398000Y-87954000D02*
X136398000Y-88974000D01*
X137868000Y-94414000D02*
X137868000Y-88974000D01*
X134928000Y-94414000D02*
X137868000Y-94414000D01*
X134928000Y-88974000D02*
X134928000Y-94414000D01*
X137868000Y-88974000D02*
X134928000Y-88974000D01*
%TO.C,IC1*%
X136525000Y-111420000D02*
X133600000Y-111420000D01*
X136525000Y-111420000D02*
X138025000Y-111420000D01*
X136525000Y-114640000D02*
X135025000Y-114640000D01*
X136525000Y-114640000D02*
X138025000Y-114640000D01*
%TO.C,U2*%
X119739000Y-86305000D02*
X123339000Y-86305000D01*
X123377478Y-86293478D02*
G75*
G03*
X121539000Y-81855000I-1838478J1838478D01*
G01*
X119700522Y-86293478D02*
G75*
G02*
X121539000Y-81855000I1838478J1838478D01*
G01*
D13*
%TO.C,IC3*%
X132630000Y-95444000D02*
X131530000Y-95444000D01*
X131180000Y-92459000D02*
X131180000Y-95359000D01*
X130880000Y-92459000D02*
X131180000Y-92459000D01*
X130880000Y-95359000D02*
X130880000Y-92459000D01*
X131180000Y-95359000D02*
X130880000Y-95359000D01*
%TO.C,IC2*%
X119040000Y-106685000D02*
X119040000Y-104885000D01*
X127290000Y-104535000D02*
X119090000Y-104535000D01*
X127290000Y-99935000D02*
X127290000Y-104535000D01*
X119090000Y-99935000D02*
X127290000Y-99935000D01*
X119090000Y-104535000D02*
X119090000Y-99935000D01*
D12*
%TO.C,J2*%
X104080000Y-80585000D02*
X105410000Y-80585000D01*
X104080000Y-81915000D02*
X104080000Y-80585000D01*
X106680000Y-80585000D02*
X109280000Y-80585000D01*
X106680000Y-83185000D02*
X106680000Y-80585000D01*
X104080000Y-83185000D02*
X106680000Y-83185000D01*
X109280000Y-80585000D02*
X109280000Y-121345000D01*
X104080000Y-83185000D02*
X104080000Y-121345000D01*
X104080000Y-121345000D02*
X109280000Y-121345000D01*
%TO.C,U7*%
X174215000Y-108716000D02*
X174215000Y-111330000D01*
X170815000Y-108716000D02*
X170815000Y-111330000D01*
X167415000Y-108716000D02*
X167415000Y-111346000D01*
X172665000Y-104075000D02*
X172665000Y-105584000D01*
X168965000Y-104075000D02*
X168965000Y-105584000D01*
X165694000Y-105584000D02*
X175935000Y-105584000D01*
X175935000Y-104075000D02*
X175935000Y-108716000D01*
X165694000Y-104075000D02*
X165694000Y-108716000D01*
X173580000Y-108716000D02*
X175935000Y-108716000D01*
X170180000Y-108716000D02*
X171450000Y-108716000D01*
X165694000Y-108716000D02*
X168050000Y-108716000D01*
X165694000Y-104075000D02*
X175935000Y-104075000D01*
%TO.C,U6*%
X174215000Y-90936000D02*
X174215000Y-93550000D01*
X170815000Y-90936000D02*
X170815000Y-93550000D01*
X167415000Y-90936000D02*
X167415000Y-93566000D01*
X172665000Y-86295000D02*
X172665000Y-87804000D01*
X168965000Y-86295000D02*
X168965000Y-87804000D01*
X165694000Y-87804000D02*
X175935000Y-87804000D01*
X175935000Y-86295000D02*
X175935000Y-90936000D01*
X165694000Y-86295000D02*
X165694000Y-90936000D01*
X173580000Y-90936000D02*
X175935000Y-90936000D01*
X170180000Y-90936000D02*
X171450000Y-90936000D01*
X165694000Y-90936000D02*
X168050000Y-90936000D01*
X165694000Y-86295000D02*
X175935000Y-86295000D01*
D14*
%TO.C,U5*%
X158100000Y-97995000D02*
X183500000Y-97995000D01*
X158100000Y-93145000D02*
X158100000Y-85295000D01*
X158100000Y-85295000D02*
X160300000Y-85295000D01*
X183500000Y-93145000D02*
X183500000Y-85295000D01*
X183500000Y-85295000D02*
X181300000Y-85295000D01*
X163800000Y-85295000D02*
X177800000Y-85295000D01*
%TO.C,U4*%
X158100000Y-115775000D02*
X183500000Y-115775000D01*
X158100000Y-110925000D02*
X158100000Y-103075000D01*
X158100000Y-103075000D02*
X160300000Y-103075000D01*
X183500000Y-110925000D02*
X183500000Y-103075000D01*
X183500000Y-103075000D02*
X181300000Y-103075000D01*
X163800000Y-103075000D02*
X177800000Y-103075000D01*
%TO.C,U3*%
X132065000Y-80605000D02*
X157465000Y-80605000D01*
X132065000Y-75755000D02*
X132065000Y-67905000D01*
X132065000Y-67905000D02*
X134265000Y-67905000D01*
X157465000Y-75755000D02*
X157465000Y-67905000D01*
X157465000Y-67905000D02*
X155265000Y-67905000D01*
X137765000Y-67905000D02*
X151765000Y-67905000D01*
D12*
%TO.C,U1*%
X146381000Y-72930000D02*
X146381000Y-73760000D01*
X146381000Y-70270000D02*
X146381000Y-71850000D01*
X143180000Y-73440000D02*
X143180000Y-73760000D01*
X143180000Y-70270000D02*
X143180000Y-71340000D01*
X148900000Y-70270000D02*
X148900000Y-73760000D01*
X140660000Y-70270000D02*
X140660000Y-73760000D01*
X140660000Y-73760000D02*
X148900000Y-73760000D01*
X140660000Y-70270000D02*
X148900000Y-70270000D01*
D15*
%TO.C,RN2*%
X114025905Y-78881665D02*
G75*
G03*
X114025905Y-78881665I-122235J0D01*
G01*
X114960000Y-78130000D02*
X117450000Y-78130000D01*
X114960000Y-100940000D02*
X114960000Y-78130000D01*
X117450000Y-100940000D02*
X114960000Y-100940000D01*
X117450000Y-78130000D02*
X117450000Y-100940000D01*
%TO.C,RN1*%
X118628565Y-124191335D02*
G75*
G03*
X118628565Y-124191335I-122235J0D01*
G01*
X117450000Y-124943000D02*
X114960000Y-124943000D01*
X117450000Y-102133000D02*
X117450000Y-124943000D01*
X114960000Y-102133000D02*
X117450000Y-102133000D01*
X114960000Y-124943000D02*
X114960000Y-102133000D01*
D14*
%TO.C,R13*%
X149660000Y-119150000D02*
X157760000Y-119150000D01*
X149660000Y-125960000D02*
X149660000Y-119150000D01*
X157760000Y-125960000D02*
X149660000Y-125960000D01*
X157760000Y-119150000D02*
X157760000Y-125960000D01*
D12*
%TO.C,R12*%
X174085000Y-101065000D02*
X174085000Y-100735000D01*
X167545000Y-101065000D02*
X174085000Y-101065000D01*
X167545000Y-100735000D02*
X167545000Y-101065000D01*
X174085000Y-98325000D02*
X174085000Y-98655000D01*
X167545000Y-98325000D02*
X174085000Y-98325000D01*
X167545000Y-98655000D02*
X167545000Y-98325000D01*
%TO.C,R11*%
X151665000Y-112490000D02*
X151995000Y-112490000D01*
X151665000Y-105950000D02*
X151665000Y-112490000D01*
X151995000Y-105950000D02*
X151665000Y-105950000D01*
X154405000Y-112490000D02*
X154075000Y-112490000D01*
X154405000Y-105950000D02*
X154405000Y-112490000D01*
X154075000Y-105950000D02*
X154405000Y-105950000D01*
%TO.C,R10*%
X154405000Y-88170000D02*
X154075000Y-88170000D01*
X154405000Y-94710000D02*
X154405000Y-88170000D01*
X154075000Y-94710000D02*
X154405000Y-94710000D01*
X151665000Y-88170000D02*
X151995000Y-88170000D01*
X151665000Y-94710000D02*
X151665000Y-88170000D01*
X151995000Y-94710000D02*
X151665000Y-94710000D01*
D14*
%TO.C,R9*%
X150100000Y-105640000D02*
X142000000Y-105640000D01*
X150100000Y-98830000D02*
X150100000Y-105640000D01*
X142000000Y-98830000D02*
X150100000Y-98830000D01*
X142000000Y-105640000D02*
X142000000Y-98830000D01*
D12*
%TO.C,R8*%
X142335000Y-110590000D02*
X142335000Y-110260000D01*
X135795000Y-110590000D02*
X142335000Y-110590000D01*
X135795000Y-110260000D02*
X135795000Y-110590000D01*
X142335000Y-107850000D02*
X142335000Y-108180000D01*
X135795000Y-107850000D02*
X142335000Y-107850000D01*
X135795000Y-108180000D02*
X135795000Y-107850000D01*
%TO.C,R7*%
X144680000Y-125190000D02*
X145010000Y-125190000D01*
X144680000Y-118650000D02*
X144680000Y-125190000D01*
X145010000Y-118650000D02*
X144680000Y-118650000D01*
X147420000Y-125190000D02*
X147090000Y-125190000D01*
X147420000Y-118650000D02*
X147420000Y-125190000D01*
X147090000Y-118650000D02*
X147420000Y-118650000D01*
%TO.C,R6*%
X142975000Y-118650000D02*
X142645000Y-118650000D01*
X142975000Y-125190000D02*
X142975000Y-118650000D01*
X142645000Y-125190000D02*
X142975000Y-125190000D01*
X140235000Y-118650000D02*
X140565000Y-118650000D01*
X140235000Y-125190000D02*
X140235000Y-118650000D01*
X140565000Y-125190000D02*
X140235000Y-125190000D01*
%TO.C,R5*%
X132180000Y-102140000D02*
X131850000Y-102140000D01*
X132180000Y-108680000D02*
X132180000Y-102140000D01*
X131850000Y-108680000D02*
X132180000Y-108680000D01*
X129440000Y-102140000D02*
X129770000Y-102140000D01*
X129440000Y-108680000D02*
X129440000Y-102140000D01*
X129770000Y-108680000D02*
X129440000Y-108680000D01*
D14*
%TO.C,R4*%
X137390000Y-117870000D02*
X137390000Y-125970000D01*
X130580000Y-117870000D02*
X137390000Y-117870000D01*
X130580000Y-125970000D02*
X130580000Y-117870000D01*
X137390000Y-125970000D02*
X130580000Y-125970000D01*
D12*
%TO.C,R3*%
X119280000Y-95345000D02*
X119610000Y-95345000D01*
X119280000Y-88805000D02*
X119280000Y-95345000D01*
X119610000Y-88805000D02*
X119280000Y-88805000D01*
X122020000Y-95345000D02*
X121690000Y-95345000D01*
X122020000Y-88805000D02*
X122020000Y-95345000D01*
X121690000Y-88805000D02*
X122020000Y-88805000D01*
%TO.C,R2*%
X120555000Y-78005000D02*
X120555000Y-78335000D01*
X127095000Y-78005000D02*
X120555000Y-78005000D01*
X127095000Y-78335000D02*
X127095000Y-78005000D01*
X120555000Y-80745000D02*
X120555000Y-80415000D01*
X127095000Y-80745000D02*
X120555000Y-80745000D01*
X127095000Y-80415000D02*
X127095000Y-80745000D01*
%TO.C,R1*%
X146780000Y-93445000D02*
X146780000Y-93115000D01*
X140240000Y-93445000D02*
X146780000Y-93445000D01*
X140240000Y-93115000D02*
X140240000Y-93445000D01*
X146780000Y-90705000D02*
X146780000Y-91035000D01*
X140240000Y-90705000D02*
X146780000Y-90705000D01*
X140240000Y-91035000D02*
X140240000Y-90705000D01*
%TO.C,J3*%
X187960000Y-96520000D02*
X187960000Y-106680000D01*
X195580000Y-96520000D02*
X187960000Y-96520000D01*
X195580000Y-106680000D02*
X195580000Y-96520000D01*
X187960000Y-106680000D02*
X195580000Y-106680000D01*
X189230000Y-106680000D02*
X189230000Y-96520000D01*
%TO.C,J1*%
X118110000Y-75565000D02*
X128270000Y-75565000D01*
X118110000Y-67945000D02*
X118110000Y-75565000D01*
X128270000Y-67945000D02*
X118110000Y-67945000D01*
X128270000Y-75565000D02*
X128270000Y-67945000D01*
X128270000Y-74295000D02*
X118110000Y-74295000D01*
%TO.C,D6*%
X194510000Y-112995000D02*
X191570000Y-112995000D01*
X194510000Y-113235000D02*
X191570000Y-113235000D01*
X194510000Y-113115000D02*
X191570000Y-113115000D01*
X193040000Y-118675000D02*
X193040000Y-117655000D01*
X193040000Y-111195000D02*
X193040000Y-112215000D01*
X194510000Y-117655000D02*
X194510000Y-112215000D01*
X191570000Y-117655000D02*
X194510000Y-117655000D01*
X191570000Y-112215000D02*
X191570000Y-117655000D01*
X194510000Y-112215000D02*
X191570000Y-112215000D01*
%TO.C,D5*%
X187760000Y-116875000D02*
X190700000Y-116875000D01*
X187760000Y-116635000D02*
X190700000Y-116635000D01*
X187760000Y-116755000D02*
X190700000Y-116755000D01*
X189230000Y-111195000D02*
X189230000Y-112215000D01*
X189230000Y-118675000D02*
X189230000Y-117655000D01*
X187760000Y-112215000D02*
X187760000Y-117655000D01*
X190700000Y-112215000D02*
X187760000Y-112215000D01*
X190700000Y-117655000D02*
X190700000Y-112215000D01*
X187760000Y-117655000D02*
X190700000Y-117655000D01*
%TO.C,D4*%
X191570000Y-88935000D02*
X194510000Y-88935000D01*
X191570000Y-88695000D02*
X194510000Y-88695000D01*
X191570000Y-88815000D02*
X194510000Y-88815000D01*
X193040000Y-83255000D02*
X193040000Y-84275000D01*
X193040000Y-90735000D02*
X193040000Y-89715000D01*
X191570000Y-84275000D02*
X191570000Y-89715000D01*
X194510000Y-84275000D02*
X191570000Y-84275000D01*
X194510000Y-89715000D02*
X194510000Y-84275000D01*
X191570000Y-89715000D02*
X194510000Y-89715000D01*
%TO.C,D3*%
X190700000Y-85055000D02*
X187760000Y-85055000D01*
X190700000Y-85295000D02*
X187760000Y-85295000D01*
X190700000Y-85175000D02*
X187760000Y-85175000D01*
X189230000Y-90735000D02*
X189230000Y-89715000D01*
X189230000Y-83255000D02*
X189230000Y-84275000D01*
X190700000Y-89715000D02*
X190700000Y-84275000D01*
X187760000Y-89715000D02*
X190700000Y-89715000D01*
X187760000Y-84275000D02*
X187760000Y-89715000D01*
X190700000Y-84275000D02*
X187760000Y-84275000D01*
%TO.C,D1*%
X142840000Y-76000000D02*
X142840000Y-78940000D01*
X143080000Y-76000000D02*
X143080000Y-78940000D01*
X142960000Y-76000000D02*
X142960000Y-78940000D01*
X148520000Y-77470000D02*
X147500000Y-77470000D01*
X141040000Y-77470000D02*
X142060000Y-77470000D01*
X147500000Y-76000000D02*
X142060000Y-76000000D01*
X147500000Y-78940000D02*
X147500000Y-76000000D01*
X142060000Y-78940000D02*
X147500000Y-78940000D01*
X142060000Y-76000000D02*
X142060000Y-78940000D01*
%TO.C,C9*%
X144995000Y-113990000D02*
X144980000Y-113990000D01*
X147120000Y-113990000D02*
X147105000Y-113990000D01*
X144995000Y-109450000D02*
X144980000Y-109450000D01*
X147120000Y-109450000D02*
X147105000Y-109450000D01*
X144980000Y-109450000D02*
X144980000Y-113990000D01*
X147120000Y-109450000D02*
X147120000Y-113990000D01*
%TO.C,C8*%
X125642000Y-91496000D02*
X125657000Y-91496000D01*
X123517000Y-91496000D02*
X123532000Y-91496000D01*
X125642000Y-96036000D02*
X125657000Y-96036000D01*
X123517000Y-96036000D02*
X123532000Y-96036000D01*
X125657000Y-96036000D02*
X125657000Y-91496000D01*
X123517000Y-96036000D02*
X123517000Y-91496000D01*
%TO.C,C7*%
X128309000Y-91496000D02*
X128324000Y-91496000D01*
X126184000Y-91496000D02*
X126199000Y-91496000D01*
X128309000Y-96036000D02*
X128324000Y-96036000D01*
X126184000Y-96036000D02*
X126199000Y-96036000D01*
X128324000Y-96036000D02*
X128324000Y-91496000D01*
X126184000Y-96036000D02*
X126184000Y-91496000D01*
%TO.C,C6*%
X169264698Y-80820000D02*
X169264698Y-80020000D01*
X169664698Y-80420000D02*
X168864698Y-80420000D01*
X161174000Y-78638000D02*
X161174000Y-77572000D01*
X161214000Y-78873000D02*
X161214000Y-77337000D01*
X161254000Y-79053000D02*
X161254000Y-77157000D01*
X161294000Y-79203000D02*
X161294000Y-77007000D01*
X161334000Y-79334000D02*
X161334000Y-76876000D01*
X161374000Y-79451000D02*
X161374000Y-76759000D01*
X161414000Y-79558000D02*
X161414000Y-76652000D01*
X161454000Y-79657000D02*
X161454000Y-76553000D01*
X161494000Y-79750000D02*
X161494000Y-76460000D01*
X161534000Y-79836000D02*
X161534000Y-76374000D01*
X161574000Y-79918000D02*
X161574000Y-76292000D01*
X161614000Y-79995000D02*
X161614000Y-76215000D01*
X161654000Y-80069000D02*
X161654000Y-76141000D01*
X161694000Y-80139000D02*
X161694000Y-76071000D01*
X161734000Y-80207000D02*
X161734000Y-76003000D01*
X161774000Y-80271000D02*
X161774000Y-75939000D01*
X161814000Y-80333000D02*
X161814000Y-75877000D01*
X161854000Y-80392000D02*
X161854000Y-75818000D01*
X161894000Y-80450000D02*
X161894000Y-75760000D01*
X161934000Y-80505000D02*
X161934000Y-75705000D01*
X161974000Y-80559000D02*
X161974000Y-75651000D01*
X162014000Y-80610000D02*
X162014000Y-75600000D01*
X162054000Y-80661000D02*
X162054000Y-75549000D01*
X162094000Y-80709000D02*
X162094000Y-75501000D01*
X162134000Y-80756000D02*
X162134000Y-75454000D01*
X162174000Y-80802000D02*
X162174000Y-75408000D01*
X162214000Y-80846000D02*
X162214000Y-75364000D01*
X162254000Y-80889000D02*
X162254000Y-75321000D01*
X162294000Y-80931000D02*
X162294000Y-75279000D01*
X162334000Y-80972000D02*
X162334000Y-75238000D01*
X162374000Y-81012000D02*
X162374000Y-75198000D01*
X162414000Y-81050000D02*
X162414000Y-75160000D01*
X162454000Y-81088000D02*
X162454000Y-75122000D01*
X162494000Y-77065000D02*
X162494000Y-75086000D01*
X162494000Y-81124000D02*
X162494000Y-79145000D01*
X162534000Y-77065000D02*
X162534000Y-75050000D01*
X162534000Y-81160000D02*
X162534000Y-79145000D01*
X162574000Y-77065000D02*
X162574000Y-75015000D01*
X162574000Y-81195000D02*
X162574000Y-79145000D01*
X162614000Y-77065000D02*
X162614000Y-74981000D01*
X162614000Y-81229000D02*
X162614000Y-79145000D01*
X162654000Y-77065000D02*
X162654000Y-74949000D01*
X162654000Y-81261000D02*
X162654000Y-79145000D01*
X162694000Y-77065000D02*
X162694000Y-74916000D01*
X162694000Y-81294000D02*
X162694000Y-79145000D01*
X162734000Y-77065000D02*
X162734000Y-74885000D01*
X162734000Y-81325000D02*
X162734000Y-79145000D01*
X162774000Y-77065000D02*
X162774000Y-74855000D01*
X162774000Y-81355000D02*
X162774000Y-79145000D01*
X162814000Y-77065000D02*
X162814000Y-74825000D01*
X162814000Y-81385000D02*
X162814000Y-79145000D01*
X162854000Y-77065000D02*
X162854000Y-74796000D01*
X162854000Y-81414000D02*
X162854000Y-79145000D01*
X162894000Y-77065000D02*
X162894000Y-74767000D01*
X162894000Y-81443000D02*
X162894000Y-79145000D01*
X162934000Y-77065000D02*
X162934000Y-74740000D01*
X162934000Y-81470000D02*
X162934000Y-79145000D01*
X162974000Y-77065000D02*
X162974000Y-74713000D01*
X162974000Y-81497000D02*
X162974000Y-79145000D01*
X163014000Y-77065000D02*
X163014000Y-74687000D01*
X163014000Y-81523000D02*
X163014000Y-79145000D01*
X163054000Y-77065000D02*
X163054000Y-74661000D01*
X163054000Y-81549000D02*
X163054000Y-79145000D01*
X163094000Y-77065000D02*
X163094000Y-74636000D01*
X163094000Y-81574000D02*
X163094000Y-79145000D01*
X163134000Y-77065000D02*
X163134000Y-74612000D01*
X163134000Y-81598000D02*
X163134000Y-79145000D01*
X163174000Y-77065000D02*
X163174000Y-74588000D01*
X163174000Y-81622000D02*
X163174000Y-79145000D01*
X163214000Y-77065000D02*
X163214000Y-74565000D01*
X163214000Y-81645000D02*
X163214000Y-79145000D01*
X163254000Y-77065000D02*
X163254000Y-74543000D01*
X163254000Y-81667000D02*
X163254000Y-79145000D01*
X163294000Y-77065000D02*
X163294000Y-74521000D01*
X163294000Y-81689000D02*
X163294000Y-79145000D01*
X163334000Y-77065000D02*
X163334000Y-74499000D01*
X163334000Y-81711000D02*
X163334000Y-79145000D01*
X163374000Y-77065000D02*
X163374000Y-74478000D01*
X163374000Y-81732000D02*
X163374000Y-79145000D01*
X163414000Y-77065000D02*
X163414000Y-74458000D01*
X163414000Y-81752000D02*
X163414000Y-79145000D01*
X163454000Y-77065000D02*
X163454000Y-74439000D01*
X163454000Y-81771000D02*
X163454000Y-79145000D01*
X163494000Y-77065000D02*
X163494000Y-74419000D01*
X163494000Y-81791000D02*
X163494000Y-79145000D01*
X163534000Y-77065000D02*
X163534000Y-74401000D01*
X163534000Y-81809000D02*
X163534000Y-79145000D01*
X163574000Y-77065000D02*
X163574000Y-74383000D01*
X163574000Y-81827000D02*
X163574000Y-79145000D01*
X163614000Y-77065000D02*
X163614000Y-74365000D01*
X163614000Y-81845000D02*
X163614000Y-79145000D01*
X163654000Y-77065000D02*
X163654000Y-74348000D01*
X163654000Y-81862000D02*
X163654000Y-79145000D01*
X163694000Y-77065000D02*
X163694000Y-74331000D01*
X163694000Y-81879000D02*
X163694000Y-79145000D01*
X163734000Y-77065000D02*
X163734000Y-74315000D01*
X163734000Y-81895000D02*
X163734000Y-79145000D01*
X163774000Y-77065000D02*
X163774000Y-74300000D01*
X163774000Y-81910000D02*
X163774000Y-79145000D01*
X163814000Y-77065000D02*
X163814000Y-74284000D01*
X163814000Y-81926000D02*
X163814000Y-79145000D01*
X163854000Y-77065000D02*
X163854000Y-74270000D01*
X163854000Y-81940000D02*
X163854000Y-79145000D01*
X163894000Y-77065000D02*
X163894000Y-74255000D01*
X163894000Y-81955000D02*
X163894000Y-79145000D01*
X163934000Y-77065000D02*
X163934000Y-74242000D01*
X163934000Y-81968000D02*
X163934000Y-79145000D01*
X163974000Y-77065000D02*
X163974000Y-74228000D01*
X163974000Y-81982000D02*
X163974000Y-79145000D01*
X164014000Y-77065000D02*
X164014000Y-74216000D01*
X164014000Y-81994000D02*
X164014000Y-79145000D01*
X164054000Y-77065000D02*
X164054000Y-74203000D01*
X164054000Y-82007000D02*
X164054000Y-79145000D01*
X164094000Y-77065000D02*
X164094000Y-74191000D01*
X164094000Y-82019000D02*
X164094000Y-79145000D01*
X164134000Y-77065000D02*
X164134000Y-74180000D01*
X164134000Y-82030000D02*
X164134000Y-79145000D01*
X164174000Y-77065000D02*
X164174000Y-74169000D01*
X164174000Y-82041000D02*
X164174000Y-79145000D01*
X164214000Y-77065000D02*
X164214000Y-74158000D01*
X164214000Y-82052000D02*
X164214000Y-79145000D01*
X164254000Y-77065000D02*
X164254000Y-74148000D01*
X164254000Y-82062000D02*
X164254000Y-79145000D01*
X164294000Y-77065000D02*
X164294000Y-74138000D01*
X164294000Y-82072000D02*
X164294000Y-79145000D01*
X164334000Y-77065000D02*
X164334000Y-74129000D01*
X164334000Y-82081000D02*
X164334000Y-79145000D01*
X164374000Y-77065000D02*
X164374000Y-74120000D01*
X164374000Y-82090000D02*
X164374000Y-79145000D01*
X164414000Y-77065000D02*
X164414000Y-74111000D01*
X164414000Y-82099000D02*
X164414000Y-79145000D01*
X164454000Y-77065000D02*
X164454000Y-74103000D01*
X164454000Y-82107000D02*
X164454000Y-79145000D01*
X164494000Y-77065000D02*
X164494000Y-74095000D01*
X164494000Y-82115000D02*
X164494000Y-79145000D01*
X164534000Y-77065000D02*
X164534000Y-74088000D01*
X164534000Y-82122000D02*
X164534000Y-79145000D01*
X164575000Y-82129000D02*
X164575000Y-74081000D01*
X164615000Y-82135000D02*
X164615000Y-74075000D01*
X164655000Y-82142000D02*
X164655000Y-74068000D01*
X164695000Y-82147000D02*
X164695000Y-74063000D01*
X164735000Y-82153000D02*
X164735000Y-74057000D01*
X164775000Y-82157000D02*
X164775000Y-74053000D01*
X164815000Y-82162000D02*
X164815000Y-74048000D01*
X164855000Y-82166000D02*
X164855000Y-74044000D01*
X164895000Y-82170000D02*
X164895000Y-74040000D01*
X164935000Y-82173000D02*
X164935000Y-74037000D01*
X164975000Y-82176000D02*
X164975000Y-74034000D01*
X165015000Y-82179000D02*
X165015000Y-74031000D01*
X165055000Y-82181000D02*
X165055000Y-74029000D01*
X165095000Y-82182000D02*
X165095000Y-74028000D01*
X165135000Y-82184000D02*
X165135000Y-74026000D01*
X165175000Y-82185000D02*
X165175000Y-74025000D01*
X165215000Y-82185000D02*
X165215000Y-74025000D01*
X165255000Y-82185000D02*
X165255000Y-74025000D01*
X169375000Y-78105000D02*
G75*
G03*
X169375000Y-78105000I-4120000J0D01*
G01*
%TO.C,C5*%
X143970000Y-89254698D02*
X144770000Y-89254698D01*
X144370000Y-89654698D02*
X144370000Y-88854698D01*
X146152000Y-81164000D02*
X147218000Y-81164000D01*
X145917000Y-81204000D02*
X147453000Y-81204000D01*
X145737000Y-81244000D02*
X147633000Y-81244000D01*
X145587000Y-81284000D02*
X147783000Y-81284000D01*
X145456000Y-81324000D02*
X147914000Y-81324000D01*
X145339000Y-81364000D02*
X148031000Y-81364000D01*
X145232000Y-81404000D02*
X148138000Y-81404000D01*
X145133000Y-81444000D02*
X148237000Y-81444000D01*
X145040000Y-81484000D02*
X148330000Y-81484000D01*
X144954000Y-81524000D02*
X148416000Y-81524000D01*
X144872000Y-81564000D02*
X148498000Y-81564000D01*
X144795000Y-81604000D02*
X148575000Y-81604000D01*
X144721000Y-81644000D02*
X148649000Y-81644000D01*
X144651000Y-81684000D02*
X148719000Y-81684000D01*
X144583000Y-81724000D02*
X148787000Y-81724000D01*
X144519000Y-81764000D02*
X148851000Y-81764000D01*
X144457000Y-81804000D02*
X148913000Y-81804000D01*
X144398000Y-81844000D02*
X148972000Y-81844000D01*
X144340000Y-81884000D02*
X149030000Y-81884000D01*
X144285000Y-81924000D02*
X149085000Y-81924000D01*
X144231000Y-81964000D02*
X149139000Y-81964000D01*
X144180000Y-82004000D02*
X149190000Y-82004000D01*
X144129000Y-82044000D02*
X149241000Y-82044000D01*
X144081000Y-82084000D02*
X149289000Y-82084000D01*
X144034000Y-82124000D02*
X149336000Y-82124000D01*
X143988000Y-82164000D02*
X149382000Y-82164000D01*
X143944000Y-82204000D02*
X149426000Y-82204000D01*
X143901000Y-82244000D02*
X149469000Y-82244000D01*
X143859000Y-82284000D02*
X149511000Y-82284000D01*
X143818000Y-82324000D02*
X149552000Y-82324000D01*
X143778000Y-82364000D02*
X149592000Y-82364000D01*
X143740000Y-82404000D02*
X149630000Y-82404000D01*
X143702000Y-82444000D02*
X149668000Y-82444000D01*
X147725000Y-82484000D02*
X149704000Y-82484000D01*
X143666000Y-82484000D02*
X145645000Y-82484000D01*
X147725000Y-82524000D02*
X149740000Y-82524000D01*
X143630000Y-82524000D02*
X145645000Y-82524000D01*
X147725000Y-82564000D02*
X149775000Y-82564000D01*
X143595000Y-82564000D02*
X145645000Y-82564000D01*
X147725000Y-82604000D02*
X149809000Y-82604000D01*
X143561000Y-82604000D02*
X145645000Y-82604000D01*
X147725000Y-82644000D02*
X149841000Y-82644000D01*
X143529000Y-82644000D02*
X145645000Y-82644000D01*
X147725000Y-82684000D02*
X149874000Y-82684000D01*
X143496000Y-82684000D02*
X145645000Y-82684000D01*
X147725000Y-82724000D02*
X149905000Y-82724000D01*
X143465000Y-82724000D02*
X145645000Y-82724000D01*
X147725000Y-82764000D02*
X149935000Y-82764000D01*
X143435000Y-82764000D02*
X145645000Y-82764000D01*
X147725000Y-82804000D02*
X149965000Y-82804000D01*
X143405000Y-82804000D02*
X145645000Y-82804000D01*
X147725000Y-82844000D02*
X149994000Y-82844000D01*
X143376000Y-82844000D02*
X145645000Y-82844000D01*
X147725000Y-82884000D02*
X150023000Y-82884000D01*
X143347000Y-82884000D02*
X145645000Y-82884000D01*
X147725000Y-82924000D02*
X150050000Y-82924000D01*
X143320000Y-82924000D02*
X145645000Y-82924000D01*
X147725000Y-82964000D02*
X150077000Y-82964000D01*
X143293000Y-82964000D02*
X145645000Y-82964000D01*
X147725000Y-83004000D02*
X150103000Y-83004000D01*
X143267000Y-83004000D02*
X145645000Y-83004000D01*
X147725000Y-83044000D02*
X150129000Y-83044000D01*
X143241000Y-83044000D02*
X145645000Y-83044000D01*
X147725000Y-83084000D02*
X150154000Y-83084000D01*
X143216000Y-83084000D02*
X145645000Y-83084000D01*
X147725000Y-83124000D02*
X150178000Y-83124000D01*
X143192000Y-83124000D02*
X145645000Y-83124000D01*
X147725000Y-83164000D02*
X150202000Y-83164000D01*
X143168000Y-83164000D02*
X145645000Y-83164000D01*
X147725000Y-83204000D02*
X150225000Y-83204000D01*
X143145000Y-83204000D02*
X145645000Y-83204000D01*
X147725000Y-83244000D02*
X150247000Y-83244000D01*
X143123000Y-83244000D02*
X145645000Y-83244000D01*
X147725000Y-83284000D02*
X150269000Y-83284000D01*
X143101000Y-83284000D02*
X145645000Y-83284000D01*
X147725000Y-83324000D02*
X150291000Y-83324000D01*
X143079000Y-83324000D02*
X145645000Y-83324000D01*
X147725000Y-83364000D02*
X150312000Y-83364000D01*
X143058000Y-83364000D02*
X145645000Y-83364000D01*
X147725000Y-83404000D02*
X150332000Y-83404000D01*
X143038000Y-83404000D02*
X145645000Y-83404000D01*
X147725000Y-83444000D02*
X150351000Y-83444000D01*
X143019000Y-83444000D02*
X145645000Y-83444000D01*
X147725000Y-83484000D02*
X150371000Y-83484000D01*
X142999000Y-83484000D02*
X145645000Y-83484000D01*
X147725000Y-83524000D02*
X150389000Y-83524000D01*
X142981000Y-83524000D02*
X145645000Y-83524000D01*
X147725000Y-83564000D02*
X150407000Y-83564000D01*
X142963000Y-83564000D02*
X145645000Y-83564000D01*
X147725000Y-83604000D02*
X150425000Y-83604000D01*
X142945000Y-83604000D02*
X145645000Y-83604000D01*
X147725000Y-83644000D02*
X150442000Y-83644000D01*
X142928000Y-83644000D02*
X145645000Y-83644000D01*
X147725000Y-83684000D02*
X150459000Y-83684000D01*
X142911000Y-83684000D02*
X145645000Y-83684000D01*
X147725000Y-83724000D02*
X150475000Y-83724000D01*
X142895000Y-83724000D02*
X145645000Y-83724000D01*
X147725000Y-83764000D02*
X150490000Y-83764000D01*
X142880000Y-83764000D02*
X145645000Y-83764000D01*
X147725000Y-83804000D02*
X150506000Y-83804000D01*
X142864000Y-83804000D02*
X145645000Y-83804000D01*
X147725000Y-83844000D02*
X150520000Y-83844000D01*
X142850000Y-83844000D02*
X145645000Y-83844000D01*
X147725000Y-83884000D02*
X150535000Y-83884000D01*
X142835000Y-83884000D02*
X145645000Y-83884000D01*
X147725000Y-83924000D02*
X150548000Y-83924000D01*
X142822000Y-83924000D02*
X145645000Y-83924000D01*
X147725000Y-83964000D02*
X150562000Y-83964000D01*
X142808000Y-83964000D02*
X145645000Y-83964000D01*
X147725000Y-84004000D02*
X150574000Y-84004000D01*
X142796000Y-84004000D02*
X145645000Y-84004000D01*
X147725000Y-84044000D02*
X150587000Y-84044000D01*
X142783000Y-84044000D02*
X145645000Y-84044000D01*
X147725000Y-84084000D02*
X150599000Y-84084000D01*
X142771000Y-84084000D02*
X145645000Y-84084000D01*
X147725000Y-84124000D02*
X150610000Y-84124000D01*
X142760000Y-84124000D02*
X145645000Y-84124000D01*
X147725000Y-84164000D02*
X150621000Y-84164000D01*
X142749000Y-84164000D02*
X145645000Y-84164000D01*
X147725000Y-84204000D02*
X150632000Y-84204000D01*
X142738000Y-84204000D02*
X145645000Y-84204000D01*
X147725000Y-84244000D02*
X150642000Y-84244000D01*
X142728000Y-84244000D02*
X145645000Y-84244000D01*
X147725000Y-84284000D02*
X150652000Y-84284000D01*
X142718000Y-84284000D02*
X145645000Y-84284000D01*
X147725000Y-84324000D02*
X150661000Y-84324000D01*
X142709000Y-84324000D02*
X145645000Y-84324000D01*
X147725000Y-84364000D02*
X150670000Y-84364000D01*
X142700000Y-84364000D02*
X145645000Y-84364000D01*
X147725000Y-84404000D02*
X150679000Y-84404000D01*
X142691000Y-84404000D02*
X145645000Y-84404000D01*
X147725000Y-84444000D02*
X150687000Y-84444000D01*
X142683000Y-84444000D02*
X145645000Y-84444000D01*
X147725000Y-84484000D02*
X150695000Y-84484000D01*
X142675000Y-84484000D02*
X145645000Y-84484000D01*
X147725000Y-84524000D02*
X150702000Y-84524000D01*
X142668000Y-84524000D02*
X145645000Y-84524000D01*
X142661000Y-84565000D02*
X150709000Y-84565000D01*
X142655000Y-84605000D02*
X150715000Y-84605000D01*
X142648000Y-84645000D02*
X150722000Y-84645000D01*
X142643000Y-84685000D02*
X150727000Y-84685000D01*
X142637000Y-84725000D02*
X150733000Y-84725000D01*
X142633000Y-84765000D02*
X150737000Y-84765000D01*
X142628000Y-84805000D02*
X150742000Y-84805000D01*
X142624000Y-84845000D02*
X150746000Y-84845000D01*
X142620000Y-84885000D02*
X150750000Y-84885000D01*
X142617000Y-84925000D02*
X150753000Y-84925000D01*
X142614000Y-84965000D02*
X150756000Y-84965000D01*
X142611000Y-85005000D02*
X150759000Y-85005000D01*
X142609000Y-85045000D02*
X150761000Y-85045000D01*
X142608000Y-85085000D02*
X150762000Y-85085000D01*
X142606000Y-85125000D02*
X150764000Y-85125000D01*
X142605000Y-85165000D02*
X150765000Y-85165000D01*
X142605000Y-85205000D02*
X150765000Y-85205000D01*
X142605000Y-85245000D02*
X150765000Y-85245000D01*
X150805000Y-85245000D02*
G75*
G03*
X150805000Y-85245000I-4120000J0D01*
G01*
%TO.C,C4*%
X169264698Y-125270000D02*
X169264698Y-124470000D01*
X169664698Y-124870000D02*
X168864698Y-124870000D01*
X161174000Y-123088000D02*
X161174000Y-122022000D01*
X161214000Y-123323000D02*
X161214000Y-121787000D01*
X161254000Y-123503000D02*
X161254000Y-121607000D01*
X161294000Y-123653000D02*
X161294000Y-121457000D01*
X161334000Y-123784000D02*
X161334000Y-121326000D01*
X161374000Y-123901000D02*
X161374000Y-121209000D01*
X161414000Y-124008000D02*
X161414000Y-121102000D01*
X161454000Y-124107000D02*
X161454000Y-121003000D01*
X161494000Y-124200000D02*
X161494000Y-120910000D01*
X161534000Y-124286000D02*
X161534000Y-120824000D01*
X161574000Y-124368000D02*
X161574000Y-120742000D01*
X161614000Y-124445000D02*
X161614000Y-120665000D01*
X161654000Y-124519000D02*
X161654000Y-120591000D01*
X161694000Y-124589000D02*
X161694000Y-120521000D01*
X161734000Y-124657000D02*
X161734000Y-120453000D01*
X161774000Y-124721000D02*
X161774000Y-120389000D01*
X161814000Y-124783000D02*
X161814000Y-120327000D01*
X161854000Y-124842000D02*
X161854000Y-120268000D01*
X161894000Y-124900000D02*
X161894000Y-120210000D01*
X161934000Y-124955000D02*
X161934000Y-120155000D01*
X161974000Y-125009000D02*
X161974000Y-120101000D01*
X162014000Y-125060000D02*
X162014000Y-120050000D01*
X162054000Y-125111000D02*
X162054000Y-119999000D01*
X162094000Y-125159000D02*
X162094000Y-119951000D01*
X162134000Y-125206000D02*
X162134000Y-119904000D01*
X162174000Y-125252000D02*
X162174000Y-119858000D01*
X162214000Y-125296000D02*
X162214000Y-119814000D01*
X162254000Y-125339000D02*
X162254000Y-119771000D01*
X162294000Y-125381000D02*
X162294000Y-119729000D01*
X162334000Y-125422000D02*
X162334000Y-119688000D01*
X162374000Y-125462000D02*
X162374000Y-119648000D01*
X162414000Y-125500000D02*
X162414000Y-119610000D01*
X162454000Y-125538000D02*
X162454000Y-119572000D01*
X162494000Y-121515000D02*
X162494000Y-119536000D01*
X162494000Y-125574000D02*
X162494000Y-123595000D01*
X162534000Y-121515000D02*
X162534000Y-119500000D01*
X162534000Y-125610000D02*
X162534000Y-123595000D01*
X162574000Y-121515000D02*
X162574000Y-119465000D01*
X162574000Y-125645000D02*
X162574000Y-123595000D01*
X162614000Y-121515000D02*
X162614000Y-119431000D01*
X162614000Y-125679000D02*
X162614000Y-123595000D01*
X162654000Y-121515000D02*
X162654000Y-119399000D01*
X162654000Y-125711000D02*
X162654000Y-123595000D01*
X162694000Y-121515000D02*
X162694000Y-119366000D01*
X162694000Y-125744000D02*
X162694000Y-123595000D01*
X162734000Y-121515000D02*
X162734000Y-119335000D01*
X162734000Y-125775000D02*
X162734000Y-123595000D01*
X162774000Y-121515000D02*
X162774000Y-119305000D01*
X162774000Y-125805000D02*
X162774000Y-123595000D01*
X162814000Y-121515000D02*
X162814000Y-119275000D01*
X162814000Y-125835000D02*
X162814000Y-123595000D01*
X162854000Y-121515000D02*
X162854000Y-119246000D01*
X162854000Y-125864000D02*
X162854000Y-123595000D01*
X162894000Y-121515000D02*
X162894000Y-119217000D01*
X162894000Y-125893000D02*
X162894000Y-123595000D01*
X162934000Y-121515000D02*
X162934000Y-119190000D01*
X162934000Y-125920000D02*
X162934000Y-123595000D01*
X162974000Y-121515000D02*
X162974000Y-119163000D01*
X162974000Y-125947000D02*
X162974000Y-123595000D01*
X163014000Y-121515000D02*
X163014000Y-119137000D01*
X163014000Y-125973000D02*
X163014000Y-123595000D01*
X163054000Y-121515000D02*
X163054000Y-119111000D01*
X163054000Y-125999000D02*
X163054000Y-123595000D01*
X163094000Y-121515000D02*
X163094000Y-119086000D01*
X163094000Y-126024000D02*
X163094000Y-123595000D01*
X163134000Y-121515000D02*
X163134000Y-119062000D01*
X163134000Y-126048000D02*
X163134000Y-123595000D01*
X163174000Y-121515000D02*
X163174000Y-119038000D01*
X163174000Y-126072000D02*
X163174000Y-123595000D01*
X163214000Y-121515000D02*
X163214000Y-119015000D01*
X163214000Y-126095000D02*
X163214000Y-123595000D01*
X163254000Y-121515000D02*
X163254000Y-118993000D01*
X163254000Y-126117000D02*
X163254000Y-123595000D01*
X163294000Y-121515000D02*
X163294000Y-118971000D01*
X163294000Y-126139000D02*
X163294000Y-123595000D01*
X163334000Y-121515000D02*
X163334000Y-118949000D01*
X163334000Y-126161000D02*
X163334000Y-123595000D01*
X163374000Y-121515000D02*
X163374000Y-118928000D01*
X163374000Y-126182000D02*
X163374000Y-123595000D01*
X163414000Y-121515000D02*
X163414000Y-118908000D01*
X163414000Y-126202000D02*
X163414000Y-123595000D01*
X163454000Y-121515000D02*
X163454000Y-118889000D01*
X163454000Y-126221000D02*
X163454000Y-123595000D01*
X163494000Y-121515000D02*
X163494000Y-118869000D01*
X163494000Y-126241000D02*
X163494000Y-123595000D01*
X163534000Y-121515000D02*
X163534000Y-118851000D01*
X163534000Y-126259000D02*
X163534000Y-123595000D01*
X163574000Y-121515000D02*
X163574000Y-118833000D01*
X163574000Y-126277000D02*
X163574000Y-123595000D01*
X163614000Y-121515000D02*
X163614000Y-118815000D01*
X163614000Y-126295000D02*
X163614000Y-123595000D01*
X163654000Y-121515000D02*
X163654000Y-118798000D01*
X163654000Y-126312000D02*
X163654000Y-123595000D01*
X163694000Y-121515000D02*
X163694000Y-118781000D01*
X163694000Y-126329000D02*
X163694000Y-123595000D01*
X163734000Y-121515000D02*
X163734000Y-118765000D01*
X163734000Y-126345000D02*
X163734000Y-123595000D01*
X163774000Y-121515000D02*
X163774000Y-118750000D01*
X163774000Y-126360000D02*
X163774000Y-123595000D01*
X163814000Y-121515000D02*
X163814000Y-118734000D01*
X163814000Y-126376000D02*
X163814000Y-123595000D01*
X163854000Y-121515000D02*
X163854000Y-118720000D01*
X163854000Y-126390000D02*
X163854000Y-123595000D01*
X163894000Y-121515000D02*
X163894000Y-118705000D01*
X163894000Y-126405000D02*
X163894000Y-123595000D01*
X163934000Y-121515000D02*
X163934000Y-118692000D01*
X163934000Y-126418000D02*
X163934000Y-123595000D01*
X163974000Y-121515000D02*
X163974000Y-118678000D01*
X163974000Y-126432000D02*
X163974000Y-123595000D01*
X164014000Y-121515000D02*
X164014000Y-118666000D01*
X164014000Y-126444000D02*
X164014000Y-123595000D01*
X164054000Y-121515000D02*
X164054000Y-118653000D01*
X164054000Y-126457000D02*
X164054000Y-123595000D01*
X164094000Y-121515000D02*
X164094000Y-118641000D01*
X164094000Y-126469000D02*
X164094000Y-123595000D01*
X164134000Y-121515000D02*
X164134000Y-118630000D01*
X164134000Y-126480000D02*
X164134000Y-123595000D01*
X164174000Y-121515000D02*
X164174000Y-118619000D01*
X164174000Y-126491000D02*
X164174000Y-123595000D01*
X164214000Y-121515000D02*
X164214000Y-118608000D01*
X164214000Y-126502000D02*
X164214000Y-123595000D01*
X164254000Y-121515000D02*
X164254000Y-118598000D01*
X164254000Y-126512000D02*
X164254000Y-123595000D01*
X164294000Y-121515000D02*
X164294000Y-118588000D01*
X164294000Y-126522000D02*
X164294000Y-123595000D01*
X164334000Y-121515000D02*
X164334000Y-118579000D01*
X164334000Y-126531000D02*
X164334000Y-123595000D01*
X164374000Y-121515000D02*
X164374000Y-118570000D01*
X164374000Y-126540000D02*
X164374000Y-123595000D01*
X164414000Y-121515000D02*
X164414000Y-118561000D01*
X164414000Y-126549000D02*
X164414000Y-123595000D01*
X164454000Y-121515000D02*
X164454000Y-118553000D01*
X164454000Y-126557000D02*
X164454000Y-123595000D01*
X164494000Y-121515000D02*
X164494000Y-118545000D01*
X164494000Y-126565000D02*
X164494000Y-123595000D01*
X164534000Y-121515000D02*
X164534000Y-118538000D01*
X164534000Y-126572000D02*
X164534000Y-123595000D01*
X164575000Y-126579000D02*
X164575000Y-118531000D01*
X164615000Y-126585000D02*
X164615000Y-118525000D01*
X164655000Y-126592000D02*
X164655000Y-118518000D01*
X164695000Y-126597000D02*
X164695000Y-118513000D01*
X164735000Y-126603000D02*
X164735000Y-118507000D01*
X164775000Y-126607000D02*
X164775000Y-118503000D01*
X164815000Y-126612000D02*
X164815000Y-118498000D01*
X164855000Y-126616000D02*
X164855000Y-118494000D01*
X164895000Y-126620000D02*
X164895000Y-118490000D01*
X164935000Y-126623000D02*
X164935000Y-118487000D01*
X164975000Y-126626000D02*
X164975000Y-118484000D01*
X165015000Y-126629000D02*
X165015000Y-118481000D01*
X165055000Y-126631000D02*
X165055000Y-118479000D01*
X165095000Y-126632000D02*
X165095000Y-118478000D01*
X165135000Y-126634000D02*
X165135000Y-118476000D01*
X165175000Y-126635000D02*
X165175000Y-118475000D01*
X165215000Y-126635000D02*
X165215000Y-118475000D01*
X165255000Y-126635000D02*
X165255000Y-118475000D01*
X169375000Y-122555000D02*
G75*
G03*
X169375000Y-122555000I-4120000J0D01*
G01*
%TO.C,C3*%
X140755000Y-82780000D02*
X140770000Y-82780000D01*
X138630000Y-82780000D02*
X138645000Y-82780000D01*
X140755000Y-87320000D02*
X140770000Y-87320000D01*
X138630000Y-87320000D02*
X138645000Y-87320000D01*
X140770000Y-87320000D02*
X140770000Y-82780000D01*
X138630000Y-87320000D02*
X138630000Y-82780000D01*
%TO.C,C2*%
X172365302Y-75390000D02*
X172365302Y-76190000D01*
X171965302Y-75790000D02*
X172765302Y-75790000D01*
X180456000Y-77572000D02*
X180456000Y-78638000D01*
X180416000Y-77337000D02*
X180416000Y-78873000D01*
X180376000Y-77157000D02*
X180376000Y-79053000D01*
X180336000Y-77007000D02*
X180336000Y-79203000D01*
X180296000Y-76876000D02*
X180296000Y-79334000D01*
X180256000Y-76759000D02*
X180256000Y-79451000D01*
X180216000Y-76652000D02*
X180216000Y-79558000D01*
X180176000Y-76553000D02*
X180176000Y-79657000D01*
X180136000Y-76460000D02*
X180136000Y-79750000D01*
X180096000Y-76374000D02*
X180096000Y-79836000D01*
X180056000Y-76292000D02*
X180056000Y-79918000D01*
X180016000Y-76215000D02*
X180016000Y-79995000D01*
X179976000Y-76141000D02*
X179976000Y-80069000D01*
X179936000Y-76071000D02*
X179936000Y-80139000D01*
X179896000Y-76003000D02*
X179896000Y-80207000D01*
X179856000Y-75939000D02*
X179856000Y-80271000D01*
X179816000Y-75877000D02*
X179816000Y-80333000D01*
X179776000Y-75818000D02*
X179776000Y-80392000D01*
X179736000Y-75760000D02*
X179736000Y-80450000D01*
X179696000Y-75705000D02*
X179696000Y-80505000D01*
X179656000Y-75651000D02*
X179656000Y-80559000D01*
X179616000Y-75600000D02*
X179616000Y-80610000D01*
X179576000Y-75549000D02*
X179576000Y-80661000D01*
X179536000Y-75501000D02*
X179536000Y-80709000D01*
X179496000Y-75454000D02*
X179496000Y-80756000D01*
X179456000Y-75408000D02*
X179456000Y-80802000D01*
X179416000Y-75364000D02*
X179416000Y-80846000D01*
X179376000Y-75321000D02*
X179376000Y-80889000D01*
X179336000Y-75279000D02*
X179336000Y-80931000D01*
X179296000Y-75238000D02*
X179296000Y-80972000D01*
X179256000Y-75198000D02*
X179256000Y-81012000D01*
X179216000Y-75160000D02*
X179216000Y-81050000D01*
X179176000Y-75122000D02*
X179176000Y-81088000D01*
X179136000Y-79145000D02*
X179136000Y-81124000D01*
X179136000Y-75086000D02*
X179136000Y-77065000D01*
X179096000Y-79145000D02*
X179096000Y-81160000D01*
X179096000Y-75050000D02*
X179096000Y-77065000D01*
X179056000Y-79145000D02*
X179056000Y-81195000D01*
X179056000Y-75015000D02*
X179056000Y-77065000D01*
X179016000Y-79145000D02*
X179016000Y-81229000D01*
X179016000Y-74981000D02*
X179016000Y-77065000D01*
X178976000Y-79145000D02*
X178976000Y-81261000D01*
X178976000Y-74949000D02*
X178976000Y-77065000D01*
X178936000Y-79145000D02*
X178936000Y-81294000D01*
X178936000Y-74916000D02*
X178936000Y-77065000D01*
X178896000Y-79145000D02*
X178896000Y-81325000D01*
X178896000Y-74885000D02*
X178896000Y-77065000D01*
X178856000Y-79145000D02*
X178856000Y-81355000D01*
X178856000Y-74855000D02*
X178856000Y-77065000D01*
X178816000Y-79145000D02*
X178816000Y-81385000D01*
X178816000Y-74825000D02*
X178816000Y-77065000D01*
X178776000Y-79145000D02*
X178776000Y-81414000D01*
X178776000Y-74796000D02*
X178776000Y-77065000D01*
X178736000Y-79145000D02*
X178736000Y-81443000D01*
X178736000Y-74767000D02*
X178736000Y-77065000D01*
X178696000Y-79145000D02*
X178696000Y-81470000D01*
X178696000Y-74740000D02*
X178696000Y-77065000D01*
X178656000Y-79145000D02*
X178656000Y-81497000D01*
X178656000Y-74713000D02*
X178656000Y-77065000D01*
X178616000Y-79145000D02*
X178616000Y-81523000D01*
X178616000Y-74687000D02*
X178616000Y-77065000D01*
X178576000Y-79145000D02*
X178576000Y-81549000D01*
X178576000Y-74661000D02*
X178576000Y-77065000D01*
X178536000Y-79145000D02*
X178536000Y-81574000D01*
X178536000Y-74636000D02*
X178536000Y-77065000D01*
X178496000Y-79145000D02*
X178496000Y-81598000D01*
X178496000Y-74612000D02*
X178496000Y-77065000D01*
X178456000Y-79145000D02*
X178456000Y-81622000D01*
X178456000Y-74588000D02*
X178456000Y-77065000D01*
X178416000Y-79145000D02*
X178416000Y-81645000D01*
X178416000Y-74565000D02*
X178416000Y-77065000D01*
X178376000Y-79145000D02*
X178376000Y-81667000D01*
X178376000Y-74543000D02*
X178376000Y-77065000D01*
X178336000Y-79145000D02*
X178336000Y-81689000D01*
X178336000Y-74521000D02*
X178336000Y-77065000D01*
X178296000Y-79145000D02*
X178296000Y-81711000D01*
X178296000Y-74499000D02*
X178296000Y-77065000D01*
X178256000Y-79145000D02*
X178256000Y-81732000D01*
X178256000Y-74478000D02*
X178256000Y-77065000D01*
X178216000Y-79145000D02*
X178216000Y-81752000D01*
X178216000Y-74458000D02*
X178216000Y-77065000D01*
X178176000Y-79145000D02*
X178176000Y-81771000D01*
X178176000Y-74439000D02*
X178176000Y-77065000D01*
X178136000Y-79145000D02*
X178136000Y-81791000D01*
X178136000Y-74419000D02*
X178136000Y-77065000D01*
X178096000Y-79145000D02*
X178096000Y-81809000D01*
X178096000Y-74401000D02*
X178096000Y-77065000D01*
X178056000Y-79145000D02*
X178056000Y-81827000D01*
X178056000Y-74383000D02*
X178056000Y-77065000D01*
X178016000Y-79145000D02*
X178016000Y-81845000D01*
X178016000Y-74365000D02*
X178016000Y-77065000D01*
X177976000Y-79145000D02*
X177976000Y-81862000D01*
X177976000Y-74348000D02*
X177976000Y-77065000D01*
X177936000Y-79145000D02*
X177936000Y-81879000D01*
X177936000Y-74331000D02*
X177936000Y-77065000D01*
X177896000Y-79145000D02*
X177896000Y-81895000D01*
X177896000Y-74315000D02*
X177896000Y-77065000D01*
X177856000Y-79145000D02*
X177856000Y-81910000D01*
X177856000Y-74300000D02*
X177856000Y-77065000D01*
X177816000Y-79145000D02*
X177816000Y-81926000D01*
X177816000Y-74284000D02*
X177816000Y-77065000D01*
X177776000Y-79145000D02*
X177776000Y-81940000D01*
X177776000Y-74270000D02*
X177776000Y-77065000D01*
X177736000Y-79145000D02*
X177736000Y-81955000D01*
X177736000Y-74255000D02*
X177736000Y-77065000D01*
X177696000Y-79145000D02*
X177696000Y-81968000D01*
X177696000Y-74242000D02*
X177696000Y-77065000D01*
X177656000Y-79145000D02*
X177656000Y-81982000D01*
X177656000Y-74228000D02*
X177656000Y-77065000D01*
X177616000Y-79145000D02*
X177616000Y-81994000D01*
X177616000Y-74216000D02*
X177616000Y-77065000D01*
X177576000Y-79145000D02*
X177576000Y-82007000D01*
X177576000Y-74203000D02*
X177576000Y-77065000D01*
X177536000Y-79145000D02*
X177536000Y-82019000D01*
X177536000Y-74191000D02*
X177536000Y-77065000D01*
X177496000Y-79145000D02*
X177496000Y-82030000D01*
X177496000Y-74180000D02*
X177496000Y-77065000D01*
X177456000Y-79145000D02*
X177456000Y-82041000D01*
X177456000Y-74169000D02*
X177456000Y-77065000D01*
X177416000Y-79145000D02*
X177416000Y-82052000D01*
X177416000Y-74158000D02*
X177416000Y-77065000D01*
X177376000Y-79145000D02*
X177376000Y-82062000D01*
X177376000Y-74148000D02*
X177376000Y-77065000D01*
X177336000Y-79145000D02*
X177336000Y-82072000D01*
X177336000Y-74138000D02*
X177336000Y-77065000D01*
X177296000Y-79145000D02*
X177296000Y-82081000D01*
X177296000Y-74129000D02*
X177296000Y-77065000D01*
X177256000Y-79145000D02*
X177256000Y-82090000D01*
X177256000Y-74120000D02*
X177256000Y-77065000D01*
X177216000Y-79145000D02*
X177216000Y-82099000D01*
X177216000Y-74111000D02*
X177216000Y-77065000D01*
X177176000Y-79145000D02*
X177176000Y-82107000D01*
X177176000Y-74103000D02*
X177176000Y-77065000D01*
X177136000Y-79145000D02*
X177136000Y-82115000D01*
X177136000Y-74095000D02*
X177136000Y-77065000D01*
X177096000Y-79145000D02*
X177096000Y-82122000D01*
X177096000Y-74088000D02*
X177096000Y-77065000D01*
X177055000Y-74081000D02*
X177055000Y-82129000D01*
X177015000Y-74075000D02*
X177015000Y-82135000D01*
X176975000Y-74068000D02*
X176975000Y-82142000D01*
X176935000Y-74063000D02*
X176935000Y-82147000D01*
X176895000Y-74057000D02*
X176895000Y-82153000D01*
X176855000Y-74053000D02*
X176855000Y-82157000D01*
X176815000Y-74048000D02*
X176815000Y-82162000D01*
X176775000Y-74044000D02*
X176775000Y-82166000D01*
X176735000Y-74040000D02*
X176735000Y-82170000D01*
X176695000Y-74037000D02*
X176695000Y-82173000D01*
X176655000Y-74034000D02*
X176655000Y-82176000D01*
X176615000Y-74031000D02*
X176615000Y-82179000D01*
X176575000Y-74029000D02*
X176575000Y-82181000D01*
X176535000Y-74028000D02*
X176535000Y-82182000D01*
X176495000Y-74026000D02*
X176495000Y-82184000D01*
X176455000Y-74025000D02*
X176455000Y-82185000D01*
X176415000Y-74025000D02*
X176415000Y-82185000D01*
X176375000Y-74025000D02*
X176375000Y-82185000D01*
X180495000Y-78105000D02*
G75*
G03*
X180495000Y-78105000I-4120000J0D01*
G01*
%TO.C,C1*%
X172365302Y-119840000D02*
X172365302Y-120640000D01*
X171965302Y-120240000D02*
X172765302Y-120240000D01*
X180456000Y-122022000D02*
X180456000Y-123088000D01*
X180416000Y-121787000D02*
X180416000Y-123323000D01*
X180376000Y-121607000D02*
X180376000Y-123503000D01*
X180336000Y-121457000D02*
X180336000Y-123653000D01*
X180296000Y-121326000D02*
X180296000Y-123784000D01*
X180256000Y-121209000D02*
X180256000Y-123901000D01*
X180216000Y-121102000D02*
X180216000Y-124008000D01*
X180176000Y-121003000D02*
X180176000Y-124107000D01*
X180136000Y-120910000D02*
X180136000Y-124200000D01*
X180096000Y-120824000D02*
X180096000Y-124286000D01*
X180056000Y-120742000D02*
X180056000Y-124368000D01*
X180016000Y-120665000D02*
X180016000Y-124445000D01*
X179976000Y-120591000D02*
X179976000Y-124519000D01*
X179936000Y-120521000D02*
X179936000Y-124589000D01*
X179896000Y-120453000D02*
X179896000Y-124657000D01*
X179856000Y-120389000D02*
X179856000Y-124721000D01*
X179816000Y-120327000D02*
X179816000Y-124783000D01*
X179776000Y-120268000D02*
X179776000Y-124842000D01*
X179736000Y-120210000D02*
X179736000Y-124900000D01*
X179696000Y-120155000D02*
X179696000Y-124955000D01*
X179656000Y-120101000D02*
X179656000Y-125009000D01*
X179616000Y-120050000D02*
X179616000Y-125060000D01*
X179576000Y-119999000D02*
X179576000Y-125111000D01*
X179536000Y-119951000D02*
X179536000Y-125159000D01*
X179496000Y-119904000D02*
X179496000Y-125206000D01*
X179456000Y-119858000D02*
X179456000Y-125252000D01*
X179416000Y-119814000D02*
X179416000Y-125296000D01*
X179376000Y-119771000D02*
X179376000Y-125339000D01*
X179336000Y-119729000D02*
X179336000Y-125381000D01*
X179296000Y-119688000D02*
X179296000Y-125422000D01*
X179256000Y-119648000D02*
X179256000Y-125462000D01*
X179216000Y-119610000D02*
X179216000Y-125500000D01*
X179176000Y-119572000D02*
X179176000Y-125538000D01*
X179136000Y-123595000D02*
X179136000Y-125574000D01*
X179136000Y-119536000D02*
X179136000Y-121515000D01*
X179096000Y-123595000D02*
X179096000Y-125610000D01*
X179096000Y-119500000D02*
X179096000Y-121515000D01*
X179056000Y-123595000D02*
X179056000Y-125645000D01*
X179056000Y-119465000D02*
X179056000Y-121515000D01*
X179016000Y-123595000D02*
X179016000Y-125679000D01*
X179016000Y-119431000D02*
X179016000Y-121515000D01*
X178976000Y-123595000D02*
X178976000Y-125711000D01*
X178976000Y-119399000D02*
X178976000Y-121515000D01*
X178936000Y-123595000D02*
X178936000Y-125744000D01*
X178936000Y-119366000D02*
X178936000Y-121515000D01*
X178896000Y-123595000D02*
X178896000Y-125775000D01*
X178896000Y-119335000D02*
X178896000Y-121515000D01*
X178856000Y-123595000D02*
X178856000Y-125805000D01*
X178856000Y-119305000D02*
X178856000Y-121515000D01*
X178816000Y-123595000D02*
X178816000Y-125835000D01*
X178816000Y-119275000D02*
X178816000Y-121515000D01*
X178776000Y-123595000D02*
X178776000Y-125864000D01*
X178776000Y-119246000D02*
X178776000Y-121515000D01*
X178736000Y-123595000D02*
X178736000Y-125893000D01*
X178736000Y-119217000D02*
X178736000Y-121515000D01*
X178696000Y-123595000D02*
X178696000Y-125920000D01*
X178696000Y-119190000D02*
X178696000Y-121515000D01*
X178656000Y-123595000D02*
X178656000Y-125947000D01*
X178656000Y-119163000D02*
X178656000Y-121515000D01*
X178616000Y-123595000D02*
X178616000Y-125973000D01*
X178616000Y-119137000D02*
X178616000Y-121515000D01*
X178576000Y-123595000D02*
X178576000Y-125999000D01*
X178576000Y-119111000D02*
X178576000Y-121515000D01*
X178536000Y-123595000D02*
X178536000Y-126024000D01*
X178536000Y-119086000D02*
X178536000Y-121515000D01*
X178496000Y-123595000D02*
X178496000Y-126048000D01*
X178496000Y-119062000D02*
X178496000Y-121515000D01*
X178456000Y-123595000D02*
X178456000Y-126072000D01*
X178456000Y-119038000D02*
X178456000Y-121515000D01*
X178416000Y-123595000D02*
X178416000Y-126095000D01*
X178416000Y-119015000D02*
X178416000Y-121515000D01*
X178376000Y-123595000D02*
X178376000Y-126117000D01*
X178376000Y-118993000D02*
X178376000Y-121515000D01*
X178336000Y-123595000D02*
X178336000Y-126139000D01*
X178336000Y-118971000D02*
X178336000Y-121515000D01*
X178296000Y-123595000D02*
X178296000Y-126161000D01*
X178296000Y-118949000D02*
X178296000Y-121515000D01*
X178256000Y-123595000D02*
X178256000Y-126182000D01*
X178256000Y-118928000D02*
X178256000Y-121515000D01*
X178216000Y-123595000D02*
X178216000Y-126202000D01*
X178216000Y-118908000D02*
X178216000Y-121515000D01*
X178176000Y-123595000D02*
X178176000Y-126221000D01*
X178176000Y-118889000D02*
X178176000Y-121515000D01*
X178136000Y-123595000D02*
X178136000Y-126241000D01*
X178136000Y-118869000D02*
X178136000Y-121515000D01*
X178096000Y-123595000D02*
X178096000Y-126259000D01*
X178096000Y-118851000D02*
X178096000Y-121515000D01*
X178056000Y-123595000D02*
X178056000Y-126277000D01*
X178056000Y-118833000D02*
X178056000Y-121515000D01*
X178016000Y-123595000D02*
X178016000Y-126295000D01*
X178016000Y-118815000D02*
X178016000Y-121515000D01*
X177976000Y-123595000D02*
X177976000Y-126312000D01*
X177976000Y-118798000D02*
X177976000Y-121515000D01*
X177936000Y-123595000D02*
X177936000Y-126329000D01*
X177936000Y-118781000D02*
X177936000Y-121515000D01*
X177896000Y-123595000D02*
X177896000Y-126345000D01*
X177896000Y-118765000D02*
X177896000Y-121515000D01*
X177856000Y-123595000D02*
X177856000Y-126360000D01*
X177856000Y-118750000D02*
X177856000Y-121515000D01*
X177816000Y-123595000D02*
X177816000Y-126376000D01*
X177816000Y-118734000D02*
X177816000Y-121515000D01*
X177776000Y-123595000D02*
X177776000Y-126390000D01*
X177776000Y-118720000D02*
X177776000Y-121515000D01*
X177736000Y-123595000D02*
X177736000Y-126405000D01*
X177736000Y-118705000D02*
X177736000Y-121515000D01*
X177696000Y-123595000D02*
X177696000Y-126418000D01*
X177696000Y-118692000D02*
X177696000Y-121515000D01*
X177656000Y-123595000D02*
X177656000Y-126432000D01*
X177656000Y-118678000D02*
X177656000Y-121515000D01*
X177616000Y-123595000D02*
X177616000Y-126444000D01*
X177616000Y-118666000D02*
X177616000Y-121515000D01*
X177576000Y-123595000D02*
X177576000Y-126457000D01*
X177576000Y-118653000D02*
X177576000Y-121515000D01*
X177536000Y-123595000D02*
X177536000Y-126469000D01*
X177536000Y-118641000D02*
X177536000Y-121515000D01*
X177496000Y-123595000D02*
X177496000Y-126480000D01*
X177496000Y-118630000D02*
X177496000Y-121515000D01*
X177456000Y-123595000D02*
X177456000Y-126491000D01*
X177456000Y-118619000D02*
X177456000Y-121515000D01*
X177416000Y-123595000D02*
X177416000Y-126502000D01*
X177416000Y-118608000D02*
X177416000Y-121515000D01*
X177376000Y-123595000D02*
X177376000Y-126512000D01*
X177376000Y-118598000D02*
X177376000Y-121515000D01*
X177336000Y-123595000D02*
X177336000Y-126522000D01*
X177336000Y-118588000D02*
X177336000Y-121515000D01*
X177296000Y-123595000D02*
X177296000Y-126531000D01*
X177296000Y-118579000D02*
X177296000Y-121515000D01*
X177256000Y-123595000D02*
X177256000Y-126540000D01*
X177256000Y-118570000D02*
X177256000Y-121515000D01*
X177216000Y-123595000D02*
X177216000Y-126549000D01*
X177216000Y-118561000D02*
X177216000Y-121515000D01*
X177176000Y-123595000D02*
X177176000Y-126557000D01*
X177176000Y-118553000D02*
X177176000Y-121515000D01*
X177136000Y-123595000D02*
X177136000Y-126565000D01*
X177136000Y-118545000D02*
X177136000Y-121515000D01*
X177096000Y-123595000D02*
X177096000Y-126572000D01*
X177096000Y-118538000D02*
X177096000Y-121515000D01*
X177055000Y-118531000D02*
X177055000Y-126579000D01*
X177015000Y-118525000D02*
X177015000Y-126585000D01*
X176975000Y-118518000D02*
X176975000Y-126592000D01*
X176935000Y-118513000D02*
X176935000Y-126597000D01*
X176895000Y-118507000D02*
X176895000Y-126603000D01*
X176855000Y-118503000D02*
X176855000Y-126607000D01*
X176815000Y-118498000D02*
X176815000Y-126612000D01*
X176775000Y-118494000D02*
X176775000Y-126616000D01*
X176735000Y-118490000D02*
X176735000Y-126620000D01*
X176695000Y-118487000D02*
X176695000Y-126623000D01*
X176655000Y-118484000D02*
X176655000Y-126626000D01*
X176615000Y-118481000D02*
X176615000Y-126629000D01*
X176575000Y-118479000D02*
X176575000Y-126631000D01*
X176535000Y-118478000D02*
X176535000Y-126632000D01*
X176495000Y-118476000D02*
X176495000Y-126634000D01*
X176455000Y-118475000D02*
X176455000Y-126635000D01*
X176415000Y-118475000D02*
X176415000Y-126635000D01*
X176375000Y-118475000D02*
X176375000Y-126635000D01*
X180495000Y-122555000D02*
G75*
G03*
X180495000Y-122555000I-4120000J0D01*
G01*
%TO.C,D2*%
D10*
X135786904Y-99512380D02*
X135786904Y-98512380D01*
X136025000Y-98512380D01*
X136167857Y-98560000D01*
X136263095Y-98655238D01*
X136310714Y-98750476D01*
X136358333Y-98940952D01*
X136358333Y-99083809D01*
X136310714Y-99274285D01*
X136263095Y-99369523D01*
X136167857Y-99464761D01*
X136025000Y-99512380D01*
X135786904Y-99512380D01*
X136739285Y-98607619D02*
X136786904Y-98560000D01*
X136882142Y-98512380D01*
X137120238Y-98512380D01*
X137215476Y-98560000D01*
X137263095Y-98607619D01*
X137310714Y-98702857D01*
X137310714Y-98798095D01*
X137263095Y-98940952D01*
X136691666Y-99512380D01*
X137310714Y-99512380D01*
X134818380Y-86875904D02*
X133818380Y-86875904D01*
X134818380Y-86304476D02*
X134246952Y-86733047D01*
X133818380Y-86304476D02*
X134389809Y-86875904D01*
%TO.C,IC1*%
X141422380Y-114006190D02*
X140422380Y-114006190D01*
X141327142Y-112958571D02*
X141374761Y-113006190D01*
X141422380Y-113149047D01*
X141422380Y-113244285D01*
X141374761Y-113387142D01*
X141279523Y-113482380D01*
X141184285Y-113530000D01*
X140993809Y-113577619D01*
X140850952Y-113577619D01*
X140660476Y-113530000D01*
X140565238Y-113482380D01*
X140470000Y-113387142D01*
X140422380Y-113244285D01*
X140422380Y-113149047D01*
X140470000Y-113006190D01*
X140517619Y-112958571D01*
X141422380Y-112006190D02*
X141422380Y-112577619D01*
X141422380Y-112291904D02*
X140422380Y-112291904D01*
X140565238Y-112387142D01*
X140660476Y-112482380D01*
X140708095Y-112577619D01*
%TO.C,U2*%
X124547380Y-83565904D02*
X125356904Y-83565904D01*
X125452142Y-83518285D01*
X125499761Y-83470666D01*
X125547380Y-83375428D01*
X125547380Y-83184952D01*
X125499761Y-83089714D01*
X125452142Y-83042095D01*
X125356904Y-82994476D01*
X124547380Y-82994476D01*
X124642619Y-82565904D02*
X124595000Y-82518285D01*
X124547380Y-82423047D01*
X124547380Y-82184952D01*
X124595000Y-82089714D01*
X124642619Y-82042095D01*
X124737857Y-81994476D01*
X124833095Y-81994476D01*
X124975952Y-82042095D01*
X125547380Y-82613523D01*
X125547380Y-81994476D01*
%TO.C,IC3*%
X130307809Y-91821380D02*
X130307809Y-90821380D01*
X131355428Y-91726142D02*
X131307809Y-91773761D01*
X131164952Y-91821380D01*
X131069714Y-91821380D01*
X130926857Y-91773761D01*
X130831619Y-91678523D01*
X130784000Y-91583285D01*
X130736380Y-91392809D01*
X130736380Y-91249952D01*
X130784000Y-91059476D01*
X130831619Y-90964238D01*
X130926857Y-90869000D01*
X131069714Y-90821380D01*
X131164952Y-90821380D01*
X131307809Y-90869000D01*
X131355428Y-90916619D01*
X131688761Y-90821380D02*
X132307809Y-90821380D01*
X131974476Y-91202333D01*
X132117333Y-91202333D01*
X132212571Y-91249952D01*
X132260190Y-91297571D01*
X132307809Y-91392809D01*
X132307809Y-91630904D01*
X132260190Y-91726142D01*
X132212571Y-91773761D01*
X132117333Y-91821380D01*
X131831619Y-91821380D01*
X131736380Y-91773761D01*
X131688761Y-91726142D01*
%TO.C,IC2*%
D15*
X129162023Y-100236261D02*
X127892023Y-100236261D01*
X129041071Y-98905785D02*
X129101547Y-98966261D01*
X129162023Y-99147690D01*
X129162023Y-99268642D01*
X129101547Y-99450071D01*
X128980595Y-99571023D01*
X128859642Y-99631500D01*
X128617738Y-99691976D01*
X128436309Y-99691976D01*
X128194404Y-99631500D01*
X128073452Y-99571023D01*
X127952500Y-99450071D01*
X127892023Y-99268642D01*
X127892023Y-99147690D01*
X127952500Y-98966261D01*
X128012976Y-98905785D01*
X128012976Y-98421976D02*
X127952500Y-98361500D01*
X127892023Y-98240547D01*
X127892023Y-97938166D01*
X127952500Y-97817214D01*
X128012976Y-97756738D01*
X128133928Y-97696261D01*
X128254880Y-97696261D01*
X128436309Y-97756738D01*
X129162023Y-98482452D01*
X129162023Y-97696261D01*
%TO.C,J2*%
D10*
X106346666Y-79037380D02*
X106346666Y-79751666D01*
X106299047Y-79894523D01*
X106203809Y-79989761D01*
X106060952Y-80037380D01*
X105965714Y-80037380D01*
X106775238Y-79132619D02*
X106822857Y-79085000D01*
X106918095Y-79037380D01*
X107156190Y-79037380D01*
X107251428Y-79085000D01*
X107299047Y-79132619D01*
X107346666Y-79227857D01*
X107346666Y-79323095D01*
X107299047Y-79465952D01*
X106727619Y-80037380D01*
X107346666Y-80037380D01*
%TO.C,U5*%
X177038095Y-90257380D02*
X177038095Y-91066904D01*
X177085714Y-91162142D01*
X177133333Y-91209761D01*
X177228571Y-91257380D01*
X177419047Y-91257380D01*
X177514285Y-91209761D01*
X177561904Y-91162142D01*
X177609523Y-91066904D01*
X177609523Y-90257380D01*
X178561904Y-90257380D02*
X178085714Y-90257380D01*
X178038095Y-90733571D01*
X178085714Y-90685952D01*
X178180952Y-90638333D01*
X178419047Y-90638333D01*
X178514285Y-90685952D01*
X178561904Y-90733571D01*
X178609523Y-90828809D01*
X178609523Y-91066904D01*
X178561904Y-91162142D01*
X178514285Y-91209761D01*
X178419047Y-91257380D01*
X178180952Y-91257380D01*
X178085714Y-91209761D01*
X178038095Y-91162142D01*
%TO.C,U4*%
X177038095Y-108037380D02*
X177038095Y-108846904D01*
X177085714Y-108942142D01*
X177133333Y-108989761D01*
X177228571Y-109037380D01*
X177419047Y-109037380D01*
X177514285Y-108989761D01*
X177561904Y-108942142D01*
X177609523Y-108846904D01*
X177609523Y-108037380D01*
X178514285Y-108370714D02*
X178514285Y-109037380D01*
X178276190Y-107989761D02*
X178038095Y-108704047D01*
X178657142Y-108704047D01*
%TO.C,U3*%
X149733095Y-72477380D02*
X149733095Y-73286904D01*
X149780714Y-73382142D01*
X149828333Y-73429761D01*
X149923571Y-73477380D01*
X150114047Y-73477380D01*
X150209285Y-73429761D01*
X150256904Y-73382142D01*
X150304523Y-73286904D01*
X150304523Y-72477380D01*
X150685476Y-72477380D02*
X151304523Y-72477380D01*
X150971190Y-72858333D01*
X151114047Y-72858333D01*
X151209285Y-72905952D01*
X151256904Y-72953571D01*
X151304523Y-73048809D01*
X151304523Y-73286904D01*
X151256904Y-73382142D01*
X151209285Y-73429761D01*
X151114047Y-73477380D01*
X150828333Y-73477380D01*
X150733095Y-73429761D01*
X150685476Y-73382142D01*
%TO.C,U1*%
X144018095Y-68722380D02*
X144018095Y-69531904D01*
X144065714Y-69627142D01*
X144113333Y-69674761D01*
X144208571Y-69722380D01*
X144399047Y-69722380D01*
X144494285Y-69674761D01*
X144541904Y-69627142D01*
X144589523Y-69531904D01*
X144589523Y-68722380D01*
X145589523Y-69722380D02*
X145018095Y-69722380D01*
X145303809Y-69722380D02*
X145303809Y-68722380D01*
X145208571Y-68865238D01*
X145113333Y-68960476D01*
X145018095Y-69008095D01*
%TO.C,RN2*%
D15*
X114366523Y-80886904D02*
X113761761Y-81310238D01*
X114366523Y-81612619D02*
X113096523Y-81612619D01*
X113096523Y-81128809D01*
X113157000Y-81007857D01*
X113217476Y-80947380D01*
X113338428Y-80886904D01*
X113519857Y-80886904D01*
X113640809Y-80947380D01*
X113701285Y-81007857D01*
X113761761Y-81128809D01*
X113761761Y-81612619D01*
X114366523Y-80342619D02*
X113096523Y-80342619D01*
X114366523Y-79616904D01*
X113096523Y-79616904D01*
X113217476Y-79072619D02*
X113157000Y-79012142D01*
X113096523Y-78891190D01*
X113096523Y-78588809D01*
X113157000Y-78467857D01*
X113217476Y-78407380D01*
X113338428Y-78346904D01*
X113459380Y-78346904D01*
X113640809Y-78407380D01*
X114366523Y-79133095D01*
X114366523Y-78346904D01*
%TO.C,RN1*%
X114366523Y-123939904D02*
X113761761Y-124363238D01*
X114366523Y-124665619D02*
X113096523Y-124665619D01*
X113096523Y-124181809D01*
X113157000Y-124060857D01*
X113217476Y-124000380D01*
X113338428Y-123939904D01*
X113519857Y-123939904D01*
X113640809Y-124000380D01*
X113701285Y-124060857D01*
X113761761Y-124181809D01*
X113761761Y-124665619D01*
X114366523Y-123395619D02*
X113096523Y-123395619D01*
X114366523Y-122669904D01*
X113096523Y-122669904D01*
X114366523Y-121399904D02*
X114366523Y-122125619D01*
X114366523Y-121762761D02*
X113096523Y-121762761D01*
X113277952Y-121883714D01*
X113398904Y-122004666D01*
X113459380Y-122125619D01*
%TO.C,R13*%
D10*
X153027142Y-128722380D02*
X152693809Y-128246190D01*
X152455714Y-128722380D02*
X152455714Y-127722380D01*
X152836666Y-127722380D01*
X152931904Y-127770000D01*
X152979523Y-127817619D01*
X153027142Y-127912857D01*
X153027142Y-128055714D01*
X152979523Y-128150952D01*
X152931904Y-128198571D01*
X152836666Y-128246190D01*
X152455714Y-128246190D01*
X153979523Y-128722380D02*
X153408095Y-128722380D01*
X153693809Y-128722380D02*
X153693809Y-127722380D01*
X153598571Y-127865238D01*
X153503333Y-127960476D01*
X153408095Y-128008095D01*
X154312857Y-127722380D02*
X154931904Y-127722380D01*
X154598571Y-128103333D01*
X154741428Y-128103333D01*
X154836666Y-128150952D01*
X154884285Y-128198571D01*
X154931904Y-128293809D01*
X154931904Y-128531904D01*
X154884285Y-128627142D01*
X154836666Y-128674761D01*
X154741428Y-128722380D01*
X154455714Y-128722380D01*
X154360476Y-128674761D01*
X154312857Y-128627142D01*
%TO.C,R12*%
X170172142Y-97777380D02*
X169838809Y-97301190D01*
X169600714Y-97777380D02*
X169600714Y-96777380D01*
X169981666Y-96777380D01*
X170076904Y-96825000D01*
X170124523Y-96872619D01*
X170172142Y-96967857D01*
X170172142Y-97110714D01*
X170124523Y-97205952D01*
X170076904Y-97253571D01*
X169981666Y-97301190D01*
X169600714Y-97301190D01*
X171124523Y-97777380D02*
X170553095Y-97777380D01*
X170838809Y-97777380D02*
X170838809Y-96777380D01*
X170743571Y-96920238D01*
X170648333Y-97015476D01*
X170553095Y-97063095D01*
X171505476Y-96872619D02*
X171553095Y-96825000D01*
X171648333Y-96777380D01*
X171886428Y-96777380D01*
X171981666Y-96825000D01*
X172029285Y-96872619D01*
X172076904Y-96967857D01*
X172076904Y-97063095D01*
X172029285Y-97205952D01*
X171457857Y-97777380D01*
X172076904Y-97777380D01*
%TO.C,R11*%
X152392142Y-115387380D02*
X152058809Y-114911190D01*
X151820714Y-115387380D02*
X151820714Y-114387380D01*
X152201666Y-114387380D01*
X152296904Y-114435000D01*
X152344523Y-114482619D01*
X152392142Y-114577857D01*
X152392142Y-114720714D01*
X152344523Y-114815952D01*
X152296904Y-114863571D01*
X152201666Y-114911190D01*
X151820714Y-114911190D01*
X153344523Y-115387380D02*
X152773095Y-115387380D01*
X153058809Y-115387380D02*
X153058809Y-114387380D01*
X152963571Y-114530238D01*
X152868333Y-114625476D01*
X152773095Y-114673095D01*
X154296904Y-115387380D02*
X153725476Y-115387380D01*
X154011190Y-115387380D02*
X154011190Y-114387380D01*
X153915952Y-114530238D01*
X153820714Y-114625476D01*
X153725476Y-114673095D01*
%TO.C,R10*%
X151117380Y-92082857D02*
X150641190Y-92416190D01*
X151117380Y-92654285D02*
X150117380Y-92654285D01*
X150117380Y-92273333D01*
X150165000Y-92178095D01*
X150212619Y-92130476D01*
X150307857Y-92082857D01*
X150450714Y-92082857D01*
X150545952Y-92130476D01*
X150593571Y-92178095D01*
X150641190Y-92273333D01*
X150641190Y-92654285D01*
X151117380Y-91130476D02*
X151117380Y-91701904D01*
X151117380Y-91416190D02*
X150117380Y-91416190D01*
X150260238Y-91511428D01*
X150355476Y-91606666D01*
X150403095Y-91701904D01*
X150117380Y-90511428D02*
X150117380Y-90416190D01*
X150165000Y-90320952D01*
X150212619Y-90273333D01*
X150307857Y-90225714D01*
X150498333Y-90178095D01*
X150736428Y-90178095D01*
X150926904Y-90225714D01*
X151022142Y-90273333D01*
X151069761Y-90320952D01*
X151117380Y-90416190D01*
X151117380Y-90511428D01*
X151069761Y-90606666D01*
X151022142Y-90654285D01*
X150926904Y-90701904D01*
X150736428Y-90749523D01*
X150498333Y-90749523D01*
X150307857Y-90701904D01*
X150212619Y-90654285D01*
X150165000Y-90606666D01*
X150117380Y-90511428D01*
%TO.C,R9*%
X152344380Y-99734666D02*
X151868190Y-100068000D01*
X152344380Y-100306095D02*
X151344380Y-100306095D01*
X151344380Y-99925142D01*
X151392000Y-99829904D01*
X151439619Y-99782285D01*
X151534857Y-99734666D01*
X151677714Y-99734666D01*
X151772952Y-99782285D01*
X151820571Y-99829904D01*
X151868190Y-99925142D01*
X151868190Y-100306095D01*
X152344380Y-99258476D02*
X152344380Y-99068000D01*
X152296761Y-98972761D01*
X152249142Y-98925142D01*
X152106285Y-98829904D01*
X151915809Y-98782285D01*
X151534857Y-98782285D01*
X151439619Y-98829904D01*
X151392000Y-98877523D01*
X151344380Y-98972761D01*
X151344380Y-99163238D01*
X151392000Y-99258476D01*
X151439619Y-99306095D01*
X151534857Y-99353714D01*
X151772952Y-99353714D01*
X151868190Y-99306095D01*
X151915809Y-99258476D01*
X151963428Y-99163238D01*
X151963428Y-98972761D01*
X151915809Y-98877523D01*
X151868190Y-98829904D01*
X151772952Y-98782285D01*
%TO.C,R8*%
X138898333Y-107302380D02*
X138565000Y-106826190D01*
X138326904Y-107302380D02*
X138326904Y-106302380D01*
X138707857Y-106302380D01*
X138803095Y-106350000D01*
X138850714Y-106397619D01*
X138898333Y-106492857D01*
X138898333Y-106635714D01*
X138850714Y-106730952D01*
X138803095Y-106778571D01*
X138707857Y-106826190D01*
X138326904Y-106826190D01*
X139469761Y-106730952D02*
X139374523Y-106683333D01*
X139326904Y-106635714D01*
X139279285Y-106540476D01*
X139279285Y-106492857D01*
X139326904Y-106397619D01*
X139374523Y-106350000D01*
X139469761Y-106302380D01*
X139660238Y-106302380D01*
X139755476Y-106350000D01*
X139803095Y-106397619D01*
X139850714Y-106492857D01*
X139850714Y-106540476D01*
X139803095Y-106635714D01*
X139755476Y-106683333D01*
X139660238Y-106730952D01*
X139469761Y-106730952D01*
X139374523Y-106778571D01*
X139326904Y-106826190D01*
X139279285Y-106921428D01*
X139279285Y-107111904D01*
X139326904Y-107207142D01*
X139374523Y-107254761D01*
X139469761Y-107302380D01*
X139660238Y-107302380D01*
X139755476Y-107254761D01*
X139803095Y-107207142D01*
X139850714Y-107111904D01*
X139850714Y-106921428D01*
X139803095Y-106826190D01*
X139755476Y-106778571D01*
X139660238Y-106730952D01*
%TO.C,R7*%
X145883333Y-128087380D02*
X145550000Y-127611190D01*
X145311904Y-128087380D02*
X145311904Y-127087380D01*
X145692857Y-127087380D01*
X145788095Y-127135000D01*
X145835714Y-127182619D01*
X145883333Y-127277857D01*
X145883333Y-127420714D01*
X145835714Y-127515952D01*
X145788095Y-127563571D01*
X145692857Y-127611190D01*
X145311904Y-127611190D01*
X146216666Y-127087380D02*
X146883333Y-127087380D01*
X146454761Y-128087380D01*
%TO.C,R6*%
X141438333Y-128087380D02*
X141105000Y-127611190D01*
X140866904Y-128087380D02*
X140866904Y-127087380D01*
X141247857Y-127087380D01*
X141343095Y-127135000D01*
X141390714Y-127182619D01*
X141438333Y-127277857D01*
X141438333Y-127420714D01*
X141390714Y-127515952D01*
X141343095Y-127563571D01*
X141247857Y-127611190D01*
X140866904Y-127611190D01*
X142295476Y-127087380D02*
X142105000Y-127087380D01*
X142009761Y-127135000D01*
X141962142Y-127182619D01*
X141866904Y-127325476D01*
X141819285Y-127515952D01*
X141819285Y-127896904D01*
X141866904Y-127992142D01*
X141914523Y-128039761D01*
X142009761Y-128087380D01*
X142200238Y-128087380D01*
X142295476Y-128039761D01*
X142343095Y-127992142D01*
X142390714Y-127896904D01*
X142390714Y-127658809D01*
X142343095Y-127563571D01*
X142295476Y-127515952D01*
X142200238Y-127468333D01*
X142009761Y-127468333D01*
X141914523Y-127515952D01*
X141866904Y-127563571D01*
X141819285Y-127658809D01*
%TO.C,R5*%
X130643333Y-111577380D02*
X130310000Y-111101190D01*
X130071904Y-111577380D02*
X130071904Y-110577380D01*
X130452857Y-110577380D01*
X130548095Y-110625000D01*
X130595714Y-110672619D01*
X130643333Y-110767857D01*
X130643333Y-110910714D01*
X130595714Y-111005952D01*
X130548095Y-111053571D01*
X130452857Y-111101190D01*
X130071904Y-111101190D01*
X131548095Y-110577380D02*
X131071904Y-110577380D01*
X131024285Y-111053571D01*
X131071904Y-111005952D01*
X131167142Y-110958333D01*
X131405238Y-110958333D01*
X131500476Y-111005952D01*
X131548095Y-111053571D01*
X131595714Y-111148809D01*
X131595714Y-111386904D01*
X131548095Y-111482142D01*
X131500476Y-111529761D01*
X131405238Y-111577380D01*
X131167142Y-111577380D01*
X131071904Y-111529761D01*
X131024285Y-111482142D01*
%TO.C,R4*%
X133818333Y-128722380D02*
X133485000Y-128246190D01*
X133246904Y-128722380D02*
X133246904Y-127722380D01*
X133627857Y-127722380D01*
X133723095Y-127770000D01*
X133770714Y-127817619D01*
X133818333Y-127912857D01*
X133818333Y-128055714D01*
X133770714Y-128150952D01*
X133723095Y-128198571D01*
X133627857Y-128246190D01*
X133246904Y-128246190D01*
X134675476Y-128055714D02*
X134675476Y-128722380D01*
X134437380Y-127674761D02*
X134199285Y-128389047D01*
X134818333Y-128389047D01*
%TO.C,R3*%
X123642380Y-87796666D02*
X123166190Y-88130000D01*
X123642380Y-88368095D02*
X122642380Y-88368095D01*
X122642380Y-87987142D01*
X122690000Y-87891904D01*
X122737619Y-87844285D01*
X122832857Y-87796666D01*
X122975714Y-87796666D01*
X123070952Y-87844285D01*
X123118571Y-87891904D01*
X123166190Y-87987142D01*
X123166190Y-88368095D01*
X122642380Y-87463333D02*
X122642380Y-86844285D01*
X123023333Y-87177619D01*
X123023333Y-87034761D01*
X123070952Y-86939523D01*
X123118571Y-86891904D01*
X123213809Y-86844285D01*
X123451904Y-86844285D01*
X123547142Y-86891904D01*
X123594761Y-86939523D01*
X123642380Y-87034761D01*
X123642380Y-87320476D01*
X123594761Y-87415714D01*
X123547142Y-87463333D01*
%TO.C,R2*%
X127214333Y-82240380D02*
X126881000Y-81764190D01*
X126642904Y-82240380D02*
X126642904Y-81240380D01*
X127023857Y-81240380D01*
X127119095Y-81288000D01*
X127166714Y-81335619D01*
X127214333Y-81430857D01*
X127214333Y-81573714D01*
X127166714Y-81668952D01*
X127119095Y-81716571D01*
X127023857Y-81764190D01*
X126642904Y-81764190D01*
X127595285Y-81335619D02*
X127642904Y-81288000D01*
X127738142Y-81240380D01*
X127976238Y-81240380D01*
X128071476Y-81288000D01*
X128119095Y-81335619D01*
X128166714Y-81430857D01*
X128166714Y-81526095D01*
X128119095Y-81668952D01*
X127547666Y-82240380D01*
X128166714Y-82240380D01*
%TO.C,R1*%
X143343333Y-94940380D02*
X143010000Y-94464190D01*
X142771904Y-94940380D02*
X142771904Y-93940380D01*
X143152857Y-93940380D01*
X143248095Y-93988000D01*
X143295714Y-94035619D01*
X143343333Y-94130857D01*
X143343333Y-94273714D01*
X143295714Y-94368952D01*
X143248095Y-94416571D01*
X143152857Y-94464190D01*
X142771904Y-94464190D01*
X144295714Y-94940380D02*
X143724285Y-94940380D01*
X144010000Y-94940380D02*
X144010000Y-93940380D01*
X143914761Y-94083238D01*
X143819523Y-94178476D01*
X143724285Y-94226095D01*
%TO.C,J3*%
X194397380Y-95583333D02*
X195111666Y-95583333D01*
X195254523Y-95630952D01*
X195349761Y-95726190D01*
X195397380Y-95869047D01*
X195397380Y-95964285D01*
X194397380Y-95202380D02*
X194397380Y-94583333D01*
X194778333Y-94916666D01*
X194778333Y-94773809D01*
X194825952Y-94678571D01*
X194873571Y-94630952D01*
X194968809Y-94583333D01*
X195206904Y-94583333D01*
X195302142Y-94630952D01*
X195349761Y-94678571D01*
X195397380Y-94773809D01*
X195397380Y-95059523D01*
X195349761Y-95154761D01*
X195302142Y-95202380D01*
%TO.C,J1*%
X128992380Y-74628333D02*
X129706666Y-74628333D01*
X129849523Y-74675952D01*
X129944761Y-74771190D01*
X129992380Y-74914047D01*
X129992380Y-75009285D01*
X129992380Y-73628333D02*
X129992380Y-74199761D01*
X129992380Y-73914047D02*
X128992380Y-73914047D01*
X129135238Y-74009285D01*
X129230476Y-74104523D01*
X129278095Y-74199761D01*
%TO.C,D6*%
X192301904Y-123007380D02*
X192301904Y-122007380D01*
X192540000Y-122007380D01*
X192682857Y-122055000D01*
X192778095Y-122150238D01*
X192825714Y-122245476D01*
X192873333Y-122435952D01*
X192873333Y-122578809D01*
X192825714Y-122769285D01*
X192778095Y-122864523D01*
X192682857Y-122959761D01*
X192540000Y-123007380D01*
X192301904Y-123007380D01*
X193730476Y-122007380D02*
X193540000Y-122007380D01*
X193444761Y-122055000D01*
X193397142Y-122102619D01*
X193301904Y-122245476D01*
X193254285Y-122435952D01*
X193254285Y-122816904D01*
X193301904Y-122912142D01*
X193349523Y-122959761D01*
X193444761Y-123007380D01*
X193635238Y-123007380D01*
X193730476Y-122959761D01*
X193778095Y-122912142D01*
X193825714Y-122816904D01*
X193825714Y-122578809D01*
X193778095Y-122483571D01*
X193730476Y-122435952D01*
X193635238Y-122388333D01*
X193444761Y-122388333D01*
X193349523Y-122435952D01*
X193301904Y-122483571D01*
X193254285Y-122578809D01*
X195592380Y-110116904D02*
X194592380Y-110116904D01*
X195592380Y-109545476D02*
X195020952Y-109974047D01*
X194592380Y-109545476D02*
X195163809Y-110116904D01*
%TO.C,D5*%
X188491904Y-123007380D02*
X188491904Y-122007380D01*
X188730000Y-122007380D01*
X188872857Y-122055000D01*
X188968095Y-122150238D01*
X189015714Y-122245476D01*
X189063333Y-122435952D01*
X189063333Y-122578809D01*
X189015714Y-122769285D01*
X188968095Y-122864523D01*
X188872857Y-122959761D01*
X188730000Y-123007380D01*
X188491904Y-123007380D01*
X189968095Y-122007380D02*
X189491904Y-122007380D01*
X189444285Y-122483571D01*
X189491904Y-122435952D01*
X189587142Y-122388333D01*
X189825238Y-122388333D01*
X189920476Y-122435952D01*
X189968095Y-122483571D01*
X190015714Y-122578809D01*
X190015714Y-122816904D01*
X189968095Y-122912142D01*
X189920476Y-122959761D01*
X189825238Y-123007380D01*
X189587142Y-123007380D01*
X189491904Y-122959761D01*
X189444285Y-122912142D01*
X187582380Y-120276904D02*
X186582380Y-120276904D01*
X187582380Y-119705476D02*
X187010952Y-120134047D01*
X186582380Y-119705476D02*
X187153809Y-120276904D01*
%TO.C,D4*%
X192301904Y-79827380D02*
X192301904Y-78827380D01*
X192540000Y-78827380D01*
X192682857Y-78875000D01*
X192778095Y-78970238D01*
X192825714Y-79065476D01*
X192873333Y-79255952D01*
X192873333Y-79398809D01*
X192825714Y-79589285D01*
X192778095Y-79684523D01*
X192682857Y-79779761D01*
X192540000Y-79827380D01*
X192301904Y-79827380D01*
X193730476Y-79160714D02*
X193730476Y-79827380D01*
X193492380Y-78779761D02*
X193254285Y-79494047D01*
X193873333Y-79494047D01*
X191392380Y-92336904D02*
X190392380Y-92336904D01*
X191392380Y-91765476D02*
X190820952Y-92194047D01*
X190392380Y-91765476D02*
X190963809Y-92336904D01*
%TO.C,D3*%
X188491904Y-79827380D02*
X188491904Y-78827380D01*
X188730000Y-78827380D01*
X188872857Y-78875000D01*
X188968095Y-78970238D01*
X189015714Y-79065476D01*
X189063333Y-79255952D01*
X189063333Y-79398809D01*
X189015714Y-79589285D01*
X188968095Y-79684523D01*
X188872857Y-79779761D01*
X188730000Y-79827380D01*
X188491904Y-79827380D01*
X189396666Y-78827380D02*
X190015714Y-78827380D01*
X189682380Y-79208333D01*
X189825238Y-79208333D01*
X189920476Y-79255952D01*
X189968095Y-79303571D01*
X190015714Y-79398809D01*
X190015714Y-79636904D01*
X189968095Y-79732142D01*
X189920476Y-79779761D01*
X189825238Y-79827380D01*
X189539523Y-79827380D01*
X189444285Y-79779761D01*
X189396666Y-79732142D01*
X191782380Y-82176904D02*
X190782380Y-82176904D01*
X191782380Y-81605476D02*
X191210952Y-82034047D01*
X190782380Y-81605476D02*
X191353809Y-82176904D01*
%TO.C,D1*%
X144041904Y-80271880D02*
X144041904Y-79271880D01*
X144280000Y-79271880D01*
X144422857Y-79319500D01*
X144518095Y-79414738D01*
X144565714Y-79509976D01*
X144613333Y-79700452D01*
X144613333Y-79843309D01*
X144565714Y-80033785D01*
X144518095Y-80129023D01*
X144422857Y-80224261D01*
X144280000Y-80271880D01*
X144041904Y-80271880D01*
X145565714Y-80271880D02*
X144994285Y-80271880D01*
X145280000Y-80271880D02*
X145280000Y-79271880D01*
X145184761Y-79414738D01*
X145089523Y-79509976D01*
X144994285Y-79557595D01*
X139438095Y-75822380D02*
X139438095Y-74822380D01*
X140009523Y-75822380D02*
X139580952Y-75250952D01*
X140009523Y-74822380D02*
X139438095Y-75393809D01*
%TO.C,C9*%
X148607142Y-111886666D02*
X148654761Y-111934285D01*
X148702380Y-112077142D01*
X148702380Y-112172380D01*
X148654761Y-112315238D01*
X148559523Y-112410476D01*
X148464285Y-112458095D01*
X148273809Y-112505714D01*
X148130952Y-112505714D01*
X147940476Y-112458095D01*
X147845238Y-112410476D01*
X147750000Y-112315238D01*
X147702380Y-112172380D01*
X147702380Y-112077142D01*
X147750000Y-111934285D01*
X147797619Y-111886666D01*
X148702380Y-111410476D02*
X148702380Y-111220000D01*
X148654761Y-111124761D01*
X148607142Y-111077142D01*
X148464285Y-110981904D01*
X148273809Y-110934285D01*
X147892857Y-110934285D01*
X147797619Y-110981904D01*
X147750000Y-111029523D01*
X147702380Y-111124761D01*
X147702380Y-111315238D01*
X147750000Y-111410476D01*
X147797619Y-111458095D01*
X147892857Y-111505714D01*
X148130952Y-111505714D01*
X148226190Y-111458095D01*
X148273809Y-111410476D01*
X148321428Y-111315238D01*
X148321428Y-111124761D01*
X148273809Y-111029523D01*
X148226190Y-110981904D01*
X148130952Y-110934285D01*
%TO.C,C8*%
X124293333Y-89892142D02*
X124245714Y-89939761D01*
X124102857Y-89987380D01*
X124007619Y-89987380D01*
X123864761Y-89939761D01*
X123769523Y-89844523D01*
X123721904Y-89749285D01*
X123674285Y-89558809D01*
X123674285Y-89415952D01*
X123721904Y-89225476D01*
X123769523Y-89130238D01*
X123864761Y-89035000D01*
X124007619Y-88987380D01*
X124102857Y-88987380D01*
X124245714Y-89035000D01*
X124293333Y-89082619D01*
X124864761Y-89415952D02*
X124769523Y-89368333D01*
X124721904Y-89320714D01*
X124674285Y-89225476D01*
X124674285Y-89177857D01*
X124721904Y-89082619D01*
X124769523Y-89035000D01*
X124864761Y-88987380D01*
X125055238Y-88987380D01*
X125150476Y-89035000D01*
X125198095Y-89082619D01*
X125245714Y-89177857D01*
X125245714Y-89225476D01*
X125198095Y-89320714D01*
X125150476Y-89368333D01*
X125055238Y-89415952D01*
X124864761Y-89415952D01*
X124769523Y-89463571D01*
X124721904Y-89511190D01*
X124674285Y-89606428D01*
X124674285Y-89796904D01*
X124721904Y-89892142D01*
X124769523Y-89939761D01*
X124864761Y-89987380D01*
X125055238Y-89987380D01*
X125150476Y-89939761D01*
X125198095Y-89892142D01*
X125245714Y-89796904D01*
X125245714Y-89606428D01*
X125198095Y-89511190D01*
X125150476Y-89463571D01*
X125055238Y-89415952D01*
%TO.C,C7*%
X127087333Y-89892142D02*
X127039714Y-89939761D01*
X126896857Y-89987380D01*
X126801619Y-89987380D01*
X126658761Y-89939761D01*
X126563523Y-89844523D01*
X126515904Y-89749285D01*
X126468285Y-89558809D01*
X126468285Y-89415952D01*
X126515904Y-89225476D01*
X126563523Y-89130238D01*
X126658761Y-89035000D01*
X126801619Y-88987380D01*
X126896857Y-88987380D01*
X127039714Y-89035000D01*
X127087333Y-89082619D01*
X127420666Y-88987380D02*
X128087333Y-88987380D01*
X127658761Y-89987380D01*
%TO.C,C6*%
X164933333Y-72747142D02*
X164885714Y-72794761D01*
X164742857Y-72842380D01*
X164647619Y-72842380D01*
X164504761Y-72794761D01*
X164409523Y-72699523D01*
X164361904Y-72604285D01*
X164314285Y-72413809D01*
X164314285Y-72270952D01*
X164361904Y-72080476D01*
X164409523Y-71985238D01*
X164504761Y-71890000D01*
X164647619Y-71842380D01*
X164742857Y-71842380D01*
X164885714Y-71890000D01*
X164933333Y-71937619D01*
X165790476Y-71842380D02*
X165600000Y-71842380D01*
X165504761Y-71890000D01*
X165457142Y-71937619D01*
X165361904Y-72080476D01*
X165314285Y-72270952D01*
X165314285Y-72651904D01*
X165361904Y-72747142D01*
X165409523Y-72794761D01*
X165504761Y-72842380D01*
X165695238Y-72842380D01*
X165790476Y-72794761D01*
X165838095Y-72747142D01*
X165885714Y-72651904D01*
X165885714Y-72413809D01*
X165838095Y-72318571D01*
X165790476Y-72270952D01*
X165695238Y-72223333D01*
X165504761Y-72223333D01*
X165409523Y-72270952D01*
X165361904Y-72318571D01*
X165314285Y-72413809D01*
%TO.C,C5*%
X151487142Y-82716666D02*
X151534761Y-82764285D01*
X151582380Y-82907142D01*
X151582380Y-83002380D01*
X151534761Y-83145238D01*
X151439523Y-83240476D01*
X151344285Y-83288095D01*
X151153809Y-83335714D01*
X151010952Y-83335714D01*
X150820476Y-83288095D01*
X150725238Y-83240476D01*
X150630000Y-83145238D01*
X150582380Y-83002380D01*
X150582380Y-82907142D01*
X150630000Y-82764285D01*
X150677619Y-82716666D01*
X150582380Y-81811904D02*
X150582380Y-82288095D01*
X151058571Y-82335714D01*
X151010952Y-82288095D01*
X150963333Y-82192857D01*
X150963333Y-81954761D01*
X151010952Y-81859523D01*
X151058571Y-81811904D01*
X151153809Y-81764285D01*
X151391904Y-81764285D01*
X151487142Y-81811904D01*
X151534761Y-81859523D01*
X151582380Y-81954761D01*
X151582380Y-82192857D01*
X151534761Y-82288095D01*
X151487142Y-82335714D01*
%TO.C,C4*%
X165088333Y-128627142D02*
X165040714Y-128674761D01*
X164897857Y-128722380D01*
X164802619Y-128722380D01*
X164659761Y-128674761D01*
X164564523Y-128579523D01*
X164516904Y-128484285D01*
X164469285Y-128293809D01*
X164469285Y-128150952D01*
X164516904Y-127960476D01*
X164564523Y-127865238D01*
X164659761Y-127770000D01*
X164802619Y-127722380D01*
X164897857Y-127722380D01*
X165040714Y-127770000D01*
X165088333Y-127817619D01*
X165945476Y-128055714D02*
X165945476Y-128722380D01*
X165707380Y-127674761D02*
X165469285Y-128389047D01*
X166088333Y-128389047D01*
%TO.C,C3*%
X138025142Y-82716666D02*
X138072761Y-82764285D01*
X138120380Y-82907142D01*
X138120380Y-83002380D01*
X138072761Y-83145238D01*
X137977523Y-83240476D01*
X137882285Y-83288095D01*
X137691809Y-83335714D01*
X137548952Y-83335714D01*
X137358476Y-83288095D01*
X137263238Y-83240476D01*
X137168000Y-83145238D01*
X137120380Y-83002380D01*
X137120380Y-82907142D01*
X137168000Y-82764285D01*
X137215619Y-82716666D01*
X137120380Y-82383333D02*
X137120380Y-81764285D01*
X137501333Y-82097619D01*
X137501333Y-81954761D01*
X137548952Y-81859523D01*
X137596571Y-81811904D01*
X137691809Y-81764285D01*
X137929904Y-81764285D01*
X138025142Y-81811904D01*
X138072761Y-81859523D01*
X138120380Y-81954761D01*
X138120380Y-82240476D01*
X138072761Y-82335714D01*
X138025142Y-82383333D01*
%TO.C,C2*%
X176208333Y-72747142D02*
X176160714Y-72794761D01*
X176017857Y-72842380D01*
X175922619Y-72842380D01*
X175779761Y-72794761D01*
X175684523Y-72699523D01*
X175636904Y-72604285D01*
X175589285Y-72413809D01*
X175589285Y-72270952D01*
X175636904Y-72080476D01*
X175684523Y-71985238D01*
X175779761Y-71890000D01*
X175922619Y-71842380D01*
X176017857Y-71842380D01*
X176160714Y-71890000D01*
X176208333Y-71937619D01*
X176589285Y-71937619D02*
X176636904Y-71890000D01*
X176732142Y-71842380D01*
X176970238Y-71842380D01*
X177065476Y-71890000D01*
X177113095Y-71937619D01*
X177160714Y-72032857D01*
X177160714Y-72128095D01*
X177113095Y-72270952D01*
X176541666Y-72842380D01*
X177160714Y-72842380D01*
%TO.C,C1*%
X176208333Y-128627142D02*
X176160714Y-128674761D01*
X176017857Y-128722380D01*
X175922619Y-128722380D01*
X175779761Y-128674761D01*
X175684523Y-128579523D01*
X175636904Y-128484285D01*
X175589285Y-128293809D01*
X175589285Y-128150952D01*
X175636904Y-127960476D01*
X175684523Y-127865238D01*
X175779761Y-127770000D01*
X175922619Y-127722380D01*
X176017857Y-127722380D01*
X176160714Y-127770000D01*
X176208333Y-127817619D01*
X177160714Y-128722380D02*
X176589285Y-128722380D01*
X176875000Y-128722380D02*
X176875000Y-127722380D01*
X176779761Y-127865238D01*
X176684523Y-127960476D01*
X176589285Y-128008095D01*
%TD*%
M02*
